SplineFontDB: 3.0
FontName: Samaano-Wide-Thin
FullName: Samaano Wide Thin
FamilyName: Samaano
Weight: Thin
Copyright: Copyright 2025 The Samaano Project Authors (https://github.com/mitradranirban/samaano-fonts)
UComments: "2024-8-27: Created with FontForge (http://fontforge.org)"
Version: 2.600
StyleMapFamilyName: Samaano Wide Thin
ItalicAngle: 0
UnderlinePosition: 0
UnderlineWidth: 102
Ascent: 1638
Descent: 410
InvalidEm: 0
UFOAscent: 1638
UFODescent: -410
LayerCount: 2
Layer: 0 0 "Back" 1
Layer: 1 0 "public.default" 0 "glyphs"
StyleMap: 0x0040
FSType: 0
OS2Version: 0
OS2_WeightWidthSlopeOnly: 0
OS2_UseTypoMetrics: 0
CreationTime: 1765465461
ModificationTime: 1765465567
PfmFamily: 16
TTFWeight: 700
TTFWidth: 5
LineGap: 0
VLineGap: 0
Panose: 2 7 8 9 2 2 5 2 4 4
OS2TypoAscent: 2457
OS2TypoAOffset: 0
OS2TypoDescent: -615
OS2TypoDOffset: 0
OS2TypoLinegap: 0
OS2WinAscent: 3225
OS2WinAOffset: 0
OS2WinDescent: 1040
OS2WinDOffset: 0
HheadAscent: 2457
HheadAOffset: 0
HheadDescent: -615
HheadDOffset: 0
OS2CapHeight: 1548
OS2XHeight: 1023
OS2FamilyClass: 1031
OS2Vendor: 'anir'
Lookup: 1 0 0 "loclLocalizedFormsinLatinlookup10" { "loclLocalizedFormsinLatinlookup10 subtable"  } ['locl' ('latn' <'MOL ' 'ROM ' > ) ]
Lookup: 6 0 0 "loclLocalizedFormsinLatinlookup11" { "loclLocalizedFormsinLatinlookup11 contextual 0"  "loclLocalizedFormsinLatinlookup11 contextual 1"  } ['locl' ('latn' <'CAT ' > ) ]
Lookup: 4 0 0 "Ligature Substitution lookup 2" { "Ligature Substitution lookup 2 subtable"  } []
Lookup: 4 0 0 "Ligature Substitution lookup 3" { "Ligature Substitution lookup 3 subtable"  } []
Lookup: 6 16 0 "ccmp_soft_dotted" { "ccmp_soft_dotted subtable"  } ['ccmp' ('latn' <'dflt' > 'DFLT' <'dflt' > ) ]
Lookup: 1 16 0 "Single Substitution lookup 5" { "Single Substitution lookup 5 subtable"  } []
Lookup: 4 0 0 "dligDiscretionaryLigatureslookup0" { "dligDiscretionaryLigatureslookup0 subtable"  } ['dlig' ('latn' <'dflt' > 'DFLT' <'dflt' > ) ]

StartChar: A
Encoding: 65 65 0
GlifName: A_
Width: 2048
VWidth: 0
GlyphClass: 2
Flags: W
AnchorPoint: "top" 1013 1645 basechar 0
AnchorPoint: "base" 1026 -9 basechar 0
LayerCount: 2
Fore
SplineSet
128 0 m 257
 187 0 l 257
 187 1553 l 257
 128 1553 l 257
 128 0 l 257
187 1492 m 257
 1875 1492 l 257
 1875 1553 l 257
 187 1553 l 257
 187 1492 l 257
181 970 m 257
 181 911 l 257
 1875 911 l 257
 1875 970 l 257
 181 970 l 257
1859 0 m 257
 1919 0 l 257
 1919 1553 l 257
 1859 1553 l 257
 1859 0 l 257
EndSplineSet
Substitution2: "Single Substitution lookup 10 subtable" ordfeminine
EndChar

StartChar: AE
Encoding: 198 198 1
GlifName: A_E_
Width: 2048
VWidth: 0
GlyphClass: 2
Flags: W
AnchorPoint: "top" 1041 1817 basechar 0
AnchorPoint: "base" 1038 -32 basechar 0
LayerCount: 2
Fore
SplineSet
1040 62 m 257
 1040 0 l 257
 1972 0 l 257
 1972 62 l 257
 1040 62 l 257
76 0 m 257
 138 0 l 257
 138 1550 l 257
 76 1550 l 257
 76 0 l 257
120 1489 m 257
 1950 1489 l 257
 1950 1550 l 257
 120 1550 l 257
 120 1489 l 257
124 1023 m 257
 124 964 l 257
 1898 964 l 257
 1898 1023 l 257
 124 1023 l 257
1014 0 m 257
 1074 0 l 257
 1074 1550 l 257
 1014 1550 l 257
 1014 0 l 257
EndSplineSet
EndChar

StartChar: B
Encoding: 66 66 16
GlifName: B_
Width: 2048
VWidth: 0
GlyphClass: 2
Flags: W
AnchorPoint: "top" 554 1637 basechar 0
AnchorPoint: "base" 574 -27 basechar 0
LayerCount: 2
Fore
SplineSet
114 0 m 257
 171 0 l 257
 171 1553 l 257
 114 1553 l 257
 114 0 l 257
1060 1494 m 257
 1899 1232 l 257
 1899 1288 l 257
 1060 1550 l 257
 1060 1494 l 257
1083 848 m 257
 1899 1232 l 257
 1899 1286 l 257
 1083 908 l 257
 1083 848 l 257
1065 62 m 257
 1065 0 l 257
 1933 434 l 257
 1933 500 l 257
 1065 62 l 257
1069 719 m 257
 1934 430 l 257
 1934 501 l 257
 1069 781 l 257
 1069 719 l 257
168 907 m 257
 168 847 l 257
 1083 847 l 257
 1083 907 l 257
 168 907 l 257
159 781 m 257
 159 721 l 257
 1069 721 l 257
 1069 781 l 257
 159 781 l 257
155 62 m 257
 155 0 l 257
 1065 0 l 257
 1065 62 l 257
 155 62 l 257
150 1553 m 257
 150 1494 l 257
 1060 1494 l 257
 1060 1553 l 257
 150 1553 l 257
EndSplineSet
EndChar

StartChar: C
Encoding: 67 67 18
GlifName: C_
Width: 2048
VWidth: 0
GlyphClass: 2
Flags: W
AnchorPoint: "top" 994 1641 basechar 0
AnchorPoint: "base" 1002 -75 basechar 0
LayerCount: 2
Fore
SplineSet
71 1553 m 257
 71 0 l 257
 131 0 l 257
 131 1553 l 257
 71 1553 l 257
100 1553 m 257
 100 1495 l 257
 1977 1495 l 257
 1977 1553 l 257
 100 1553 l 257
105 58 m 257
 105 0 l 257
 1975 0 l 257
 1975 58 l 257
 105 58 l 257
EndSplineSet
EndChar

StartChar: D
Encoding: 68 68 26
GlifName: D_
Width: 2048
VWidth: 0
GlyphClass: 2
Flags: W
AnchorPoint: "base" 710 -51 basechar 0
AnchorPoint: "top" 674 1641 basechar 0
LayerCount: 2
Fore
SplineSet
108 1553 m 257
 108 0 l 257
 168 0 l 257
 168 1553 l 257
 108 1553 l 257
1248 1550 m 257
 1248 1493 l 257
 1938 961 l 257
 1938 1023 l 257
 1248 1550 l 257
1248 58 m 257
 1248 0 l 257
 1940 960 l 257
 1940 1023 l 257
 1248 58 l 257
168 1553 m 257
 168 1493 l 257
 1248 1493 l 257
 1248 1553 l 257
 168 1553 l 257
170 58 m 257
 170 0 l 257
 1248 0 l 257
 1248 58 l 257
 170 58 l 257
EndSplineSet
EndChar

StartChar: Dcroat
Encoding: 272 272 28
GlifName: D_croat
Width: 2048
VWidth: 0
GlyphClass: 2
Flags: W
AnchorPoint: "top" 1033 1652 basechar 0
AnchorPoint: "base" 997 -214 basechar 0
LayerCount: 2
Fore
SplineSet
56 935 m 257
 56 876 l 257
 468 876 l 257
 468 935 l 257
 56 935 l 257
162 1550 m 257
 162 0 l 257
 224 0 l 257
 224 1550 l 257
 162 1550 l 257
1512 1550 m 257
 1512 1488 l 257
 1992 906 l 257
 1992 1019 l 257
 1512 1550 l 257
1520 61 m 257
 1520 0 l 257
 1992 915 l 257
 1992 1023 l 257
 1520 61 l 257
208 1550 m 257
 208 1488 l 257
 1512 1488 l 257
 1512 1550 l 257
 208 1550 l 257
204 61 m 257
 204 0 l 257
 1520 0 l 257
 1520 61 l 257
 204 61 l 257
EndSplineSet
EndChar

StartChar: Delta
Encoding: 8710 8710 29
GlifName: increment
Width: 2048
VWidth: 0
GlyphClass: 2
Flags: W
LayerCount: 2
Fore
SplineSet
125 57 m 257
 125 0 l 257
 1923 0 l 257
 1923 57 l 257
 125 57 l 257
1941 0 m 257
 1090 1548 l 257
 1018 1548 l 257
 1889 0 l 257
 1941 0 l 257
155 0 m 257
 1023 1548 l 257
 952 1548 l 257
 106 0 l 257
 155 0 l 257
EndSplineSet
EndChar

StartChar: E
Encoding: 69 69 30
GlifName: E_
Width: 2048
VWidth: 0
GlyphClass: 2
Flags: W
AnchorPoint: "top" 990 1637 basechar 0
AnchorPoint: "base" 1074 -88 basechar 0
LayerCount: 2
Fore
SplineSet
116 1550 m 257
 116 0 l 257
 174 0 l 257
 174 1550 l 257
 116 1550 l 257
152 1553 m 257
 152 1490 l 257
 1912 1490 l 257
 1912 1553 l 257
 152 1553 l 257
158 60 m 257
 158 0 l 257
 1928 0 l 257
 1928 60 l 257
 158 60 l 257
158 859 m 257
 158 798 l 257
 1682 798 l 257
 1682 859 l 257
 158 859 l 257
EndSplineSet
EndChar

StartChar: Eng
Encoding: 330 330 39
GlifName: E_ng
Width: 2048
VWidth: 0
GlyphClass: 2
Flags: W
AnchorPoint: "top" 1017 1603 basechar 0
AnchorPoint: "base" 884 -400 basechar 0
LayerCount: 2
Fore
SplineSet
1548 -348 m 257
 1548 -408 l 257
 1935 -408 l 257
 1935 -348 l 257
 1548 -348 l 257
185 1490 m 257
 185 0 l 257
 245 0 l 257
 245 1490 l 257
 185 1490 l 257
1876 1506 m 257
 1876 -408 l 257
 1936 -408 l 257
 1936 1506 l 257
 1876 1506 l 257
112 1550 m 257
 112 1490 l 257
 1935 1490 l 257
 1935 1550 l 257
 112 1550 l 257
EndSplineSet
EndChar

StartChar: Eth
Encoding: 208 208 45
GlifName: E_th
Width: 2048
VWidth: 0
GlyphClass: 2
Flags: W
AnchorPoint: "top" 1016 1652 basechar 0
AnchorPoint: "base" 1040 -142 basechar 0
LayerCount: 2
Fore
SplineSet
55 935 m 257
 55 873 l 257
 362 873 l 257
 362 935 l 257
 55 935 l 257
162 1553 m 257
 162 0 l 257
 223 0 l 257
 223 1553 l 257
 162 1553 l 257
1512 1553 m 257
 1512 1484 l 257
 1993 964 l 257
 1993 1023 l 257
 1512 1553 l 257
1520 60 m 257
 1520 0 l 257
 1993 964 l 257
 1993 1023 l 257
 1520 60 l 257
202 1553 m 257
 202 1484 l 257
 1512 1484 l 257
 1512 1553 l 257
 202 1553 l 257
210 60 m 257
 210 0 l 257
 1520 0 l 257
 1520 60 l 257
 210 60 l 257
EndSplineSet
EndChar

StartChar: Euro
Encoding: 8364 8364 46
GlifName: E_uro
Width: 2048
VWidth: 0
GlyphClass: 2
Flags: W
LayerCount: 2
Fore
SplineSet
688 520 m 257
 688 451 l 257
 1325 451 l 257
 1325 520 l 257
 688 520 l 257
700 856 m 257
 700 788 l 257
 1309 788 l 257
 1309 856 l 257
 700 856 l 257
956 1026 m 257
 956 179 l 257
 1036 179 l 257
 1036 1026 l 257
 956 1026 l 257
1274 1633 m 257
 956 1026 l 257
 1036 1026 l 257
 1299 1607 l 257
 1274 1633 l 257
956 179 m 257
 1300 -406 l 257
 1360 -406 l 257
 1036 179 l 257
 956 179 l 257
EndSplineSet
EndChar

StartChar: F
Encoding: 70 70 47
GlifName: F_
Width: 2048
VWidth: 0
GlyphClass: 2
Flags: W
AnchorPoint: "top" 1026 1618 basechar 0
AnchorPoint: "base" 774 -90 basechar 0
LayerCount: 2
Fore
SplineSet
117 1553 m 257
 117 3 l 257
 176 3 l 257
 176 1553 l 257
 117 1553 l 257
176 1553 m 257
 176 1497 l 257
 1930 1497 l 257
 1930 1553 l 257
 176 1553 l 257
167 864 m 257
 167 806 l 257
 1757 806 l 257
 1757 864 l 257
 167 864 l 257
EndSplineSet
EndChar

StartChar: G
Encoding: 71 71 48
GlifName: G_
Width: 2048
VWidth: 0
GlyphClass: 2
Flags: W
AnchorPoint: "top" 990 1649 basechar 0
AnchorPoint: "base" 1024 -42 basechar 0
LayerCount: 2
Fore
SplineSet
127 1529 m 257
 127 -4 l 257
 186 -4 l 257
 186 1529 l 257
 127 1529 l 257
180 1529 m 257
 180 1469 l 257
 1885 1469 l 257
 1885 1529 l 257
 180 1529 l 257
158 60 m 257
 158 0 l 257
 1921 0 l 257
 1921 60 l 257
 158 60 l 257
1860 561 m 257
 1860 18 l 257
 1921 18 l 257
 1921 561 l 257
 1860 561 l 257
EndSplineSet
EndChar

StartChar: Gamma
Encoding: 915 915 49
GlifName: G_amma
Width: 2048
VWidth: 0
GlyphClass: 2
Flags: W
LayerCount: 2
Fore
SplineSet
125 1548 m 257
 125 1488 l 257
 1923 1488 l 257
 1923 1548 l 257
 125 1548 l 257
129 1519 m 257
 129 6 l 257
 189 6 l 257
 189 1519 l 257
 129 1519 l 257
EndSplineSet
EndChar

StartChar: H
Encoding: 72 72 55
GlifName: H_
Width: 2048
VWidth: 0
GlyphClass: 2
Flags: W
AnchorPoint: "top" 1000 1634 basechar 0
AnchorPoint: "base" 1028 2 basechar 0
LayerCount: 2
Fore
SplineSet
114 1553 m 257
 114 0 l 257
 173 0 l 257
 173 1553 l 257
 114 1553 l 257
1873 1553 m 257
 1873 0 l 257
 1934 0 l 257
 1934 1553 l 257
 1873 1553 l 257
156 923 m 257
 156 864 l 257
 1897 864 l 257
 1897 923 l 257
 156 923 l 257
EndSplineSet
EndChar

StartChar: H18533
Encoding: 9679 9679 56
GlifName: blackC_ircle
Width: 2048
VWidth: 0
GlyphClass: 2
Flags: W
LayerCount: 2
Fore
SplineSet
1103 1186 m 257
 920 1174 l 257
 767 1089 l 257
 673 923 l 257
 687 730 l 257
 754 515 l 257
 978 421 l 257
 1140 443 l 257
 1319 493 l 257
 1386 645 l 257
 1418 780 l 257
 1413 946 l 257
 1323 1089 l 257
 1103 1186 l 257
EndSplineSet
EndChar

StartChar: H18543
Encoding: 9642 9642 57
GlifName: blackS_mallS_quare
Width: 2048
VWidth: 0
GlyphClass: 2
Flags: W
LayerCount: 2
Fore
SplineSet
772 1077 m 257
 772 580 l 257
 1269 580 l 257
 1269 1077 l 257
 772 1077 l 257
EndSplineSet
EndChar

StartChar: H18551
Encoding: 9643 9643 58
GlifName: whiteS_mallS_quare
Width: 2048
VWidth: 0
GlyphClass: 2
Flags: W
LayerCount: 2
Fore
SplineSet
774 1011 m 257
 774 518 l 257
 1267 518 l 257
 1267 1011 l 257
 774 1011 l 257
823 962 m 257
 1218 962 l 257
 1218 567 l 257
 823 567 l 257
 823 962 l 257
EndSplineSet
EndChar

StartChar: H22073
Encoding: 9633 9633 59
GlifName: whiteS_quare
Width: 2048
VWidth: 0
GlyphClass: 2
Flags: W
LayerCount: 2
Fore
SplineSet
614 1186 m 257
 614 363 l 257
 1437 363 l 257
 1437 1186 l 257
 614 1186 l 257
696 1104 m 257
 1355 1104 l 257
 1355 445 l 257
 696 445 l 257
 696 1104 l 257
EndSplineSet
EndChar

StartChar: Hbar
Encoding: 294 294 60
GlifName: H_bar
Width: 2048
VWidth: 0
GlyphClass: 2
Flags: W
LayerCount: 2
Fore
SplineSet
110 1540 m 257
 110 0 l 257
 170 0 l 257
 170 1540 l 257
 110 1540 l 257
1870 1540 m 257
 1870 0 l 257
 1930 0 l 257
 1930 1540 l 257
 1870 1540 l 257
150 1020 m 257
 150 959 l 257
 1886 959 l 257
 1886 1020 l 257
 150 1020 l 257
50 1434 m 257
 50 1374 l 257
 1998 1374 l 257
 1998 1434 l 257
 50 1434 l 257
EndSplineSet
EndChar

StartChar: I
Encoding: 73 73 62
GlifName: I_
Width: 2048
VWidth: 0
GlyphClass: 2
Flags: W
AnchorPoint: "top" 1094 1645 basechar 0
AnchorPoint: "base" 1104 -78 basechar 0
LayerCount: 2
Fore
SplineSet
154 1550 m 257
 154 1489 l 257
 1879 1489 l 257
 1879 1550 l 257
 154 1550 l 257
1058 1515 m 257
 1058 34 l 257
 1117 34 l 257
 1117 1515 l 257
 1058 1515 l 257
134 66 m 257
 134 6 l 257
 1914 6 l 257
 1914 66 l 257
 134 66 l 257
EndSplineSet
EndChar

StartChar: J
Encoding: 74 74 76
GlifName: J_
Width: 2048
VWidth: 0
GlyphClass: 2
Flags: W
AnchorPoint: "base" 1023 -89 basechar 0
AnchorPoint: "top" 1898 1627 basechar 0
LayerCount: 2
Fore
SplineSet
1864 1527 m 257
 1864 0 l 257
 1924 0 l 257
 1924 1527 l 257
 1864 1527 l 257
124 60 m 257
 124 0 l 257
 1890 0 l 257
 1890 60 l 257
 124 60 l 257
124 503 m 257
 124 27 l 257
 184 27 l 257
 184 503 l 257
 124 503 l 257
EndSplineSet
EndChar

StartChar: K
Encoding: 75 75 78
GlifName: K_
Width: 2048
VWidth: 0
GlyphClass: 2
Flags: W
AnchorPoint: "base" 762 -60 basechar 0
AnchorPoint: "top" 216 1622 basechar 0
LayerCount: 2
Fore
SplineSet
172 1553 m 257
 172 5 l 257
 232 5 l 257
 232 1553 l 257
 172 1553 l 257
230 1015 m 257
 230 944 l 257
 1842 1550 l 257
 1772 1550 l 257
 230 1015 l 257
230 934 m 257
 210 844 l 257
 1826 0 l 257
 1876 0 l 257
 230 934 l 257
EndSplineSet
EndChar

StartChar: L
Encoding: 76 76 81
GlifName: L_
Width: 2048
VWidth: 0
GlyphClass: 2
Flags: W
AnchorPoint: "base" 1002 -112 basechar 0
AnchorPoint: "top" 140 1650 basechar 0
LayerCount: 2
Fore
SplineSet
130 1553 m 257
 130 0 l 257
 190 0 l 257
 190 1553 l 257
 130 1553 l 257
144 61 m 257
 144 0 l 257
 1914 0 l 257
 1914 61 l 257
 144 61 l 257
EndSplineSet
EndChar

StartChar: Lambda
Encoding: 923 923 84
GlifName: L_ambda
Width: 2048
VWidth: 0
GlyphClass: 2
Flags: W
LayerCount: 2
Fore
SplineSet
1817 0 m 257
 1045 1548 l 257
 972 1548 l 257
 1764 0 l 257
 1817 0 l 257
307 0 m 257
 1044 1548 l 257
 973 1548 l 257
 258 0 l 257
 307 0 l 257
EndSplineSet
EndChar

StartChar: Lcaron
Encoding: 317 317 85
GlifName: L_caron
Width: 2048
VWidth: 0
GlyphClass: 2
Flags: W
LayerCount: 2
Fore
SplineSet
94 1542 m 257
 94 3 l 257
 156 3 l 257
 156 1542 l 257
 94 1542 l 257
122 62 m 257
 122 3 l 257
 1954 3 l 257
 1954 62 l 257
 122 62 l 257
488 1496 m 257
 488 1264 l 257
 528 1264 l 257
 528 1496 l 257
 488 1496 l 257
EndSplineSet
EndChar

StartChar: Lslash
Encoding: 321 321 89
GlifName: L_slash
Width: 2048
VWidth: 0
GlyphClass: 2
Flags: W
LayerCount: 2
Fore
SplineSet
172 1542 m 257
 172 3 l 257
 232 3 l 257
 232 1542 l 257
 172 1542 l 257
196 64 m 257
 196 3 l 257
 2031 3 l 257
 2031 64 l 257
 196 64 l 257
17 902 m 257
 97 866 l 257
 531 1068 l 257
 451 1104 l 257
 17 902 l 257
EndSplineSet
EndChar

StartChar: M
Encoding: 77 77 90
GlifName: M_
Width: 2048
VWidth: 0
GlyphClass: 2
Flags: W
AnchorPoint: "base" 1050 -80 basechar 0
AnchorPoint: "top" 980 1646 basechar 0
LayerCount: 2
Fore
SplineSet
100 1553 m 257
 100 0 l 257
 160 0 l 257
 160 1553 l 257
 100 1553 l 257
1886 1564 m 257
 1886 -3 l 257
 1948 -3 l 257
 1948 1564 l 257
 1886 1564 l 257
100 1553 m 257
 1046 1033 l 257
 1116 1033 l 257
 160 1553 l 257
 100 1553 l 257
1886 1564 m 257
 1048 1033 l 257
 1116 1033 l 257
 1948 1564 l 257
 1886 1564 l 257
EndSplineSet
EndChar

StartChar: N
Encoding: 78 78 92
GlifName: N_
Width: 2048
VWidth: 0
GlyphClass: 2
Flags: W
AnchorPoint: "top" 1004 1634 basechar 0
AnchorPoint: "base" 1022 -24 basechar 0
LayerCount: 2
Fore
SplineSet
98 1553 m 257
 98 0 l 257
 158 0 l 257
 158 1553 l 257
 98 1553 l 257
1890 1553 m 257
 1890 0 l 257
 1950 0 l 257
 1950 1553 l 257
 1890 1553 l 257
98 1553 m 257
 1890 0 l 257
 1950 0 l 257
 158 1553 l 257
 98 1553 l 257
EndSplineSet
EndChar

StartChar: O
Encoding: 79 79 98
GlifName: O_
Width: 2048
VWidth: 0
GlyphClass: 2
Flags: W
AnchorPoint: "top" 1048 1634 basechar 0
AnchorPoint: "base" 1040 -114 basechar 0
LayerCount: 2
Fore
SplineSet
112 1553 m 257
 112 0 l 257
 171 0 l 257
 171 1553 l 257
 112 1553 l 257
1877 1553 m 257
 1877 0 l 257
 1936 0 l 257
 1936 1553 l 257
 1877 1553 l 257
150 1553 m 257
 150 1493 l 257
 1906 1493 l 257
 1906 1553 l 257
 150 1553 l 257
152 61 m 257
 152 0 l 257
 1914 0 l 257
 1914 61 l 257
 152 61 l 257
EndSplineSet
Substitution2: "Single Substitution lookup 11 subtable" ordmasculine
EndChar

StartChar: OE
Encoding: 338 338 99
GlifName: O_E_
Width: 2048
VWidth: 0
GlyphClass: 2
Flags: W
AnchorPoint: "top" 1022 1608 basechar 0
AnchorPoint: "base" 1010 -120 basechar 0
LayerCount: 2
Fore
SplineSet
123 1553 m 257
 123 0 l 257
 182 0 l 257
 182 1553 l 257
 123 1553 l 257
1099 1553 m 257
 1099 0 l 257
 1158 0 l 257
 1158 1553 l 257
 1099 1553 l 257
161 1553 m 257
 161 1493 l 257
 1917 1493 l 257
 1917 1553 l 257
 161 1553 l 257
163 61 m 257
 163 0 l 257
 1925 0 l 257
 1925 61 l 257
 163 61 l 257
1131 859 m 257
 1131 798 l 257
 1866 798 l 257
 1866 859 l 257
 1131 859 l 257
EndSplineSet
EndChar

StartChar: OU
Encoding: 546 546 100
GlifName: O_U_
Width: 2048
VWidth: 0
Flags: W
LayerCount: 2
Fore
SplineSet
115 1552 m 257
 115 692 l 257
 175 692 l 257
 175 1552 l 257
 115 1552 l 257
1891 1552 m 257
 1888 696 l 257
 1948 696 l 257
 1951 1552 l 257
 1891 1552 l 257
102 637 m 257
 100 581 l 257
 1968 578 l 257
 1966 641 l 257
 102 637 l 257
102 637 m 257
 95 24 l 257
 158 24 l 257
 158 637 l 257
 102 637 l 257
1908 638 m 257
 1914 0 l 257
 1975 3 l 257
 1966 641 l 257
 1908 638 l 257
94 60 m 257
 92 0 l 257
 1966 0 l 257
 1966 60 l 257
 94 60 l 257
1966 636 m 257
 113 782 l 257
 117 691 l 257
 1968 578 l 257
 1966 636 l 257
101 581 m 257
 1948 696 l 257
 1943 778 l 257
 102 633 l 257
 101 581 l 257
793 1551 m 257
 122 1549 l 257
 120 1493 l 257
 797 1492 l 257
 793 1551 l 257
1268 1492 m 257
 1952 1490 l 257
 1950 1553 l 257
 1264 1551 l 257
 1268 1492 l 257
EndSplineSet
EndChar

StartChar: Oslash
Encoding: 216 216 113
GlifName: O_slash
Width: 2048
VWidth: 0
GlyphClass: 2
Flags: W
AnchorPoint: "top" 1023 1645 basechar 0
AnchorPoint: "base" 1011 -143 basechar 0
LayerCount: 2
Fore
SplineSet
1923 1630 m 257
 69 -48 l 257
 109 -75 l 257
 1979 1588 l 257
 1923 1630 l 257
107 1540 m 257
 107 0 l 257
 167 0 l 257
 167 1540 l 257
 107 1540 l 257
1872 1537 m 257
 1872 0 l 257
 1931 0 l 257
 1931 1537 l 257
 1872 1537 l 257
137 1538 m 257
 137 1478 l 257
 1901 1478 l 257
 1901 1538 l 257
 137 1538 l 257
147 75 m 257
 147 0 l 257
 1872 0 l 257
 1872 75 l 257
 147 75 l 257
EndSplineSet
EndChar

StartChar: P
Encoding: 80 80 116
GlifName: P_
Width: 2048
VWidth: 0
GlyphClass: 2
Flags: W
AnchorPoint: "base" 1018 -72 basechar 0
AnchorPoint: "top" 956 1642 basechar 0
LayerCount: 2
Fore
SplineSet
133 1535 m 257
 133 0 l 257
 192 0 l 257
 192 1535 l 257
 133 1535 l 257
133 1550 m 257
 133 1472 l 257
 1917 1472 l 257
 1917 1550 l 257
 133 1550 l 257
1856 1536 m 257
 1856 872 l 257
 1917 872 l 257
 1917 1536 l 257
 1856 1536 l 257
178 931 m 257
 178 871 l 257
 1889 871 l 257
 1889 931 l 257
 178 931 l 257
EndSplineSet
EndChar

StartChar: Phi
Encoding: 934 934 117
GlifName: P_hi
Width: 2048
VWidth: 0
GlyphClass: 2
Flags: W
LayerCount: 2
Fore
SplineSet
1006 1541 m 257
 1006 13 l 257
 1066 13 l 257
 1066 1541 l 257
 1006 1541 l 257
110 1373 m 257
 110 163 l 257
 171 163 l 257
 171 1373 l 257
 110 1373 l 257
1874 1373 m 257
 1874 163 l 257
 1934 163 l 257
 1934 1373 l 257
 1874 1373 l 257
146 1373 m 257
 146 1313 l 257
 1906 1313 l 257
 1906 1373 l 257
 146 1373 l 257
150 223 m 257
 150 163 l 257
 1894 163 l 257
 1894 223 l 257
 150 223 l 257
EndSplineSet
EndChar

StartChar: Pi
Encoding: 928 928 118
GlifName: P_i
Width: 2048
VWidth: 0
GlyphClass: 2
Flags: W
LayerCount: 2
Fore
SplineSet
110 1537 m 257
 110 0 l 257
 170 0 l 257
 170 1537 l 257
 110 1537 l 257
1873 1535 m 257
 1873 -2 l 257
 1934 0 l 257
 1934 1537 l 257
 1873 1535 l 257
110 1537 m 257
 110 1477 l 257
 1933 1477 l 257
 1933 1537 l 257
 110 1537 l 257
EndSplineSet
EndChar

StartChar: Psi
Encoding: 936 936 119
GlifName: P_si
Width: 2048
VWidth: 0
GlyphClass: 2
Flags: W
LayerCount: 2
Fore
SplineSet
995 1266 m 257
 995 0 l 257
 1055 0 l 257
 1055 1266 l 257
 995 1266 l 257
160 1548 m 257
 160 806 l 257
 220 806 l 257
 220 1548 l 257
 160 1548 l 257
1828 1546 m 257
 1828 804 l 257
 1888 806 l 257
 1888 1548 l 257
 1828 1546 l 257
176 866 m 257
 176 806 l 257
 1874 806 l 257
 1874 866 l 257
 176 866 l 257
EndSplineSet
EndChar

StartChar: Q
Encoding: 81 81 120
GlifName: Q_
Width: 2048
VWidth: 0
GlyphClass: 2
Flags: W
AnchorPoint: "base" 1022 -104 basechar 0
AnchorPoint: "top" 1021 1648 basechar 0
LayerCount: 2
Fore
SplineSet
112 1553 m 257
 112 0 l 257
 170 0 l 257
 170 1553 l 257
 112 1553 l 257
1878 1553 m 257
 1878 0 l 257
 1936 0 l 257
 1936 1553 l 257
 1878 1553 l 257
152 1553 m 257
 152 1496 l 257
 1886 1496 l 257
 1886 1553 l 257
 152 1553 l 257
152 62 m 257
 152 0 l 257
 1888 0 l 257
 1888 62 l 257
 152 62 l 257
1416 13 m 257
 1522 -204 l 257
 1584 -165 l 257
 1464 52 l 257
 1416 13 l 257
EndSplineSet
EndChar

StartChar: R
Encoding: 82 82 121
GlifName: R_
Width: 2048
VWidth: 0
GlyphClass: 2
Flags: W
AnchorPoint: "base" 942 4 basechar 0
AnchorPoint: "top" 960 1634 basechar 0
LayerCount: 2
Fore
SplineSet
122 1550 m 257
 122 0 l 257
 182 0 l 257
 182 1550 l 257
 122 1550 l 257
164 1550 m 257
 164 1491 l 257
 1880 1491 l 257
 1880 1550 l 257
 164 1550 l 257
1820 1550 m 257
 1820 872 l 257
 1908 872 l 257
 1908 1550 l 257
 1820 1550 l 257
152 929 m 257
 152 868 l 257
 1896 868 l 257
 1896 929 l 257
 152 929 l 257
414 875 m 257
 1870 0 l 257
 1926 0 l 257
 472 875 l 257
 414 875 l 257
EndSplineSet
EndChar

StartChar: S
Encoding: 83 83 126
GlifName: S_
Width: 2048
VWidth: 0
GlyphClass: 2
Flags: W
AnchorPoint: "top" 936 1642 basechar 0
AnchorPoint: "base" 968 -58 basechar 0
LayerCount: 2
Fore
SplineSet
126 1553 m 257
 126 1494 l 257
 1748 1494 l 257
 1748 1553 l 257
 126 1553 l 257
126 1542 m 257
 126 1028 l 257
 185 1028 l 257
 185 1542 l 257
 126 1542 l 257
154 60 m 257
 154 0 l 257
 1886 0 l 257
 1886 60 l 257
 154 60 l 257
1863 0 m 257
 1922 0 l 257
 1922 355 l 257
 1863 355 l 257
 1863 0 l 257
126 1028 m 257
 1863 355 l 257
 1922 355 l 257
 185 1028 l 257
 126 1028 l 257
EndSplineSet
EndChar

StartChar: Sigma
Encoding: 931 931 132
GlifName: S_igma
Width: 2048
VWidth: 0
GlyphClass: 2
Flags: W
LayerCount: 2
Fore
SplineSet
1216 928 m 257
 110 64 l 257
 110 -14 l 257
 1216 844 l 257
 1216 928 l 257
1218 921 m 257
 128 1539 l 257
 129 1478 l 257
 1218 841 l 257
 1218 921 l 257
1874 1477 m 257
 1874 1537 l 257
 128 1537 l 257
 128 1477 l 257
 1874 1477 l 257
1812 0 m 257
 1812 60 l 257
 125 60 l 257
 125 0 l 257
 1812 0 l 257
EndSplineSet
EndChar

StartChar: T
Encoding: 84 84 133
GlifName: T_
Width: 2048
VWidth: 0
GlyphClass: 2
Flags: W
AnchorPoint: "top" 1100 1654 basechar 0
AnchorPoint: "base" 1084 -62 basechar 0
LayerCount: 2
Fore
SplineSet
120 1553 m 257
 120 1494 l 257
 1928 1494 l 257
 1928 1553 l 257
 120 1553 l 257
991 1512 m 257
 991 12 l 257
 1051 12 l 257
 1051 1512 l 257
 991 1512 l 257
EndSplineSet
EndChar

StartChar: Theta
Encoding: 920 920 139
GlifName: T_heta
Width: 2048
VWidth: 0
GlyphClass: 2
Flags: W
LayerCount: 2
Fore
SplineSet
382 883 m 257
 382 823 l 257
 1694 823 l 257
 1694 883 l 257
 382 883 l 257
110 1537 m 257
 110 0 l 257
 170 0 l 257
 170 1537 l 257
 110 1537 l 257
1874 1537 m 257
 1874 0 l 257
 1934 0 l 257
 1934 1537 l 257
 1874 1537 l 257
150 1537 m 257
 150 1477 l 257
 1899 1477 l 257
 1899 1537 l 257
 150 1537 l 257
150 60 m 257
 150 0 l 257
 1913 0 l 257
 1913 60 l 257
 150 60 l 257
EndSplineSet
EndChar

StartChar: Thorn
Encoding: 222 222 140
GlifName: T_horn
Width: 2048
VWidth: 0
GlyphClass: 2
Flags: W
AnchorPoint: "base" 442 -42 basechar 0
AnchorPoint: "top" 379 1684 basechar 0
LayerCount: 2
Fore
SplineSet
134 1542 m 257
 134 9 l 257
 194 9 l 257
 194 1542 l 257
 134 1542 l 257
182 1240 m 257
 182 1187 l 257
 1894 1187 l 257
 1894 1240 l 257
 182 1240 l 257
1854 1242 m 257
 1854 531 l 257
 1914 531 l 257
 1914 1242 l 257
 1854 1242 l 257
202 544 m 257
 202 484 l 257
 1912 484 l 257
 1912 544 l 257
 202 544 l 257
EndSplineSet
EndChar

StartChar: U
Encoding: 85 85 141
GlifName: U_
Width: 2048
VWidth: 0
GlyphClass: 2
Flags: W
AnchorPoint: "top" 968 1630 basechar 0
AnchorPoint: "base" 1020 -82 basechar 0
LayerCount: 2
Fore
SplineSet
156 1553 m 257
 156 0 l 257
 218 0 l 257
 218 1553 l 257
 156 1553 l 257
1830 1553 m 257
 1830 0 l 257
 1890 0 l 257
 1890 1553 l 257
 1830 1553 l 257
204 61 m 257
 204 0 l 257
 1848 0 l 257
 1848 61 l 257
 204 61 l 257
EndSplineSet
EndChar

StartChar: V
Encoding: 86 86 156
GlifName: V_
Width: 2048
VWidth: 0
GlyphClass: 2
Flags: W
AnchorPoint: "top" 996 1622 basechar 0
AnchorPoint: "base" 1128 -74 basechar 0
LayerCount: 2
Fore
SplineSet
106 1553 m 257
 1062 0 l 257
 1122 0 l 257
 170 1553 l 257
 106 1553 l 257
1872 1553 m 257
 1062 0 l 257
 1122 0 l 257
 1942 1553 l 257
 1872 1553 l 257
EndSplineSet
EndChar

StartChar: W
Encoding: 87 87 157
GlifName: W_
Width: 2048
VWidth: 0
GlyphClass: 2
Flags: W
AnchorPoint: "base" 1094 -100 basechar 0
AnchorPoint: "top" 1028 1626 basechar 0
LayerCount: 2
Fore
SplineSet
103 1546 m 257
 103 0 l 257
 163 0 l 257
 163 1546 l 257
 103 1546 l 257
1885 1533 m 257
 1885 12 l 257
 1945 12 l 257
 1945 1533 l 257
 1885 1533 l 257
990 1028 m 257
 990 0 l 257
 1050 0 l 257
 1050 1028 l 257
 990 1028 l 257
111 60 m 257
 111 0 l 257
 1945 0 l 257
 1945 60 l 257
 111 60 l 257
EndSplineSet
EndChar

StartChar: X
Encoding: 88 88 162
GlifName: X_
Width: 2048
VWidth: 0
GlyphClass: 2
Flags: W
AnchorPoint: "top" 1028 1649 basechar 0
AnchorPoint: "base" 1016 -19 basechar 0
LayerCount: 2
Fore
SplineSet
102 1553 m 257
 1872 0 l 257
 1946 0 l 257
 174 1553 l 257
 102 1553 l 257
102 0 m 257
 172 0 l 257
 1946 1553 l 257
 1870 1553 l 257
 102 0 l 257
EndSplineSet
EndChar

StartChar: Xi
Encoding: 926 926 163
GlifName: X_i
Width: 2048
VWidth: 0
GlyphClass: 2
Flags: W
LayerCount: 2
Fore
SplineSet
151 948 m 257
 151 888 l 257
 1895 888 l 257
 1895 948 l 257
 151 948 l 257
97 1548 m 257
 97 1487 l 257
 1955 1487 l 257
 1955 1548 l 257
 97 1548 l 257
98 60 m 257
 98 0 l 257
 1950 0 l 257
 1950 60 l 257
 98 60 l 257
EndSplineSet
EndChar

StartChar: Y
Encoding: 89 89 164
GlifName: Y_
Width: 2048
VWidth: 0
GlyphClass: 2
Flags: W
AnchorPoint: "top" 1056 1626 basechar 0
AnchorPoint: "base" 1092 -74 basechar 0
LayerCount: 2
Fore
SplineSet
995 895 m 257
 995 0 l 257
 1054 0 l 257
 1054 895 l 257
 995 895 l 257
171 1547 m 257
 171 859 l 257
 232 859 l 257
 232 1547 l 257
 171 1547 l 257
1817 1536 m 257
 1817 859 l 257
 1877 859 l 257
 1877 1536 l 257
 1817 1536 l 257
217 919 m 257
 217 859 l 257
 1850 859 l 257
 1850 919 l 257
 217 919 l 257
EndSplineSet
EndChar

StartChar: Z
Encoding: 90 90 169
GlifName: Z_
Width: 2048
VWidth: 0
GlyphClass: 2
Flags: W
AnchorPoint: "top" 1020 1630 basechar 0
AnchorPoint: "base" 1004 -38 basechar 0
LayerCount: 2
Fore
SplineSet
98 1550 m 257
 98 1491 l 257
 1950 1491 l 257
 1950 1550 l 257
 98 1550 l 257
99 60 m 257
 99 0 l 257
 1950 0 l 257
 1950 60 l 257
 99 60 l 257
1890 1491 m 257
 99 60 l 257
 159 60 l 257
 1950 1491 l 257
 1890 1491 l 257
EndSplineSet
EndChar

StartChar: a
Encoding: 97 97 174
GlifName: a
Width: 2048
VWidth: 0
GlyphClass: 2
Flags: W
AnchorPoint: "top" 1020 1142 basechar 0
AnchorPoint: "base" 1064 -74 basechar 0
LayerCount: 2
Fore
SplineSet
166 1023 m 257
 166 957 l 257
 1839 957 l 257
 1839 1023 l 257
 166 1023 l 257
1801 1023 m 257
 1801 0 l 257
 1878 0 l 257
 1878 1023 l 257
 1801 1023 l 257
169 600 m 257
 169 538 l 257
 1817 538 l 257
 1817 600 l 257
 169 600 l 257
170 577 m 257
 170 0 l 257
 241 0 l 257
 241 577 l 257
 170 577 l 257
179 74 m 257
 179 0 l 257
 1867 0 l 257
 1867 74 l 257
 179 74 l 257
EndSplineSet
Substitution2: "Single Substitution lookup 10 subtable" ordfeminine
EndChar

StartChar: acute
Encoding: 180 180 178
GlifName: acute
Width: 2048
VWidth: 0
GlyphClass: 2
Flags: W
LayerCount: 2
Fore
SplineSet
565 1541 m 257
 435 1287 l 257
 480 1256 l 257
 611 1511 l 257
 565 1541 l 257
EndSplineSet
EndChar

StartChar: acutecomb
Encoding: 769 769 179
GlifName: acutecomb
Width: 0
VWidth: 0
GlyphClass: 4
Flags: W
AnchorPoint: "top" 8 786 mark 0
LayerCount: 2
Fore
SplineSet
73 1017 m 257
 -6 832 l 257
 47 798 l 257
 126 983 l 257
 73 1017 l 257
EndSplineSet
EndChar

StartChar: ae
Encoding: 230 230 181
GlifName: ae
Width: 2048
VWidth: 0
GlyphClass: 2
Flags: W
AnchorPoint: "base" 1027 -103 basechar 0
AnchorPoint: "top" 1044 1130 basechar 0
LayerCount: 2
Fore
SplineSet
104 1023 m 257
 104 961 l 257
 1894 961 l 257
 1894 1023 l 257
 104 1023 l 257
1024 1023 m 257
 1024 0 l 257
 1084 0 l 257
 1084 1023 l 257
 1024 1023 l 257
128 599 m 257
 128 538 l 257
 1868 538 l 257
 1868 599 l 257
 128 599 l 257
128 575 m 257
 128 0 l 257
 188 0 l 257
 188 575 l 257
 128 575 l 257
126 61 m 257
 126 0 l 257
 1946 0 l 257
 1946 61 l 257
 126 61 l 257
1862 1023 m 257
 1862 538 l 257
 1924 538 l 257
 1924 1023 l 257
 1862 1023 l 257
EndSplineSet
EndChar

StartChar: afii10018
Encoding: 1041 1041 185
GlifName: B_e-cy
Width: 2048
VWidth: 0
GlyphClass: 2
Flags: W
AnchorPoint: "base" 950 -60 basechar 0
AnchorPoint: "top" 220 1646 basechar 0
LayerCount: 2
Fore
SplineSet
47 1536 m 257
 47 0 l 257
 107 0 l 257
 107 1536 l 257
 47 1536 l 257
90 808 m 257
 90 747 l 257
 1908 747 l 257
 1908 808 l 257
 90 808 l 257
1895 808 m 257
 1895 0 l 257
 1955 0 l 257
 1955 808 l 257
 1895 808 l 257
82 60 m 257
 82 0 l 257
 1933 0 l 257
 1933 60 l 257
 82 60 l 257
90 1537 m 257
 90 1476 l 257
 1908 1476 l 257
 1908 1537 l 257
 90 1537 l 257
EndSplineSet
EndChar

StartChar: afii10021
Encoding: 1044 1044 188
GlifName: D_e-cy
Width: 2048
VWidth: 0
GlyphClass: 2
Flags: W
LayerCount: 2
Fore
SplineSet
18 203 m 257
 18 143 l 257
 2016 143 l 257
 2016 203 l 257
 18 203 l 257
18 159 m 257
 20 -405 l 257
 80 -405 l 257
 78 159 l 257
 18 159 l 257
1956 159 m 257
 1956 -412 l 257
 2016 -412 l 257
 2016 159 l 257
 1956 159 l 257
1612 1516 m 257
 1612 162 l 257
 1672 162 l 257
 1672 1516 l 257
 1612 1516 l 257
684 1538 m 257
 684 1478 l 257
 1672 1478 l 257
 1672 1538 l 257
 684 1538 l 257
664 1539 m 257
 235 185 l 257
 295 185 l 257
 724 1539 l 257
 664 1539 l 257
EndSplineSet
EndChar

StartChar: afii10024
Encoding: 1046 1046 191
GlifName: Z_he-cy
Width: 2048
VWidth: 0
GlyphClass: 2
Flags: W
AnchorPoint: "base" 1030 -39 basechar 0
AnchorPoint: "top" 211 1620 basechar 0
LayerCount: 2
Fore
SplineSet
1026 1553 m 257
 1026 5 l 257
 1086 5 l 257
 1086 1553 l 257
 1026 1553 l 257
1032 1015 m 257
 1032 944 l 257
 2076 1550 l 257
 2006 1550 l 257
 1032 1015 l 257
1045 937 m 257
 1025 847 l 257
 2060 0 l 257
 2110 0 l 257
 1045 937 l 257
1078 1015 m 257
 97 1550 l 257
 27 1550 l 257
 1078 944 l 257
 1078 1015 l 257
1066 936 m 257
 -7 0 l 257
 43 0 l 257
 1086 846 l 257
 1066 936 l 257
EndSplineSet
EndChar

StartChar: afii10025
Encoding: 1047 1047 192
GlifName: Z_e-cy
Width: 2048
VWidth: 0
GlyphClass: 2
Flags: W
LayerCount: 2
Fore
SplineSet
124 1547 m 257
 124 1487 l 257
 1974 1487 l 257
 1974 1547 l 257
 124 1547 l 257
124 1547 m 257
 124 1211 l 257
 184 1211 l 257
 184 1547 l 257
 124 1547 l 257
1915 1535 m 257
 1915 819 l 257
 1975 819 l 257
 1975 1535 l 257
 1915 1535 l 257
1915 763 m 257
 1915 7 l 257
 1975 7 l 257
 1975 763 l 257
 1915 763 l 257
128 60 m 257
 128 0 l 257
 1971 0 l 257
 1971 60 l 257
 128 60 l 257
124 395 m 257
 124 0 l 257
 184 0 l 257
 184 395 l 257
 124 395 l 257
525 822 m 257
 525 762 l 257
 1923 762 l 257
 1923 822 l 257
 525 822 l 257
EndSplineSet
EndChar

StartChar: afii10026
Encoding: 1048 1048 193
GlifName: I_i-cy
Width: 2048
VWidth: 0
GlyphClass: 2
Flags: W
LayerCount: 2
Fore
SplineSet
34 1552 m 257
 34 0 l 257
 94 0 l 257
 94 1552 l 257
 34 1552 l 257
1953 1552 m 257
 1953 0 l 257
 2013 0 l 257
 2013 1552 l 257
 1953 1552 l 257
1953 1552 m 257
 34 0 l 257
 94 0 l 257
 2014 1552 l 257
 1953 1552 l 257
EndSplineSet
EndChar

StartChar: afii10029
Encoding: 1051 1051 196
GlifName: E_l-cy
Width: 2048
VWidth: 0
GlyphClass: 2
Flags: W
LayerCount: 2
Fore
SplineSet
1976 1548 m 257
 1976 14 l 257
 2036 14 l 257
 2036 1548 l 257
 1976 1548 l 257
668 1548 m 257
 668 1488 l 257
 2024 1488 l 257
 2024 1548 l 257
 668 1548 l 257
667 1548 m 257
 357 0 l 257
 417 0 l 257
 727 1548 l 257
 667 1548 l 257
33 61 m 257
 33 1 l 257
 417 1 l 257
 417 61 l 257
 33 61 l 257
EndSplineSet
EndChar

StartChar: afii10037
Encoding: 1059 1059 204
GlifName: U_-cy
Width: 2048
VWidth: 0
GlyphClass: 2
Flags: W
AnchorPoint: "top" 984 1106 basechar 0
AnchorPoint: "base" 1012 -484 basechar 0
LayerCount: 2
Fore
SplineSet
1841 1427 m 257
 1841 -6 l 257
 1901 -6 l 257
 1901 1427 l 257
 1841 1427 l 257
147 53 m 257
 147 -6 l 257
 1888 -6 l 257
 1888 53 l 257
 147 53 l 257
147 1427 m 257
 147 668 l 257
 207 668 l 257
 207 1427 l 257
 147 1427 l 257
147 728 m 257
 147 668 l 257
 1861 668 l 257
 1861 728 l 257
 147 728 l 257
EndSplineSet
EndChar

StartChar: afii10040
Encoding: 1062 1062 207
GlifName: T_se-cy
Width: 2048
VWidth: 0
GlyphClass: 2
Flags: W
LayerCount: 2
Fore
SplineSet
37 1548 m 257
 37 3 l 257
 97 3 l 257
 97 1548 l 257
 37 1548 l 257
1772 1553 m 257
 1772 0 l 257
 1832 0 l 257
 1832 1553 l 257
 1772 1553 l 257
46 60 m 257
 46 0 l 257
 1832 0 l 257
 1832 60 l 257
 46 60 l 257
1828 67 m 257
 1828 -401 l 257
 1888 -401 l 257
 1888 67 l 257
 1828 67 l 257
EndSplineSet
EndChar

StartChar: afii10041
Encoding: 1063 1063 208
GlifName: C_he-cy
Width: 2048
VWidth: 0
GlyphClass: 2
Flags: W
LayerCount: 2
Fore
SplineSet
1889 1554 m 257
 1889 -1 l 257
 1949 -1 l 257
 1949 1554 l 257
 1889 1554 l 257
129 1554 m 257
 129 582 l 257
 189 582 l 257
 189 1554 l 257
 129 1554 l 257
169 638 m 257
 189 581 l 257
 1911 704 l 257
 1891 761 l 257
 169 638 l 257
EndSplineSet
EndChar

StartChar: afii10042
Encoding: 1064 1064 209
GlifName: S_ha-cy
Width: 2048
VWidth: 0
GlyphClass: 2
Flags: W
LayerCount: 2
Fore
SplineSet
134 1548 m 257
 134 3 l 257
 194 3 l 257
 194 1548 l 257
 134 1548 l 257
1869 1553 m 257
 1869 0 l 257
 1929 0 l 257
 1929 1553 l 257
 1869 1553 l 257
143 60 m 257
 143 0 l 257
 1929 0 l 257
 1929 60 l 257
 143 60 l 257
1001 1549 m 257
 1001 14 l 257
 1061 14 l 257
 1061 1549 l 257
 1001 1549 l 257
EndSplineSet
EndChar

StartChar: afii10043
Encoding: 1065 1065 210
GlifName: S_hcha-cy
Width: 2048
VWidth: 0
GlyphClass: 2
Flags: W
LayerCount: 2
Fore
SplineSet
37 1548 m 257
 37 3 l 257
 97 3 l 257
 97 1548 l 257
 37 1548 l 257
1772 1553 m 257
 1772 0 l 257
 1832 0 l 257
 1832 1553 l 257
 1772 1553 l 257
46 60 m 257
 46 0 l 257
 1832 0 l 257
 1832 60 l 257
 46 60 l 257
1828 67 m 257
 1828 -401 l 257
 1888 -401 l 257
 1888 67 l 257
 1828 67 l 257
904 1549 m 257
 904 14 l 257
 964 14 l 257
 964 1549 l 257
 904 1549 l 257
EndSplineSet
EndChar

StartChar: afii10044
Encoding: 1066 1066 211
GlifName: H_ardsign-cy
Width: 2048
VWidth: 0
GlyphClass: 2
Flags: W
AnchorPoint: "base" 950 -60 basechar 0
AnchorPoint: "top" 220 1646 basechar 0
LayerCount: 2
Fore
SplineSet
947 1536 m 257
 947 0 l 257
 1007 0 l 257
 1007 1536 l 257
 947 1536 l 257
990 808 m 257
 990 747 l 257
 1908 747 l 257
 1908 808 l 257
 990 808 l 257
1895 808 m 257
 1895 0 l 257
 1955 0 l 257
 1955 808 l 257
 1895 808 l 257
982 60 m 257
 982 0 l 257
 1933 0 l 257
 1933 60 l 257
 982 60 l 257
76 1547 m 257
 76 1486 l 257
 1008 1486 l 257
 1008 1547 l 257
 76 1547 l 257
EndSplineSet
EndChar

StartChar: afii10045
Encoding: 1067 1067 212
GlifName: Y_eru-cy
Width: 2048
VWidth: 0
GlyphClass: 2
Flags: W
AnchorPoint: "base" 950 -60 basechar 0
AnchorPoint: "top" 220 1646 basechar 0
LayerCount: 2
Fore
SplineSet
47 1536 m 257
 47 0 l 257
 107 0 l 257
 107 1536 l 257
 47 1536 l 257
90 808 m 257
 90 747 l 257
 1586 747 l 257
 1586 808 l 257
 90 808 l 257
1573 808 m 257
 1573 0 l 257
 1633 0 l 257
 1633 808 l 257
 1573 808 l 257
82 60 m 257
 82 0 l 257
 1611 0 l 257
 1611 60 l 257
 82 60 l 257
1820 1545 m 257
 1820 9 l 257
 1880 9 l 257
 1880 1545 l 257
 1820 1545 l 257
EndSplineSet
EndChar

StartChar: afii10046
Encoding: 1068 1068 213
GlifName: S_oftsign-cy
Width: 2048
VWidth: 0
GlyphClass: 2
Flags: W
AnchorPoint: "base" 950 -60 basechar 0
AnchorPoint: "top" 220 1646 basechar 0
LayerCount: 2
Fore
SplineSet
47 1536 m 257
 47 0 l 257
 107 0 l 257
 107 1536 l 257
 47 1536 l 257
90 808 m 257
 90 747 l 257
 1908 747 l 257
 1908 808 l 257
 90 808 l 257
1895 808 m 257
 1895 0 l 257
 1955 0 l 257
 1955 808 l 257
 1895 808 l 257
82 60 m 257
 82 0 l 257
 1933 0 l 257
 1933 60 l 257
 82 60 l 257
EndSplineSet
EndChar

StartChar: afii10047
Encoding: 1069 1069 214
GlifName: E_reversed-cy
Width: 2048
VWidth: 0
GlyphClass: 2
Flags: W
LayerCount: 2
Fore
SplineSet
1043 1550 m 257
 40 1550 l 257
 40 1490 l 257
 1043 1490 l 257
 1043 1550 l 257
1915 836 m 257
 106 836 l 257
 106 776 l 257
 1915 776 l 257
 1915 836 l 257
1071 69 m 257
 45 69 l 257
 45 9 l 257
 1071 9 l 257
 1071 69 l 257
1043 1549 m 257
 940 1549 l 257
 1859 814 l 257
 1962 814 l 257
 1043 1549 l 257
1960 814 m 257
 1855 814 l 257
 966 8 l 257
 1071 8 l 257
 1960 814 l 257
EndSplineSet
EndChar

StartChar: afii10048
Encoding: 1070 1070 215
GlifName: Y_u-cy
Width: 2048
VWidth: 0
GlyphClass: 2
Flags: W
AnchorPoint: "top" 1048 1634 basechar 0
AnchorPoint: "base" 1040 -114 basechar 0
LayerCount: 2
Fore
SplineSet
990 1553 m 257
 990 0 l 257
 1049 0 l 257
 1049 1553 l 257
 990 1553 l 257
1877 1553 m 257
 1877 0 l 257
 1936 0 l 257
 1936 1553 l 257
 1877 1553 l 257
1028 1553 m 257
 1028 1493 l 257
 1906 1493 l 257
 1906 1553 l 257
 1028 1553 l 257
1030 61 m 257
 1030 0 l 257
 1914 0 l 257
 1914 61 l 257
 1030 61 l 257
127 1532 m 257
 127 -21 l 257
 186 -21 l 257
 186 1532 l 257
 127 1532 l 257
165 940 m 257
 165 880 l 257
 1032 880 l 257
 1032 940 l 257
 165 940 l 257
EndSplineSet
EndChar

StartChar: afii10049
Encoding: 1071 1071 216
GlifName: Y_a-cy
Width: 2048
VWidth: 0
GlyphClass: 2
Flags: W
AnchorPoint: "base" 942 4 basechar 0
AnchorPoint: "top" 960 1634 basechar 0
LayerCount: 2
Fore
SplineSet
1926 1550 m 257
 1926 0 l 257
 1866 0 l 257
 1866 1550 l 257
 1926 1550 l 257
1884 1550 m 257
 1884 1491 l 257
 168 1491 l 257
 168 1550 l 257
 1884 1550 l 257
228 1550 m 257
 228 872 l 257
 140 872 l 257
 140 1550 l 257
 228 1550 l 257
1896 929 m 257
 1896 868 l 257
 152 868 l 257
 152 929 l 257
 1896 929 l 257
1634 875 m 257
 178 0 l 257
 122 0 l 257
 1576 875 l 257
 1634 875 l 257
EndSplineSet
EndChar

StartChar: afii10050
Encoding: 1168 1168 217
GlifName: G_eupturn-cy
Width: 2048
VWidth: 0
GlyphClass: 2
Flags: W
LayerCount: 2
Fore
SplineSet
125 1548 m 257
 125 1488 l 257
 1923 1488 l 257
 1923 1548 l 257
 125 1548 l 257
129 1519 m 257
 129 6 l 257
 189 6 l 257
 189 1519 l 257
 129 1519 l 257
1861 1895.86 m 257
 1861 1489.72 l 257
 1924 1489.72 l 257
 1924 1895.86 l 257
 1861 1895.86 l 257
EndSplineSet
EndChar

StartChar: afii10051
Encoding: 1026 1026 218
GlifName: D_je-cy
Width: 2048
VWidth: 0
GlyphClass: 2
Flags: W
LayerCount: 2
Fore
SplineSet
48 1548 m 257
 48 1488 l 257
 1604 1488 l 257
 1604 1548 l 257
 48 1548 l 257
815 1544 m 257
 815 -1 l 257
 875 -1 l 257
 875 1544 l 257
 815 1544 l 257
828 994 m 257
 828 934 l 257
 1953 934 l 257
 1953 994 l 257
 828 994 l 257
1893 989 m 257
 1893 37 l 257
 1953 37 l 257
 1953 989 l 257
 1893 989 l 257
1374 60 m 257
 1374 0 l 257
 1953 0 l 257
 1953 60 l 257
 1374 60 l 257
EndSplineSet
EndChar

StartChar: afii10053
Encoding: 1028 1028 220
GlifName: E_-cy
Width: 2048
VWidth: 0
GlyphClass: 2
Flags: W
LayerCount: 2
Fore
SplineSet
959 1550 m 257
 959 1490 l 257
 1962 1490 l 257
 1962 1550 l 257
 959 1550 l 257
87 836 m 257
 87 776 l 257
 1896 776 l 257
 1896 836 l 257
 87 836 l 257
931 69 m 257
 931 9 l 257
 1957 9 l 257
 1957 69 l 257
 931 69 l 257
959 1549 m 257
 40 814 l 257
 143 814 l 257
 1062 1549 l 257
 959 1549 l 257
42 814 m 257
 931 8 l 257
 1036 8 l 257
 147 814 l 257
 42 814 l 257
EndSplineSet
EndChar

StartChar: afii10058
Encoding: 1033 1033 225
GlifName: L_je-cy
Width: 2048
VWidth: 0
GlyphClass: 2
Flags: W
LayerCount: 2
Fore
SplineSet
1705 1548 m 257
 1705 0 l 257
 1765 0 l 257
 1765 1548 l 257
 1705 1548 l 257
553 1548 m 257
 553 1488 l 257
 1753 1488 l 257
 1753 1548 l 257
 553 1548 l 257
552 1548 m 257
 242 0 l 257
 302 0 l 257
 612 1548 l 257
 552 1548 l 257
33 61 m 257
 33 1 l 257
 302 1 l 257
 302 61 l 257
 33 61 l 257
1732 60 m 257
 1732 0 l 257
 2001 0 l 257
 2001 60 l 257
 1732 60 l 257
1739 771 m 257
 1739 711 l 257
 2008 711 l 257
 2008 771 l 257
 1739 771 l 257
1947 0 m 257
 2007 0 l 257
 2007 768 l 257
 1947 768 l 257
 1947 0 l 257
EndSplineSet
EndChar

StartChar: afii10059
Encoding: 1034 1034 226
GlifName: N_je-cy
Width: 2048
VWidth: 0
GlyphClass: 2
Flags: W
LayerCount: 2
Fore
SplineSet
34 1545 m 257
 34 0 l 257
 94 0 l 257
 94 1545 l 257
 34 1545 l 257
993 1545 m 257
 993 0 l 257
 1053 0 l 257
 1053 1545 l 257
 993 1545 l 257
56 828 m 257
 55 768 l 257
 1978 768 l 257
 1979 828 l 257
 56 828 l 257
1953 828 m 257
 1953 1 l 257
 2013 0 l 257
 2013 827 l 257
 1953 828 l 257
1044 60 m 257
 1044 0 l 257
 2014 0 l 257
 2014 60 l 257
 1044 60 l 257
EndSplineSet
EndChar

StartChar: afii10060
Encoding: 1035 1035 227
GlifName: T_she-cy
Width: 2048
VWidth: 0
GlyphClass: 2
Flags: W
LayerCount: 2
Fore
SplineSet
48 1548 m 257
 48 1488 l 257
 1604 1488 l 257
 1604 1548 l 257
 48 1548 l 257
815 1544 m 257
 815 -1 l 257
 875 -1 l 257
 875 1544 l 257
 815 1544 l 257
828 994 m 257
 828 934 l 257
 1953 934 l 257
 1953 994 l 257
 828 994 l 257
1893 989 m 257
 1893 0 l 257
 1953 0 l 257
 1953 989 l 257
 1893 989 l 257
EndSplineSet
EndChar

StartChar: afii10066
Encoding: 1073 1073 231
GlifName: be-cy
Width: 2048
VWidth: 0
GlyphClass: 2
Flags: W
AnchorPoint: "base" 950 -60 basechar 0
AnchorPoint: "top" 220 1646 basechar 0
LayerCount: 2
Fore
SplineSet
135 1260 m 257
 135 0 l 257
 195 0 l 257
 195 1260 l 257
 135 1260 l 257
178 1033 m 257
 178 972 l 257
 1866 972 l 257
 1866 1033 l 257
 178 1033 l 257
1853 1033 m 257
 1853 0 l 257
 1913 0 l 257
 1913 1033 l 257
 1853 1033 l 257
170 60 m 257
 170 0 l 257
 1891 0 l 257
 1891 60 l 257
 170 60 l 257
135 1256 m 257
 135 1195 l 257
 1937 1497 l 257
 1937 1558 l 257
 135 1256 l 257
EndSplineSet
EndChar

StartChar: afii10067
Encoding: 1074 1074 232
GlifName: ve-cy
Width: 2048
VWidth: 0
GlyphClass: 2
Flags: W
AnchorPoint: "top" 554 1637 basechar 0
AnchorPoint: "base" 574 -27 basechar 0
LayerCount: 2
Fore
SplineSet
114 0 m 257
 171 0 l 257
 171 1071 l 257
 114 1071 l 257
 114 0 l 257
1060 1012 m 257
 1899 942 l 257
 1899 998 l 257
 1060 1068 l 257
 1060 1012 l 257
1083 554 m 257
 1899 942 l 257
 1899 996 l 257
 1083 614 l 257
 1083 554 l 257
1065 62 m 257
 1065 0 l 257
 1933 230 l 257
 1933 296 l 257
 1065 62 l 257
1069 461 m 257
 1934 226 l 257
 1934 297 l 257
 1069 523 l 257
 1069 461 l 257
168 613 m 257
 168 553 l 257
 1083 553 l 257
 1083 613 l 257
 168 613 l 257
159 523 m 257
 159 463 l 257
 1069 463 l 257
 1069 523 l 257
 159 523 l 257
155 62 m 257
 155 0 l 257
 1065 0 l 257
 1065 62 l 257
 155 62 l 257
150 1071 m 257
 150 1012 l 257
 1060 1012 l 257
 1060 1071 l 257
 150 1071 l 257
EndSplineSet
EndChar

StartChar: afii10068
Encoding: 1075 1075 233
GlifName: ge-cy
Width: 2048
VWidth: 0
GlyphClass: 2
Flags: W
LayerCount: 2
Fore
SplineSet
125 1021 m 257
 125 961 l 257
 1923 961 l 257
 1923 1021 l 257
 125 1021 l 257
129 992 m 257
 129 6 l 257
 189 6 l 257
 189 992 l 257
 129 992 l 257
EndSplineSet
EndChar

StartChar: afii10069
Encoding: 1076 1076 234
GlifName: de-cy
Width: 2048
VWidth: 0
GlyphClass: 2
Flags: W
LayerCount: 2
Fore
SplineSet
18 203 m 257
 18 143 l 257
 2016 143 l 257
 2016 203 l 257
 18 203 l 257
18 159 m 257
 20 -405 l 257
 80 -405 l 257
 78 159 l 257
 18 159 l 257
1956 159 m 257
 1956 -412 l 257
 2016 -412 l 257
 2016 159 l 257
 1956 159 l 257
1612 996 m 257
 1612 162 l 257
 1672 162 l 257
 1672 996 l 257
 1612 996 l 257
684 1018 m 257
 684 958 l 257
 1672 958 l 257
 1672 1018 l 257
 684 1018 l 257
664 1019 m 257
 235 185 l 257
 295 185 l 257
 724 1019 l 257
 664 1019 l 257
EndSplineSet
EndChar

StartChar: afii10072
Encoding: 1078 1078 237
GlifName: zhe-cy
Width: 2048
VWidth: 0
GlyphClass: 2
Flags: W
AnchorPoint: "base" 1030 -39 basechar 0
AnchorPoint: "top" 211 1620 basechar 0
LayerCount: 2
Fore
SplineSet
1026 1038 m 257
 1026 5 l 257
 1086 5 l 257
 1086 1038 l 257
 1026 1038 l 257
1032 629 m 257
 1032 558 l 257
 2006 1035 l 257
 1936 1035 l 257
 1032 629 l 257
1063 603 m 257
 1043 513 l 257
 1990 0 l 257
 2040 0 l 257
 1063 603 l 257
1060 639 m 257
 97 1035 l 257
 27 1035 l 257
 1060 568 l 257
 1060 639 l 257
1051 595 m 257
 -7 0 l 257
 43 0 l 257
 1071 505 l 257
 1051 595 l 257
EndSplineSet
EndChar

StartChar: afii10073
Encoding: 1079 1079 238
GlifName: ze-cy
Width: 2048
VWidth: 0
GlyphClass: 2
Flags: W
LayerCount: 2
Fore
SplineSet
124 1018 m 257
 124 958 l 257
 1974 958 l 257
 1974 1018 l 257
 124 1018 l 257
124 1018 m 257
 124 752 l 257
 184 752 l 257
 184 1018 l 257
 124 1018 l 257
1915 1006 m 257
 1915 521 l 257
 1975 521 l 257
 1975 1006 l 257
 1915 1006 l 257
1915 465 m 257
 1915 7 l 257
 1975 7 l 257
 1975 465 l 257
 1915 465 l 257
128 60 m 257
 128 0 l 257
 1971 0 l 257
 1971 60 l 257
 128 60 l 257
124 288 m 257
 124 0 l 257
 184 0 l 257
 184 288 l 257
 124 288 l 257
525 524 m 257
 525 464 l 257
 1923 464 l 257
 1923 524 l 257
 525 524 l 257
EndSplineSet
EndChar

StartChar: afii10074
Encoding: 1080 1080 239
GlifName: ii-cy
Width: 2048
VWidth: 0
GlyphClass: 2
Flags: W
AnchorPoint: "top" 1007 1152 basechar 0
LayerCount: 2
Fore
SplineSet
34 1019 m 257
 34 0 l 257
 94 0 l 257
 94 1019 l 257
 34 1019 l 257
1953 1019 m 257
 1953 0 l 257
 2013 0 l 257
 2013 1019 l 257
 1953 1019 l 257
1953 1019 m 257
 34 0 l 257
 94 0 l 257
 2014 1019 l 257
 1953 1019 l 257
EndSplineSet
EndChar

StartChar: afii10077
Encoding: 1083 1083 242
GlifName: el-cy
Width: 2048
VWidth: 0
GlyphClass: 2
Flags: W
LayerCount: 2
Fore
SplineSet
1976 1021 m 257
 1976 14 l 257
 2036 14 l 257
 2036 1021 l 257
 1976 1021 l 257
668 1021 m 257
 668 961 l 257
 2024 961 l 257
 2024 1021 l 257
 668 1021 l 257
667 1021 m 257
 357 0 l 257
 417 0 l 257
 727 1021 l 257
 667 1021 l 257
33 61 m 257
 33 1 l 257
 417 1 l 257
 417 61 l 257
 33 61 l 257
EndSplineSet
EndChar

StartChar: afii10078
Encoding: 1084 1084 243
GlifName: em-cy
Width: 2048
VWidth: 0
GlyphClass: 2
Flags: W
AnchorPoint: "base" 1050 -80 basechar 0
AnchorPoint: "top" 980 1646 basechar 0
LayerCount: 2
Fore
SplineSet
100 1014 m 257
 100 0 l 257
 160 0 l 257
 160 1014 l 257
 100 1014 l 257
1886 1025 m 257
 1886 -3 l 257
 1948 -3 l 257
 1948 1025 l 257
 1886 1025 l 257
100 1014 m 257
 1046 298 l 257
 1116 298 l 257
 160 1014 l 257
 100 1014 l 257
1886 1025 m 257
 1048 298 l 257
 1116 298 l 257
 1948 1014 l 257
 1886 1025 l 257
EndSplineSet
EndChar

StartChar: afii10079
Encoding: 1085 1085 244
GlifName: en-cy
Width: 2048
VWidth: 0
GlyphClass: 2
Flags: W
AnchorPoint: "top" 1000 1634 basechar 0
AnchorPoint: "base" 1028 2 basechar 0
LayerCount: 2
Fore
SplineSet
114 1035 m 257
 114 0 l 257
 173 0 l 257
 173 1035 l 257
 114 1035 l 257
1873 1035 m 257
 1873 0 l 257
 1934 0 l 257
 1934 1035 l 257
 1873 1035 l 257
156 546 m 257
 156 487 l 257
 1897 487 l 257
 1897 546 l 257
 156 546 l 257
EndSplineSet
EndChar

StartChar: afii10081
Encoding: 1087 1087 246
GlifName: uni043F_
Width: 2048
VWidth: 0
GlyphClass: 2
Flags: W
LayerCount: 2
Fore
SplineSet
110 1018 m 257
 110 0 l 257
 170 0 l 257
 170 1018 l 257
 110 1018 l 257
1873 1016 m 257
 1873 -2 l 257
 1934 0 l 257
 1934 1018 l 257
 1873 1016 l 257
110 1018 m 257
 110 958 l 257
 1933 958 l 257
 1933 1018 l 257
 110 1018 l 257
EndSplineSet
EndChar

StartChar: afii10084
Encoding: 1090 1090 249
GlifName: te-cy
Width: 2048
VWidth: 0
GlyphClass: 2
Flags: W
AnchorPoint: "top" 1100 1654 basechar 0
AnchorPoint: "base" 1084 -62 basechar 0
LayerCount: 2
Fore
SplineSet
120 1026 m 257
 120 967 l 257
 1928 967 l 257
 1928 1026 l 257
 120 1026 l 257
991 985 m 257
 991 12 l 257
 1051 12 l 257
 1051 985 l 257
 991 985 l 257
EndSplineSet
EndChar

StartChar: afii10086
Encoding: 1092 1092 251
GlifName: ef-cy
Width: 2048
VWidth: 0
GlyphClass: 2
Flags: W
LayerCount: 2
Fore
SplineSet
1006 1541 m 257
 1006 -430 l 257
 1066 -430 l 257
 1066 1541 l 257
 1006 1541 l 257
110 968 m 257
 110 45 l 257
 171 45 l 257
 171 968 l 257
 110 968 l 257
1874 968 m 257
 1874 45 l 257
 1934 45 l 257
 1934 968 l 257
 1874 968 l 257
146 968 m 257
 146 908 l 257
 1906 908 l 257
 1906 968 l 257
 146 968 l 257
150 105 m 257
 150 45 l 257
 1894 45 l 257
 1894 105 l 257
 150 105 l 257
EndSplineSet
EndChar

StartChar: afii10088
Encoding: 1094 1094 253
GlifName: tse-cy
Width: 2048
VWidth: 0
GlyphClass: 2
Flags: W
LayerCount: 2
Fore
SplineSet
37 1024 m 257
 37 3 l 257
 97 3 l 257
 97 1024 l 257
 37 1024 l 257
1772 1029 m 257
 1772 0 l 257
 1832 0 l 257
 1832 1029 l 257
 1772 1029 l 257
46 60 m 257
 46 0 l 257
 1832 0 l 257
 1832 60 l 257
 46 60 l 257
1828 67 m 257
 1828 -401 l 257
 1888 -401 l 257
 1888 67 l 257
 1828 67 l 257
EndSplineSet
EndChar

StartChar: afii10089
Encoding: 1095 1095 254
GlifName: che-cy
Width: 2048
VWidth: 0
GlyphClass: 2
Flags: W
LayerCount: 2
Fore
SplineSet
1889 1024 m 257
 1889 -1 l 257
 1949 -1 l 257
 1949 1024 l 257
 1889 1024 l 257
129 1024 m 257
 129 286 l 257
 189 286 l 257
 189 1024 l 257
 129 1024 l 257
169 342 m 257
 189 285 l 257
 1911 408 l 257
 1891 465 l 257
 169 342 l 257
EndSplineSet
EndChar

StartChar: afii10090
Encoding: 1096 1096 255
GlifName: sha-cy
Width: 2048
VWidth: 0
GlyphClass: 2
Flags: W
LayerCount: 2
Fore
SplineSet
134 1024 m 257
 134 3 l 257
 194 3 l 257
 194 1024 l 257
 134 1024 l 257
1869 1029 m 257
 1869 0 l 257
 1929 0 l 257
 1929 1029 l 257
 1869 1029 l 257
143 60 m 257
 143 0 l 257
 1929 0 l 257
 1929 60 l 257
 143 60 l 257
1001 1025 m 257
 1001 14 l 257
 1061 14 l 257
 1061 1025 l 257
 1001 1025 l 257
EndSplineSet
EndChar

StartChar: afii10091
Encoding: 1097 1097 256
GlifName: shcha-cy
Width: 2048
VWidth: 0
GlyphClass: 2
Flags: W
LayerCount: 2
Fore
SplineSet
37 1024 m 257
 37 3 l 257
 97 3 l 257
 97 1024 l 257
 37 1024 l 257
1772 1029 m 257
 1772 0 l 257
 1832 0 l 257
 1832 1029 l 257
 1772 1029 l 257
46 60 m 257
 46 0 l 257
 1832 0 l 257
 1832 60 l 257
 46 60 l 257
1828 67 m 257
 1828 -401 l 257
 1888 -401 l 257
 1888 67 l 257
 1828 67 l 257
904 1025 m 257
 904 14 l 257
 964 14 l 257
 964 1025 l 257
 904 1025 l 257
EndSplineSet
EndChar

StartChar: afii10092
Encoding: 1098 1098 257
GlifName: hardsign-cy
Width: 2048
VWidth: 0
GlyphClass: 2
Flags: W
AnchorPoint: "base" 950 -60 basechar 0
AnchorPoint: "top" 220 1646 basechar 0
LayerCount: 2
Fore
SplineSet
979 1012 m 257
 979 0 l 257
 1039 0 l 257
 1039 1012 l 257
 979 1012 l 257
1019 584 m 257
 1019 523 l 257
 1940 523 l 257
 1940 584 l 257
 1019 584 l 257
1927 584 m 257
 1927 0 l 257
 1987 0 l 257
 1987 584 l 257
 1927 584 l 257
1014 60 m 257
 1014 0 l 257
 1965 0 l 257
 1965 60 l 257
 1014 60 l 257
108 1023 m 257
 108 962 l 257
 1040 962 l 257
 1040 1023 l 257
 108 1023 l 257
EndSplineSet
EndChar

StartChar: afii10093
Encoding: 1099 1099 258
GlifName: yeru-cy
Width: 2048
VWidth: 0
GlyphClass: 2
Flags: W
AnchorPoint: "base" 950 -60 basechar 0
AnchorPoint: "top" 220 1646 basechar 0
LayerCount: 2
Fore
SplineSet
47 1016 m 257
 47 0 l 257
 107 0 l 257
 107 1016 l 257
 47 1016 l 257
90 641 m 257
 90 580 l 257
 1586 580 l 257
 1586 641 l 257
 90 641 l 257
1573 641 m 257
 1573 0 l 257
 1633 0 l 257
 1633 641 l 257
 1573 641 l 257
82 60 m 257
 82 0 l 257
 1611 0 l 257
 1611 60 l 257
 82 60 l 257
1820 1030 m 257
 1820 9 l 257
 1880 9 l 257
 1880 1030 l 257
 1820 1030 l 257
EndSplineSet
EndChar

StartChar: afii10094
Encoding: 1100 1100 259
GlifName: softsign-cy
Width: 2048
VWidth: 0
GlyphClass: 2
Flags: W
AnchorPoint: "base" 950 -60 basechar 0
AnchorPoint: "top" 220 1646 basechar 0
LayerCount: 2
Fore
SplineSet
47 1016 m 257
 47 0 l 257
 107 0 l 257
 107 1016 l 257
 47 1016 l 257
90 641 m 257
 90 580 l 257
 1908 580 l 257
 1908 641 l 257
 90 641 l 257
1895 641 m 257
 1895 0 l 257
 1955 0 l 257
 1955 641 l 257
 1895 641 l 257
82 60 m 257
 82 0 l 257
 1933 0 l 257
 1933 60 l 257
 82 60 l 257
EndSplineSet
EndChar

StartChar: afii10095
Encoding: 1101 1101 260
GlifName: ereversed-cy
Width: 2048
VWidth: 0
GlyphClass: 2
Flags: W
AnchorPoint: "top" 514 1208 basechar 0
LayerCount: 2
Fore
SplineSet
1043 1032 m 257
 40 1032 l 257
 40 972 l 257
 1043 972 l 257
 1043 1032 l 257
1915 570 m 257
 106 570 l 257
 106 510 l 257
 1915 510 l 257
 1915 570 l 257
1071 69 m 257
 45 69 l 257
 45 9 l 257
 1071 9 l 257
 1071 69 l 257
1043 1031 m 257
 940 1031 l 257
 1859 548 l 257
 1962 548 l 257
 1043 1031 l 257
1960 548 m 257
 1855 548 l 257
 966 8 l 257
 1071 8 l 257
 1960 548 l 257
EndSplineSet
EndChar

StartChar: afii10096
Encoding: 1102 1102 261
GlifName: yu-cy
Width: 2048
VWidth: 0
GlyphClass: 2
Flags: W
AnchorPoint: "top" 1048 1634 basechar 0
AnchorPoint: "base" 1040 -114 basechar 0
LayerCount: 2
Fore
SplineSet
990 1029 m 257
 990 0 l 257
 1049 0 l 257
 1049 1029 l 257
 990 1029 l 257
1877 1029 m 257
 1877 0 l 257
 1936 0 l 257
 1936 1029 l 257
 1877 1029 l 257
1028 1029 m 257
 1028 969 l 257
 1906 969 l 257
 1906 1029 l 257
 1028 1029 l 257
1030 61 m 257
 1030 0 l 257
 1914 0 l 257
 1914 61 l 257
 1030 61 l 257
127 1008 m 257
 127 -21 l 257
 186 -21 l 257
 186 1008 l 257
 127 1008 l 257
165 633 m 257
 165 573 l 257
 1032 573 l 257
 1032 633 l 257
 165 633 l 257
EndSplineSet
EndChar

StartChar: afii10097
Encoding: 1103 1103 262
GlifName: ya-cy
Width: 2048
VWidth: 0
GlyphClass: 2
Flags: W
AnchorPoint: "base" 942 4 basechar 0
AnchorPoint: "top" 960 1634 basechar 0
LayerCount: 2
Fore
SplineSet
1926 1026 m 257
 1926 0 l 257
 1866 0 l 257
 1866 1026 l 257
 1926 1026 l 257
1884 1026 m 257
 1884 967 l 257
 168 967 l 257
 168 1026 l 257
 1884 1026 l 257
228 1026 m 257
 228 394 l 257
 140 394 l 257
 140 1026 l 257
 228 1026 l 257
1896 451 m 257
 1896 390 l 257
 152 390 l 257
 152 451 l 257
 1896 451 l 257
1634 397 m 257
 178 0 l 257
 122 0 l 257
 1576 397 l 257
 1634 397 l 257
EndSplineSet
EndChar

StartChar: afii10098
Encoding: 1169 1169 263
GlifName: geupturn-cy
Width: 2048
VWidth: 0
GlyphClass: 2
Flags: W
LayerCount: 2
Fore
SplineSet
125 1023 m 257
 125 963 l 257
 1923 963 l 257
 1923 1023 l 257
 125 1023 l 257
129 994 m 257
 129 6 l 257
 189 6 l 257
 189 994 l 257
 129 994 l 257
1861 1371 m 257
 1861 965 l 257
 1924 965 l 257
 1924 1371 l 257
 1861 1371 l 257
EndSplineSet
EndChar

StartChar: afii10099
Encoding: 1106 1106 264
GlifName: dje-cy
Width: 2048
VWidth: 0
GlyphClass: 2
Flags: W
LayerCount: 2
Fore
SplineSet
48 1369 m 257
 48 1309 l 257
 1604 1309 l 257
 1604 1369 l 257
 48 1369 l 257
815 1544 m 257
 815 -1 l 257
 875 -1 l 257
 875 1544 l 257
 815 1544 l 257
828 994 m 257
 828 934 l 257
 1953 934 l 257
 1953 994 l 257
 828 994 l 257
1893 989 m 257
 1893 -406 l 257
 1953 -406 l 257
 1953 989 l 257
 1893 989 l 257
1374 -383 m 257
 1374 -443 l 257
 1953 -443 l 257
 1953 -383 l 257
 1374 -383 l 257
EndSplineSet
EndChar

StartChar: afii10101
Encoding: 1108 1108 266
GlifName: e-cy
Width: 2048
VWidth: 0
GlyphClass: 2
Flags: W
AnchorPoint: "top" 1459 1144 basechar 0
LayerCount: 2
Fore
SplineSet
959 1026 m 257
 959 966 l 257
 1962 966 l 257
 1962 1026 l 257
 959 1026 l 257
87 536 m 257
 87 476 l 257
 1896 476 l 257
 1896 536 l 257
 87 536 l 257
931 69 m 257
 931 9 l 257
 1957 9 l 257
 1957 69 l 257
 931 69 l 257
959 1025 m 257
 40 514 l 257
 143 514 l 257
 1062 1025 l 257
 959 1025 l 257
42 514 m 257
 931 8 l 257
 1036 8 l 257
 147 514 l 257
 42 514 l 257
EndSplineSet
EndChar

StartChar: afii10106
Encoding: 1113 1113 271
GlifName: lje-cy
Width: 2048
VWidth: 0
GlyphClass: 2
Flags: W
LayerCount: 2
Fore
SplineSet
1449 1024 m 257
 1449 0 l 257
 1509 0 l 257
 1509 1024 l 257
 1449 1024 l 257
553 1024 m 257
 553 964 l 257
 1497 964 l 257
 1497 1024 l 257
 553 1024 l 257
552 1024 m 257
 242 0 l 257
 302 0 l 257
 612 1024 l 257
 552 1024 l 257
33 61 m 257
 33 1 l 257
 302 1 l 257
 302 61 l 257
 33 61 l 257
1476 60 m 257
 1476 0 l 257
 2001 0 l 257
 2001 60 l 257
 1476 60 l 257
1483 627 m 257
 1483 567 l 257
 2008 567 l 257
 2008 627 l 257
 1483 627 l 257
1947 0 m 257
 2007 0 l 257
 2007 624 l 257
 1947 624 l 257
 1947 0 l 257
EndSplineSet
EndChar

StartChar: afii10107
Encoding: 1114 1114 272
GlifName: nje-cy
Width: 2048
VWidth: 0
GlyphClass: 2
Flags: W
LayerCount: 2
Fore
SplineSet
34 1021 m 257
 34 0 l 257
 94 0 l 257
 94 1021 l 257
 34 1021 l 257
993 1021 m 257
 993 0 l 257
 1053 0 l 257
 1053 1021 l 257
 993 1021 l 257
56 566 m 257
 55 506 l 257
 1978 506 l 257
 1979 566 l 257
 56 566 l 257
1953 566 m 257
 1953 1 l 257
 2013 0 l 257
 2013 565 l 257
 1953 566 l 257
1044 60 m 257
 1044 0 l 257
 2014 0 l 257
 2014 60 l 257
 1044 60 l 257
EndSplineSet
EndChar

StartChar: afii10108
Encoding: 1115 1115 273
GlifName: tshe-cy
Width: 2048
VWidth: 0
GlyphClass: 2
Flags: W
LayerCount: 2
Fore
SplineSet
48 1365 m 257
 48 1305 l 257
 1604 1305 l 257
 1604 1365 l 257
 48 1365 l 257
815 1544 m 257
 815 -1 l 257
 875 -1 l 257
 875 1544 l 257
 815 1544 l 257
828 994 m 257
 828 934 l 257
 1953 934 l 257
 1953 994 l 257
 828 994 l 257
1893 989 m 257
 1893 0 l 257
 1953 0 l 257
 1953 989 l 257
 1893 989 l 257
EndSplineSet
EndChar

StartChar: afii10145
Encoding: 1039 1039 276
GlifName: D_zhe-cy
Width: 2048
VWidth: 0
GlyphClass: 2
Flags: W
LayerCount: 2
Fore
SplineSet
62 1466 m 257
 62 18 l 257
 122 18 l 257
 122 1466 l 257
 62 1466 l 257
1926 1470 m 257
 1926 3 l 257
 1986 3 l 257
 1986 1470 l 257
 1926 1470 l 257
62 60 m 257
 62 0 l 257
 1986 0 l 257
 1986 60 l 257
 62 60 l 257
994 25 m 257
 994 -405 l 257
 1054 -405 l 257
 1054 25 l 257
 994 25 l 257
EndSplineSet
EndChar

StartChar: afii10146
Encoding: 1122 1122 277
GlifName: Y_at-cy
Width: 2048
VWidth: 0
GlyphClass: 2
Flags: W
AnchorPoint: "base" 950 -60 basechar 0
AnchorPoint: "top" 220 1646 basechar 0
LayerCount: 2
Fore
SplineSet
947 1536 m 257
 947 0 l 257
 1007 0 l 257
 1007 1536 l 257
 947 1536 l 257
990 808 m 257
 990 747 l 257
 1908 747 l 257
 1908 808 l 257
 990 808 l 257
1895 808 m 257
 1895 0 l 257
 1955 0 l 257
 1955 808 l 257
 1895 808 l 257
982 60 m 257
 982 0 l 257
 1933 0 l 257
 1933 60 l 257
 982 60 l 257
46 1283 m 257
 46 1222 l 257
 1553 1222 l 257
 1553 1283 l 257
 46 1283 l 257
EndSplineSet
EndChar

StartChar: afii10148
Encoding: 1140 1140 279
GlifName: I_zhitsa-cy
Width: 2048
VWidth: 0
GlyphClass: 2
Flags: W
AnchorPoint: "top" 996 1622 basechar 0
AnchorPoint: "base" 1128 -74 basechar 0
LayerCount: 2
Fore
SplineSet
106 1553 m 257
 948 0 l 257
 1008 0 l 257
 170 1553 l 257
 106 1553 l 257
1758 1553 m 257
 948 0 l 257
 1008 0 l 257
 1828 1553 l 257
 1758 1553 l 257
1786 1501 m 257
 2021 1446 l 257
 2058 1496 l 257
 1824 1551 l 257
 1786 1501 l 257
EndSplineSet
EndChar

StartChar: afii10193
Encoding: 1119 1119 280
GlifName: dzhe-cy
Width: 2048
VWidth: 0
GlyphClass: 2
Flags: W
LayerCount: 2
Fore
SplineSet
62 942 m 257
 62 18 l 257
 122 18 l 257
 122 942 l 257
 62 942 l 257
1926 946 m 257
 1926 3 l 257
 1986 3 l 257
 1986 946 l 257
 1926 946 l 257
62 60 m 257
 62 0 l 257
 1986 0 l 257
 1986 60 l 257
 62 60 l 257
994 25 m 257
 994 -405 l 257
 1054 -405 l 257
 1054 25 l 257
 994 25 l 257
EndSplineSet
EndChar

StartChar: afii10194
Encoding: 1123 1123 281
GlifName: yat-cy
Width: 2048
VWidth: 0
GlyphClass: 2
Flags: W
AnchorPoint: "base" 950 -60 basechar 0
AnchorPoint: "top" 220 1646 basechar 0
LayerCount: 2
Fore
SplineSet
691 1286 m 257
 691 0 l 257
 751 0 l 257
 751 1286 l 257
 691 1286 l 257
734 558 m 257
 734 497 l 257
 1908 497 l 257
 1908 558 l 257
 734 558 l 257
1895 558 m 257
 1895 0 l 257
 1955 0 l 257
 1955 558 l 257
 1895 558 l 257
726 60 m 257
 726 0 l 257
 1933 0 l 257
 1933 60 l 257
 726 60 l 257
46 1033 m 257
 46 972 l 257
 1553 972 l 257
 1553 1033 l 257
 46 1033 l 257
EndSplineSet
EndChar

StartChar: afii10196
Encoding: 1141 1141 283
GlifName: izhitsa-cy
Width: 2048
VWidth: 0
GlyphClass: 2
Flags: W
AnchorPoint: "top" 996 1622 basechar 0
AnchorPoint: "base" 1128 -74 basechar 0
LayerCount: 2
Fore
SplineSet
106 1029 m 257
 948 0 l 257
 1008 0 l 257
 170 1029 l 257
 106 1029 l 257
1758 1029 m 257
 948 0 l 257
 1008 0 l 257
 1828 1029 l 257
 1758 1029 l 257
1786 977 m 257
 2021 922 l 257
 2058 972 l 257
 1824 1027 l 257
 1786 977 l 257
EndSplineSet
EndChar

StartChar: afii57636
Encoding: 8362 8362 286
GlifName: sheqel
Width: 2048
VWidth: 0
GlyphClass: 2
Flags: W
LayerCount: 2
Fore
SplineSet
629 1534 m 257
 629 4 l 257
 697 4 l 257
 697 1534 l 257
 629 1534 l 257
629 1538 m 257
 629 1468 l 257
 1100 1468 l 257
 1100 1538 l 257
 629 1538 l 257
1072 1538 m 257
 1189 1278 l 257
 1280 1277 l 257
 1168 1538 l 257
 1072 1538 l 257
1190 1278 m 257
 1194 673 l 257
 1280 673 l 257
 1280 1277 l 257
 1190 1278 l 257
1480 8 m 257
 1480 1538 l 257
 1401 1538 l 257
 1401 8 l 257
 1480 8 l 257
1480 4 m 257
 1480 66 l 257
 1009 66 l 257
 1009 4 l 257
 1480 4 l 257
1032 4 m 257
 915 264 l 257
 829 265 l 257
 941 4 l 257
 1032 4 l 257
915 264 m 257
 911 869 l 257
 829 869 l 257
 829 265 l 257
 915 264 l 257
EndSplineSet
EndChar

StartChar: afii61289
Encoding: 8467 8467 289
GlifName: literS_ign
Width: 2048
VWidth: 0
GlyphClass: 2
Flags: W
LayerCount: 2
Fore
SplineSet
927 151 m 257
 927 90 l 257
 1341 9 l 257
 1341 70 l 257
 927 151 l 257
924 1548 m 257
 924 86 l 257
 995 79 l 257
 995 1541 l 257
 924 1548 l 257
927 1546 m 257
 924 1479 l 257
 1315 1477 l 257
 1318 1544 l 257
 927 1546 l 257
1318 1545 m 257
 930 123 l 257
 990 100 l 257
 1379 1522 l 257
 1318 1545 l 257
EndSplineSet
EndChar

StartChar: alpha
Encoding: 945 945 293
GlifName: alpha
Width: 2048
VWidth: 0
GlyphClass: 2
Flags: W
LayerCount: 2
Fore
SplineSet
164 1023 m 257
 164 963 l 257
 1101 963 l 257
 1101 1023 l 257
 164 1023 l 257
166 984 m 257
 166 0 l 257
 226 0 l 257
 226 984 l 257
 166 984 l 257
194 60 m 257
 194 0 l 257
 1122 5 l 257
 1122 65 l 257
 194 60 l 257
1971 -1 m 257
 2016 32 l 257
 1102 1024 l 257
 1051 990 l 257
 1971 -1 l 257
1125 3 m 257
 2022 939 l 257
 1970 975 l 257
 1073 39 l 257
 1125 3 l 257
EndSplineSet
EndChar

StartChar: ampersand
Encoding: 38 38 296
GlifName: ampersand
Width: 2048
VWidth: 0
GlyphClass: 2
Flags: W
LayerCount: 2
Fore
SplineSet
772 1534 m 257
 1701 43 l 257
 1777 56 l 257
 850 1534 l 257
 772 1534 l 257
1727 1467 m 257
 1727 1536 l 257
 850 1536 l 257
 850 1467 l 257
 1727 1467 l 257
1669 1485 m 257
 1669 1006 l 257
 1727 1006 l 257
 1727 1485 l 257
 1669 1485 l 257
357 1045 m 257
 357 985 l 257
 1727 985 l 257
 1727 1045 l 257
 357 1045 l 257
357 1045 m 257
 357 24 l 257
 447 24 l 257
 447 1045 l 257
 357 1045 l 257
357 71 m 257
 357 6 l 257
 1839 6 l 257
 1839 71 l 257
 357 71 l 257
EndSplineSet
EndChar

StartChar: approxequal
Encoding: 8776 8776 299
GlifName: approxequal
Width: 2048
VWidth: 0
GlyphClass: 2
Flags: W
LayerCount: 2
Fore
SplineSet
731 528 m 257
 731 395 l 257
 1431 334 l 257
 1431 467 l 257
 731 528 l 257
255 470 m 257
 285 338 l 257
 731 395 l 257
 731 528 l 257
 255 470 l 257
1431 467 m 257
 1431 334 l 257
 1793 475 l 257
 1745 605 l 257
 1431 467 l 257
731 898 m 257
 731 752 l 257
 1431 691 l 257
 1431 837 l 257
 731 898 l 257
255 840 m 257
 285 695 l 257
 731 752 l 257
 731 898 l 257
 255 840 l 257
1431 837 m 257
 1431 691 l 257
 1793 832 l 257
 1745 975 l 257
 1431 837 l 257
EndSplineSet
EndChar

StartChar: arrowboth
Encoding: 8596 8596 302
GlifName: leftR_ightA_rrow
Width: 2048
VWidth: 0
GlyphClass: 2
Flags: W
LayerCount: 2
Fore
SplineSet
670 845 m 257
 670 785 l 257
 1398 785 l 257
 1398 845 l 257
 670 845 l 257
793 1146 m 257
 617 814 l 257
 677 814 l 257
 852 1146 l 257
 793 1146 l 257
617 814 m 257
 808 481 l 257
 867 481 l 257
 677 814 l 257
 617 814 l 257
1249 484 m 257
 1425 816 l 257
 1367 816 l 257
 1191 484 l 257
 1249 484 l 257
1438 816 m 257
 1247 1149 l 257
 1189 1149 l 257
 1379 816 l 257
 1438 816 l 257
EndSplineSet
EndChar

StartChar: arrowdown
Encoding: 8595 8595 303
GlifName: downA_rrow
Width: 2048
VWidth: 0
GlyphClass: 2
Flags: W
LayerCount: 2
Fore
SplineSet
986 -105 m 257
 1046 -105 l 257
 1046 1688 l 257
 986 1688 l 257
 986 -105 l 257
685 312 m 257
 1017 -168 l 257
 1017 -93 l 257
 685 387 l 257
 685 312 l 257
1017 -168 m 257
 1350 331 l 257
 1350 406 l 257
 1017 -92 l 257
 1017 -168 l 257
EndSplineSet
EndChar

StartChar: arrowleft
Encoding: 8592 8592 304
GlifName: leftA_rrow
Width: 2048
VWidth: 0
GlyphClass: 2
Flags: W
LayerCount: 2
Fore
SplineSet
151 790 m 257
 151 730 l 257
 1944 730 l 257
 1944 790 l 257
 151 790 l 257
568 1091 m 257
 88 759 l 257
 163 759 l 257
 643 1091 l 257
 568 1091 l 257
88 759 m 257
 587 426 l 257
 662 426 l 257
 164 759 l 257
 88 759 l 257
EndSplineSet
EndChar

StartChar: arrowright
Encoding: 8594 8594 305
GlifName: rightA_rrow
Width: 2048
VWidth: 0
GlyphClass: 2
Flags: W
LayerCount: 2
Fore
SplineSet
1881 727 m 257
 1881 787 l 257
 88 787 l 257
 88 727 l 257
 1881 727 l 257
1464 426 m 257
 1944 758 l 257
 1869 758 l 257
 1389 426 l 257
 1464 426 l 257
1944 758 m 257
 1445 1091 l 257
 1370 1091 l 257
 1868 758 l 257
 1944 758 l 257
EndSplineSet
EndChar

StartChar: arrowup
Encoding: 8593 8593 306
GlifName: upA_rrow
Width: 2048
VWidth: 0
GlyphClass: 2
Flags: W
LayerCount: 2
Fore
SplineSet
1049 1625 m 257
 989 1625 l 257
 989 -168 l 257
 1049 -168 l 257
 1049 1625 l 257
1350 1208 m 257
 1018 1688 l 257
 1018 1613 l 257
 1350 1133 l 257
 1350 1208 l 257
1018 1688 m 257
 685 1189 l 257
 685 1114 l 257
 1018 1612 l 257
 1018 1688 l 257
EndSplineSet
EndChar

StartChar: arrowupdn
Encoding: 8597 8597 307
GlifName: upD_ownA_rrow
Width: 2048
VWidth: 0
GlyphClass: 2
Flags: W
LayerCount: 2
Fore
SplineSet
1049 1271 m 257
 989 1271 l 257
 989 344 l 257
 1049 344 l 257
 1049 1271 l 257
1350 1114 m 257
 1018 1338 l 257
 1018 1263 l 257
 1350 1039 l 257
 1350 1114 l 257
1018 1338 m 257
 685 1095 l 257
 685 1020 l 257
 1018 1262 l 257
 1018 1338 l 257
688 533 m 257
 1020 309 l 257
 1020 384 l 257
 688 608 l 257
 688 533 l 257
1020 292 m 257
 1353 535 l 257
 1353 610 l 257
 1020 368 l 257
 1020 292 l 257
EndSplineSet
EndChar

StartChar: asciicircum
Encoding: 94 94 308
GlifName: asciicircum
Width: 2048
VWidth: 0
GlyphClass: 2
Flags: W
LayerCount: 2
Fore
SplineSet
1022 1027 m 257
 950 1027 l 257
 686 407 l 257
 740 373 l 257
 1022 1027 l 257
956 1030 m 257
 1280 364 l 257
 1362 400 l 257
 1030 1030 l 257
 956 1030 l 257
EndSplineSet
EndChar

StartChar: asciitilde
Encoding: 126 126 309
GlifName: asciitilde
Width: 2048
VWidth: 0
GlyphClass: 2
Flags: W
LayerCount: 2
Fore
SplineSet
878 766 m 257
 878 716 l 257
 1228 645 l 257
 1228 695 l 257
 878 766 l 257
638 710 m 257
 652 652 l 257
 878 716 l 257
 878 766 l 257
 638 710 l 257
1228 695 m 257
 1228 645 l 257
 1410 796 l 257
 1396 843 l 257
 1228 695 l 257
EndSplineSet
EndChar

StartChar: asterisk
Encoding: 42 42 310
GlifName: asterisk
Width: 2048
VWidth: 0
GlyphClass: 2
Flags: W
LayerCount: 2
Fore
SplineSet
998 1297 m 257
 998 289 l 257
 1098 289 l 257
 1098 1297 l 257
 998 1297 l 257
652 1153 m 257
 1376 424 l 257
 1444 496 l 257
 712 1222 l 257
 652 1153 l 257
1352 1200 m 257
 604 449 l 257
 660 399 l 257
 1404 1134 l 257
 1352 1200 l 257
EndSplineSet
EndChar

StartChar: at
Encoding: 64 64 311
GlifName: at
Width: 2048
VWidth: 0
GlyphClass: 2
Flags: W
LayerCount: 2
Fore
SplineSet
594 1023 m 257
 594 956 l 257
 1492 956 l 257
 1492 1023 l 257
 594 1023 l 257
1252 598 m 257
 1252 0 l 257
 1320 0 l 257
 1320 598 l 257
 1252 598 l 257
832 601 m 257
 832 551 l 257
 1256 551 l 257
 1256 601 l 257
 832 601 l 257
828 589 m 257
 828 12 l 257
 882 12 l 257
 882 589 l 257
 828 589 l 257
826 76 m 257
 826 0 l 257
 1320 0 l 257
 1320 76 l 257
 826 76 l 257
540 1023 m 257
 540 -223 l 257
 606 -223 l 257
 606 1023 l 257
 540 1023 l 257
538 -179 m 257
 538 -258 l 257
 1486 -258 l 257
 1486 -179 l 257
 538 -179 l 257
1424 1033 m 257
 1424 0 l 257
 1510 0 l 257
 1510 1033 l 257
 1424 1033 l 257
1266 76 m 257
 1266 0 l 257
 1456 0 l 257
 1456 76 l 257
 1266 76 l 257
EndSplineSet
EndChar

StartChar: b
Encoding: 98 98 313
GlifName: b
Width: 2048
VWidth: 0
GlyphClass: 2
Flags: W
AnchorPoint: "base" 950 -60 basechar 0
AnchorPoint: "top" 220 1646 basechar 0
LayerCount: 2
Fore
SplineSet
135 1536 m 257
 135 0 l 257
 195 0 l 257
 195 1536 l 257
 135 1536 l 257
178 1033 m 257
 178 972 l 257
 1866 972 l 257
 1866 1033 l 257
 178 1033 l 257
1853 1033 m 257
 1853 0 l 257
 1913 0 l 257
 1913 1033 l 257
 1853 1033 l 257
170 60 m 257
 170 0 l 257
 1891 0 l 257
 1891 60 l 257
 170 60 l 257
EndSplineSet
EndChar

StartChar: backslash
Encoding: 92 92 314
GlifName: backslash
Width: 2048
VWidth: 0
GlyphClass: 2
Flags: W
LayerCount: 2
Fore
SplineSet
707 1550 m 257
 1263 0 l 257
 1341 0 l 257
 790 1550 l 257
 707 1550 l 257
EndSplineSet
EndChar

StartChar: bar
Encoding: 124 124 315
GlifName: bar
Width: 2048
VWidth: 0
GlyphClass: 2
Flags: W
LayerCount: 2
Fore
SplineSet
984 1435 m 257
 984 -90 l 257
 1064 -90 l 257
 1064 1435 l 257
 984 1435 l 257
EndSplineSet
EndChar

StartChar: beta
Encoding: 946 946 316
GlifName: beta
Width: 2048
VWidth: 0
GlyphClass: 2
Flags: W
LayerCount: 2
Fore
SplineSet
107 1505 m 257
 107 -457 l 257
 167 -457 l 257
 167 1505 l 257
 107 1505 l 257
107 1547 m 257
 107 1487 l 257
 1954 1392 l 257
 1954 1452 l 257
 107 1547 l 257
1894 1453 m 257
 1894 2 l 257
 1954 2 l 257
 1954 1453 l 257
 1894 1453 l 257
107 776 m 257
 107 716 l 257
 1954 716 l 257
 1954 776 l 257
 107 776 l 257
911 53 m 257
 911 2 l 257
 1954 2 l 257
 1954 53 l 257
 911 53 l 257
EndSplineSet
EndChar

StartChar: braceleft
Encoding: 123 123 317
GlifName: braceleft
Width: 2048
VWidth: 0
GlyphClass: 2
Flags: W
LayerCount: 2
Fore
SplineSet
1024 1600 m 257
 1024 838 l 257
 1098 838 l 257
 1098 1600 l 257
 1024 1600 l 257
1036 424 m 257
 1036 -261 l 257
 1122 -261 l 257
 1122 424 l 257
 1036 424 l 257
736 690 m 257
 736 630 l 257
 1100 836 l 257
 1024 836 l 257
 736 690 l 257
736 690 m 257
 736 630 l 257
 1034 425 l 257
 1120 425 l 257
 736 690 l 257
1044 1600 m 257
 1044 1529 l 257
 1300 1571 l 257
 1304 1600 l 257
 1044 1600 l 257
1042 -179 m 257
 1042 -263 l 257
 1312 -263 l 257
 1312 -250 l 257
 1042 -179 l 257
EndSplineSet
EndChar

StartChar: braceright
Encoding: 125 125 318
GlifName: braceright
Width: 2048
VWidth: 0
GlyphClass: 2
Flags: W
LayerCount: 2
Fore
SplineSet
1040 1544 m 257
 981 1544 l 257
 981 838 l 257
 1039 838 l 257
 1040 1544 l 257
1026 424 m 257
 966 424 l 257
 966 -286 l 257
 1026 -286 l 257
 1026 424 l 257
1313 690 m 257
 1035 838 l 257
 980 838 l 257
 1313 630 l 257
 1313 690 l 257
1313 690 m 257
 966 424 l 257
 1026 424 l 257
 1313 630 l 257
 1313 690 l 257
1041 1603 m 257
 766 1603 l 257
 770 1574 l 257
 1038 1509 l 257
 1041 1603 l 257
1014 -200 m 257
 735 -274 l 257
 735 -284 l 257
 1011 -284 l 257
 1014 -200 l 257
EndSplineSet
EndChar

StartChar: bracketleft
Encoding: 91 91 319
GlifName: bracketleft
Width: 2048
VWidth: 0
GlyphClass: 2
Flags: W
LayerCount: 2
Fore
SplineSet
890 1542 m 257
 890 -242 l 257
 947 -242 l 257
 947 1542 l 257
 890 1542 l 257
944 1543 m 257
 944 1481 l 257
 1153 1481 l 257
 1153 1543 l 257
 944 1543 l 257
926 -168 m 257
 926 -242 l 257
 1158 -242 l 257
 1158 -168 l 257
 926 -168 l 257
EndSplineSet
EndChar

StartChar: bracketright
Encoding: 93 93 320
GlifName: bracketright
Width: 2048
VWidth: 0
GlyphClass: 2
Flags: W
LayerCount: 2
Fore
SplineSet
1098 1542 m 257
 1098 -242 l 257
 1160 -242 l 257
 1160 1542 l 257
 1098 1542 l 257
886 1543 m 257
 886 1478 l 257
 1114 1478 l 257
 1114 1543 l 257
 886 1543 l 257
886 -165 m 257
 886 -242 l 257
 1124 -242 l 257
 1124 -165 l 257
 886 -165 l 257
EndSplineSet
EndChar

StartChar: breve
Encoding: 728 728 321
GlifName: breve
Width: 2048
VWidth: 0
GlyphClass: 2
Flags: W
LayerCount: 2
Fore
SplineSet
1189 1550 m 257
 1189 1480 l 257
 1354 1550 l 257
 1354 1645 l 257
 1189 1550 l 257
865 1550 m 257
 865 1480 l 257
 1189 1480 l 257
 1189 1550 l 257
 865 1550 l 257
694 1630 m 257
 694 1550 l 257
 865 1480 l 257
 865 1550 l 257
 694 1630 l 257
EndSplineSet
EndChar

StartChar: brokenbar
Encoding: 166 166 326
GlifName: brokenbar
Width: 2048
VWidth: 0
GlyphClass: 2
Flags: W
LayerCount: 2
Fore
SplineSet
1002 -332 m 257
 1046 -332 l 257
 1046 682 l 257
 1002 682 l 257
 1002 -332 l 257
1009 790 m 257
 1046 790 l 257
 1046 1636 l 257
 1009 1636 l 257
 1009 790 l 257
EndSplineSet
EndChar

StartChar: bullet
Encoding: 8226 8226 327
GlifName: bullet
Width: 2048
VWidth: 0
GlyphClass: 2
Flags: W
LayerCount: 2
Fore
SplineSet
947 1009 m 257
 947 844 l 257
 1101 844 l 257
 1101 1009 l 257
 947 1009 l 257
EndSplineSet
EndChar

StartChar: c
Encoding: 99 99 328
GlifName: c
Width: 2048
VWidth: 0
GlyphClass: 2
Flags: W
AnchorPoint: "base" 998 -84 basechar 0
AnchorPoint: "top" 972 1134 basechar 0
LayerCount: 2
Fore
SplineSet
164 1027 m 257
 164 967 l 257
 1884 967 l 257
 1884 1027 l 257
 164 1027 l 257
166 984 m 257
 166 0 l 257
 226 0 l 257
 226 984 l 257
 166 984 l 257
214 60 m 257
 214 0 l 257
 1878 0 l 257
 1878 60 l 257
 214 60 l 257
EndSplineSet
EndChar

StartChar: caron
Encoding: 711 711 330
GlifName: caron
Width: 2048
VWidth: 0
GlyphClass: 2
Flags: W
LayerCount: 2
Fore
SplineSet
1023 1102 m 257
 882 1429 l 257
 855 1412 l 257
 987 1102 l 257
 1023 1102 l 257
990 1101 m 257
 1027 1101 l 257
 1193 1416 l 257
 1152 1434 l 257
 990 1101 l 257
EndSplineSet
EndChar

StartChar: cedilla
Encoding: 184 184 335
GlifName: cedilla
Width: 2048
VWidth: 0
GlyphClass: 2
Flags: W
LayerCount: 2
Fore
SplineSet
805 187 m 257
 805 -53 l 257
 863 -53 l 257
 863 187 l 257
 805 187 l 257
811 -340 m 257
 811 -401 l 257
 1257 -401 l 257
 1257 -340 l 257
 811 -340 l 257
1198 7 m 257
 1198 -365 l 257
 1257 -365 l 257
 1257 7 l 257
 1198 7 l 257
811 7 m 257
 811 -53 l 257
 1257 -53 l 257
 1257 7 l 257
 811 7 l 257
EndSplineSet
EndChar

StartChar: cent
Encoding: 162 162 336
GlifName: cent
Width: 2048
VWidth: 0
GlyphClass: 2
Flags: W
LayerCount: 2
Fore
SplineSet
1116 1183 m 257
 1056 1183 l 257
 1056 -86 l 257
 1116 -86 l 257
 1116 1183 l 257
676 1027 m 257
 676 966 l 257
 1372 966 l 257
 1372 1027 l 257
 676 1027 l 257
678 984 m 257
 678 0 l 257
 743 0 l 257
 743 984 l 257
 678 984 l 257
727 61 m 257
 727 0 l 257
 1366 0 l 257
 1366 61 l 257
 727 61 l 257
EndSplineSet
EndChar

StartChar: chi
Encoding: 967 967 337
GlifName: chi
Width: 2048
VWidth: 0
GlyphClass: 2
Flags: W
LayerCount: 2
Fore
SplineSet
440 -245 m 257
 500 -245 l 257
 1659 1023 l 257
 1602 1023 l 257
 440 -245 l 257
482 1023 m 257
 1648 -247 l 257
 1706 -245 l 257
 542 1023 l 257
 482 1023 l 257
101 1023 m 257
 101 963 l 257
 541 963 l 257
 541 1023 l 257
 101 1023 l 257
1661 -185 m 257
 1661 -245 l 257
 2039 -245 l 257
 2039 -185 l 257
 1661 -185 l 257
EndSplineSet
EndChar

StartChar: circle
Encoding: 9675 9675 338
GlifName: whiteC_ircle
Width: 2048
VWidth: 0
GlyphClass: 2
Flags: W
LayerCount: 2
Fore
SplineSet
1077 1191 m 257
 894 1179 l 257
 741 1094 l 257
 647 928 l 257
 661 735 l 257
 728 520 l 257
 952 426 l 257
 1114 448 l 257
 1293 498 l 257
 1360 650 l 257
 1392 785 l 257
 1387 951 l 257
 1297 1094 l 257
 1077 1191 l 257
1066 1115 m 257
 1242 1037 l 257
 1314 923 l 257
 1318 790 l 257
 1292 682 l 257
 1238 560 l 257
 1095 520 l 257
 966 502 l 257
 786 578 l 257
 733 750 l 257
 722 904 l 257
 797 1037 l 257
 919 1105 l 257
 1066 1115 l 257
EndSplineSet
EndChar

StartChar: circumflex
Encoding: 710 710 339
GlifName: circumflex
Width: 2048
VWidth: 0
GlyphClass: 2
Flags: W
LayerCount: 2
Fore
SplineSet
1023 2308 m 257
 987 2308 l 257
 855 1998 l 257
 882 1981 l 257
 1023 2308 l 257
990 2310 m 257
 1152 1976 l 257
 1193 1994 l 257
 1027 2310 l 257
 990 2310 l 257
EndSplineSet
EndChar

StartChar: colon
Encoding: 58 58 344
GlifName: colon
Width: 2048
VWidth: 0
GlyphClass: 2
Flags: W
LayerCount: 2
Fore
SplineSet
956 164 m 257
 956 7 l 257
 1092 7 l 257
 1092 164 l 257
 956 164 l 257
956 553 m 257
 956 396 l 257
 1092 396 l 257
 1092 553 l 257
 956 553 l 257
EndSplineSet
EndChar

StartChar: colonmonetary
Encoding: 8353 8353 345
GlifName: colonmonetary
Width: 2048
VWidth: 0
GlyphClass: 2
Flags: W
LayerCount: 2
Fore
SplineSet
1423 1650 m 257
 808 42 l 257
 853 -31 l 257
 1482 1636 l 257
 1423 1650 l 257
1113 1642 m 257
 543 165 l 257
 599 140 l 257
 1169 1617 l 257
 1113 1642 l 257
623 1573 m 257
 623 36 l 257
 681 36 l 257
 681 1573 l 257
 623 1573 l 257
677 1573 m 257
 676 1508 l 257
 1504 1508 l 257
 1505 1573 l 257
 677 1573 l 257
664 92 m 257
 664 36 l 257
 1503 36 l 257
 1503 92 l 257
 664 92 l 257
EndSplineSet
EndChar

StartChar: comma
Encoding: 44 44 346
GlifName: comma
Width: 2048
VWidth: 0
GlyphClass: 2
Flags: W
LayerCount: 2
Fore
SplineSet
956 165 m 257
 956 8 l 257
 1092 8 l 257
 1092 165 l 257
 956 165 l 257
1040 135 m 257
 998 -99 l 257
 1048 -148 l 257
 1090 26 l 257
 1040 135 l 257
EndSplineSet
EndChar

StartChar: copyright
Encoding: 169 169 347
GlifName: copyright
Width: 2048
VWidth: 0
GlyphClass: 2
Flags: W
LayerCount: 2
Fore
SplineSet
524 1540 m 257
 524 0 l 257
 584 0 l 257
 584 1540 l 257
 524 1540 l 257
1464 1537 m 257
 1464 0 l 257
 1524 0 l 257
 1524 1537 l 257
 1464 1537 l 257
576 1538 m 257
 576 1476 l 257
 1520 1476 l 257
 1520 1538 l 257
 576 1538 l 257
536 60 m 257
 536 0 l 257
 1506 0 l 257
 1506 60 l 257
 536 60 l 257
770 1197 m 257
 770 1135 l 257
 1204 1135 l 257
 1204 1197 l 257
 770 1197 l 257
770 1154 m 257
 770 340 l 257
 830 340 l 257
 830 1154 l 257
 770 1154 l 257
770 356 m 257
 770 294 l 257
 1210 294 l 257
 1210 356 l 257
 770 356 l 257
EndSplineSet
EndChar

StartChar: currency
Encoding: 164 164 349
GlifName: currency
Width: 2048
VWidth: 0
GlyphClass: 2
Flags: W
LayerCount: 2
Fore
SplineSet
610 1182 m 257
 610 160 l 257
 670 160 l 257
 670 1182 l 257
 610 1182 l 257
1368 1184 m 257
 1368 160 l 257
 1428 160 l 257
 1428 1184 l 257
 1368 1184 l 257
672 1187 m 257
 672 1127 l 257
 1372 1127 l 257
 1372 1187 l 257
 672 1187 l 257
656 222 m 257
 656 160 l 257
 1376 160 l 257
 1376 222 l 257
 656 222 l 257
536 1251 m 257
 536 1137 l 257
 680 1137 l 257
 680 1251 l 257
 536 1251 l 257
1372 1241 m 257
 1372 1127 l 257
 1514 1127 l 257
 1514 1241 l 257
 1372 1241 l 257
530 223 m 257
 530 109 l 257
 674 109 l 257
 674 223 l 257
 530 223 l 257
1374 220 m 257
 1374 106 l 257
 1518 106 l 257
 1518 220 l 257
 1374 220 l 257
EndSplineSet
EndChar

StartChar: d
Encoding: 100 100 350
GlifName: d
Width: 2048
VWidth: 0
GlyphClass: 2
Flags: W
AnchorPoint: "base" 974 -88 basechar 0
AnchorPoint: "top" 1840 1690 basechar 0
LayerCount: 2
Fore
SplineSet
1804 1550 m 257
 1804 0 l 257
 1864 0 l 257
 1864 1550 l 257
 1804 1550 l 257
228 1026 m 257
 228 966 l 257
 1838 966 l 257
 1838 1026 l 257
 228 1026 l 257
184 1023 m 257
 184 0 l 257
 244 0 l 257
 244 1023 l 257
 184 1023 l 257
224 59 m 257
 224 -4 l 257
 1816 -4 l 257
 1816 59 l 257
 224 59 l 257
EndSplineSet
EndChar

StartChar: dagger
Encoding: 8224 8224 351
GlifName: dagger
Width: 2048
VWidth: 0
GlyphClass: 2
Flags: W
LayerCount: 2
Fore
SplineSet
209 1251 m 257
 209 1200 l 257
 815 1200 l 257
 815 1251 l 257
 209 1251 l 257
481 1550 m 257
 481 0 l 257
 547 0 l 257
 547 1550 l 257
 481 1550 l 257
EndSplineSet
EndChar

StartChar: daggerdbl
Encoding: 8225 8225 352
GlifName: daggerdbl
Width: 2048
VWidth: 0
GlyphClass: 2
Flags: W
LayerCount: 2
Fore
SplineSet
209 823 m 257
 209 772 l 257
 815 772 l 257
 815 823 l 257
 209 823 l 257
209 1251 m 257
 209 1200 l 257
 815 1200 l 257
 815 1251 l 257
 209 1251 l 257
490 1550 m 257
 490 0 l 257
 552 0 l 257
 552 1550 l 257
 490 1550 l 257
EndSplineSet
EndChar

StartChar: dcaron
Encoding: 271 271 353
GlifName: dcaron
Width: 2048
VWidth: 0
GlyphClass: 2
Flags: W
AnchorPoint: "base" 1016 -97 basechar 0
LayerCount: 2
Fore
SplineSet
1770 1527 m 257
 1770 0 l 257
 1830 0 l 257
 1830 1527 l 257
 1770 1527 l 257
114 1023 m 257
 114 962 l 257
 1790 962 l 257
 1790 1023 l 257
 114 1023 l 257
70 1023 m 257
 70 0 l 257
 128 0 l 257
 128 1023 l 257
 70 1023 l 257
86 60 m 257
 86 0 l 257
 1782 0 l 257
 1782 60 l 257
 86 60 l 257
1928 1496 m 257
 1928 1264 l 257
 1978 1264 l 257
 1978 1496 l 257
 1928 1496 l 257
EndSplineSet
EndChar

StartChar: dcroat
Encoding: 273 273 354
GlifName: dcroat
Width: 2048
VWidth: 0
GlyphClass: 2
Flags: W
AnchorPoint: "top" 1816 1637 basechar 0
AnchorPoint: "base" 1026 -123 basechar 0
LayerCount: 2
Fore
SplineSet
1792 1527 m 257
 1792 0 l 257
 1852 0 l 257
 1852 1527 l 257
 1792 1527 l 257
122 1023 m 257
 122 962 l 257
 1814 962 l 257
 1814 1023 l 257
 122 1023 l 257
90 1023 m 257
 90 0 l 257
 150 0 l 257
 150 1023 l 257
 90 1023 l 257
138 61 m 257
 138 0 l 257
 1804 0 l 257
 1804 61 l 257
 138 61 l 257
1650 1260 m 257
 1650 1202 l 257
 1958 1202 l 257
 1958 1260 l 257
 1650 1260 l 257
EndSplineSet
EndChar

StartChar: degree
Encoding: 176 176 355
GlifName: degree
Width: 2048
VWidth: 0
GlyphClass: 2
Flags: W
LayerCount: 2
Fore
SplineSet
903 1439 m 257
 1153 1439 l 257
 1153 1231 l 257
 903 1231 l 257
 903 1439 l 257
844 1488 m 257
 844 1179 l 257
 1204 1179 l 257
 1204 1488 l 257
 844 1488 l 257
EndSplineSet
EndChar

StartChar: delta
Encoding: 948 948 356
GlifName: delta
Width: 2048
VWidth: 0
GlyphClass: 2
Flags: W
LayerCount: 2
Fore
SplineSet
752 1550 m 257
 1856 0 l 257
 1904 0 l 257
 808 1550 l 257
 752 1550 l 257
184 1023 m 257
 184 964 l 257
 1176 964 l 257
 1176 1023 l 257
 184 1023 l 257
144 1023 m 257
 144 0 l 257
 204 0 l 257
 204 1023 l 257
 144 1023 l 257
190 59 m 257
 190 0 l 257
 1856 0 l 257
 1856 59 l 257
 190 59 l 257
777 1559 m 257
 777 1494 l 257
 1121 1494 l 257
 1121 1559 l 257
 777 1559 l 257
EndSplineSet
EndChar

StartChar: divide
Encoding: 247 247 359
GlifName: divide
Width: 2048
VWidth: 0
GlyphClass: 2
Flags: W
LayerCount: 2
Fore
SplineSet
1030 280 m 257
 1030 185 l 257
 1182 185 l 257
 1182 280 l 257
 1030 280 l 257
1021 1127 m 257
 1021 1031 l 257
 1158 1031 l 257
 1158 1127 l 257
 1021 1127 l 257
111 662 m 257
 111 600 l 257
 1937 600 l 257
 1937 662 l 257
 111 662 l 257
EndSplineSet
EndChar

StartChar: dollar
Encoding: 36 36 360
GlifName: dollar
Width: 2048
VWidth: 0
GlyphClass: 2
Flags: W
LayerCount: 2
Fore
SplineSet
638 1539 m 257
 638 1457 l 257
 1236 1457 l 257
 1236 1539 l 257
 638 1539 l 257
638 1542 m 257
 638 1028 l 257
 722 1028 l 257
 722 1542 l 257
 638 1542 l 257
666 69 m 257
 666 0 l 257
 1374 0 l 257
 1374 69 l 257
 666 69 l 257
1330 0 m 257
 1410 0 l 257
 1410 355 l 257
 1330 355 l 257
 1330 0 l 257
638 1028 m 257
 1329 355 l 257
 1410 355 l 257
 722 1028 l 257
 638 1028 l 257
933 1636 m 257
 933 -215 l 257
 1003 -215 l 257
 1003 1636 l 257
 933 1636 l 257
EndSplineSet
EndChar

StartChar: dong
Encoding: 8363 8363 361
GlifName: dong
Width: 2048
VWidth: 0
GlyphClass: 2
Flags: W
LayerCount: 2
Fore
SplineSet
686 18 m 257
 686 -56 l 257
 1304 -56 l 257
 1304 18 l 257
 686 18 l 257
1278 1527 m 257
 1278 98 l 257
 1352 98 l 257
 1352 1527 l 257
 1278 1527 l 257
656 1023 m 257
 656 949 l 257
 1340 949 l 257
 1340 1023 l 257
 656 1023 l 257
590 1023 m 257
 590 98 l 257
 664 98 l 257
 664 1023 l 257
 590 1023 l 257
656 174 m 257
 656 98 l 257
 1304 98 l 257
 1304 174 l 257
 656 174 l 257
1162 1403 m 257
 1162 1324 l 257
 1458 1324 l 257
 1458 1403 l 257
 1162 1403 l 257
EndSplineSet
EndChar

StartChar: dotaccent
Encoding: 729 729 362
GlifName: dotaccent
Width: 2048
VWidth: 0
GlyphClass: 2
Flags: W
LayerCount: 2
Fore
SplineSet
968 1078 m 257
 968 977 l 257
 1080 977 l 257
 1080 1078 l 257
 968 1078 l 257
EndSplineSet
EndChar

StartChar: dotbelowcomb
Encoding: 803 803 363
GlifName: dotbelowcomb
Width: 0
VWidth: 0
GlyphClass: 4
Flags: W
HStem: -365 75<-40 40>
VStem: -40 80<-365 -290 -365 -290>
AnchorPoint: "base" 3 -283 mark 0
LayerCount: 2
Fore
SplineSet
-40 -290 m 257
 -40 -365 l 257
 40 -365 l 257
 40 -290 l 257
 -40 -290 l 257
EndSplineSet
PickledDataWithLists: "(dp0
Vcom.fontlab.hintData
p1
(dp2
Vhhints
p3
(lp4
(dp5
Vposition
p6
I-365
sVwidth
p7
I75
sasVvhints
p8
(lp9
(dp10
g6
I-40
sg7
I80
sass."
EndChar

StartChar: dotlessi
Encoding: 305 305 364
GlifName: dotlessi
Width: 2048
VWidth: 0
GlyphClass: 2
Flags: W
AnchorPoint: "top" 1007 1191 basechar 0
AnchorPoint: "base" 1072 -71 basechar 0
LayerCount: 2
Fore
SplineSet
1022 1023 m 257
 1022 52 l 257
 1082 52 l 257
 1082 1023 l 257
 1022 1023 l 257
141 60 m 257
 141 0 l 257
 1907 0 l 257
 1907 60 l 257
 141 60 l 257
191 1023 m 257
 191 962 l 257
 1039 962 l 257
 1039 1023 l 257
 191 1023 l 257
EndSplineSet
EndChar

StartChar: e
Encoding: 101 101 365
GlifName: e
Width: 2048
VWidth: 0
GlyphClass: 2
Flags: W
AnchorPoint: "top" 1032 1158 basechar 0
AnchorPoint: "base" 1028 -56 basechar 0
LayerCount: 2
Fore
SplineSet
218 1023 m 257
 218 968 l 257
 1880 968 l 257
 1880 1023 l 257
 218 1023 l 257
166 1023 m 257
 166 0 l 257
 224 0 l 257
 224 1023 l 257
 166 1023 l 257
208 61 m 257
 208 0 l 257
 1876 0 l 257
 1876 61 l 257
 208 61 l 257
186 506 m 257
 194 446 l 257
 1848 446 l 257
 1848 506 l 257
 186 506 l 257
1822 993 m 257
 1822 445 l 257
 1882 445 l 257
 1882 993 l 257
 1822 993 l 257
EndSplineSet
EndChar

StartChar: eight
Encoding: 56 56 373
GlifName: eight
Width: 2048
VWidth: 0
GlyphClass: 2
Flags: W
LayerCount: 2
Fore
SplineSet
56 1550 m 257
 56 0 l 257
 1993 -3 l 257
 1993 1550 l 257
 56 1550 l 257
1931 899 m 257
 1931 57 l 257
 119 57 l 257
 119 899 l 257
 1931 899 l 257
1932 959 m 257
 118 959 l 257
 118 1489 l 257
 1932 1489 l 257
 1932 959 l 257
EndSplineSet
Substitution2: "sinfScientificInferiorsinLatinlookup3 subtable" uni2088
Substitution2: "supsSuperscriptinLatinlookup16 subtable" uni2078
EndChar

StartChar: ellipsis
Encoding: 8230 8230 374
GlifName: ellipsis
Width: 2048
VWidth: 0
GlyphClass: 2
Flags: W
LayerCount: 2
Fore
SplineSet
405 114 m 257
 405 0 l 257
 547 0 l 257
 547 114 l 257
 405 114 l 257
952 114 m 257
 952 0 l 257
 1096 0 l 257
 1096 114 l 257
 952 114 l 257
1501 114 m 257
 1501 0 l 257
 1643 0 l 257
 1643 114 l 257
 1501 114 l 257
EndSplineSet
EndChar

StartChar: emdash
Encoding: 8212 8212 376
GlifName: emdash
Width: 2048
VWidth: 0
GlyphClass: 2
Flags: W
LayerCount: 2
Fore
SplineSet
0 600 m 257
 2014 600 l 257
 2014 688 l 257
 0 688 l 257
 0 600 l 257
EndSplineSet
EndChar

StartChar: endash
Encoding: 8211 8211 378
GlifName: endash
Width: 2048
VWidth: 0
GlyphClass: 2
Flags: W
LayerCount: 2
Fore
SplineSet
611 600 m 257
 1437 600 l 257
 1437 678 l 257
 611 678 l 257
 611 600 l 257
EndSplineSet
EndChar

StartChar: eng
Encoding: 331 331 379
GlifName: eng
Width: 2048
VWidth: 0
GlyphClass: 2
Flags: W
AnchorPoint: "top" 1040 1211 basechar 0
AnchorPoint: "base" 1082 -439 basechar 0
LayerCount: 2
Fore
SplineSet
1480 -348 m 257
 1480 -408 l 257
 1867 -408 l 257
 1867 -348 l 257
 1480 -348 l 257
244 990 m 257
 244 0 l 257
 304 0 l 257
 304 990 l 257
 244 990 l 257
1808 976 m 257
 1808 -408 l 257
 1868 -408 l 257
 1868 976 l 257
 1808 976 l 257
65 1023 m 257
 65 963 l 257
 1867 963 l 257
 1867 1023 l 257
 65 1023 l 257
EndSplineSet
EndChar

StartChar: epsilon
Encoding: 949 949 381
GlifName: epsilon
Width: 2048
VWidth: 0
GlyphClass: 2
Flags: W
LayerCount: 2
Fore
SplineSet
103 1140 m 257
 102 599 l 257
 162 598 l 257
 163 1139 l 257
 103 1140 l 257
146 1139 m 257
 146 1079 l 257
 1924 1079 l 257
 1924 1139 l 257
 146 1139 l 257
158 60 m 257
 158 0 l 257
 1940 0 l 257
 1940 60 l 257
 158 60 l 257
162 600 m 257
 162 540 l 257
 1181 540 l 257
 1181 600 l 257
 162 600 l 257
103 543 m 257
 103 0 l 257
 164 0 l 257
 163 542 l 257
 103 543 l 257
EndSplineSet
EndChar

StartChar: equal
Encoding: 61 61 383
GlifName: equal
Width: 2048
VWidth: 0
GlyphClass: 2
Flags: W
LayerCount: 2
Fore
SplineSet
616 824 m 257
 616 724 l 257
 1432 724 l 257
 1432 824 l 257
 616 824 l 257
616 540 m 257
 616 450 l 257
 1432 450 l 257
 1432 540 l 257
 616 540 l 257
EndSplineSet
EndChar

StartChar: estimated
Encoding: 8494 8494 384
GlifName: estimated
Width: 2048
VWidth: 0
GlyphClass: 2
Flags: W
LayerCount: 2
Fore
SplineSet
683 798 m 257
 683 718 l 257
 1429 719 l 257
 1429 799 l 257
 683 798 l 257
1238 1098 m 257
 1244 727 l 257
 1428 727 l 257
 1422 1098 l 257
 1238 1098 l 257
679 1103 m 257
 680 731 l 257
 859 731 l 257
 858 1103 l 257
 679 1103 l 257
680 1175 m 257
 680 1081 l 257
 1025 1125 l 257
 1025 1219 l 257
 680 1175 l 257
1025 1221 m 257
 1024 1123 l 257
 1422 1081 l 257
 1423 1179 l 257
 1025 1221 l 257
683 731 m 257
 683 287 l 257
 764 287 l 257
 764 731 l 257
 683 731 l 257
683 342 m 257
 683 248 l 257
 1025 183 l 257
 1025 277 l 257
 683 342 l 257
1024 277 m 257
 1024 183 l 257
 1423 247 l 257
 1423 341 l 257
 1024 277 l 257
EndSplineSet
EndChar

StartChar: eta
Encoding: 951 951 385
GlifName: eta
Width: 2048
VWidth: 0
GlyphClass: 2
Flags: W
LayerCount: 2
Fore
SplineSet
500 990 m 257
 500 0 l 257
 560 0 l 257
 560 990 l 257
 500 990 l 257
1808 976 m 257
 1808 -409 l 257
 1868 -409 l 257
 1868 976 l 257
 1808 976 l 257
65 1023 m 257
 65 963 l 257
 1867 963 l 257
 1867 1023 l 257
 65 1023 l 257
EndSplineSet
EndChar

StartChar: eth
Encoding: 240 240 387
GlifName: eth
Width: 2048
VWidth: 0
GlyphClass: 2
Flags: W
AnchorPoint: "top" 726 1659 basechar 0
AnchorPoint: "base" 1084 -112 basechar 0
LayerCount: 2
Fore
SplineSet
752 1550 m 257
 1856 0 l 257
 1904 0 l 257
 808 1550 l 257
 752 1550 l 257
184 1023 m 257
 184 964 l 257
 1176 964 l 257
 1176 1023 l 257
 184 1023 l 257
144 1023 m 257
 144 0 l 257
 204 0 l 257
 204 1023 l 257
 144 1023 l 257
190 59 m 257
 190 0 l 257
 1856 0 l 257
 1856 59 l 257
 190 59 l 257
672 1416 m 257
 672 1351 l 257
 1016 1351 l 257
 1016 1416 l 257
 672 1416 l 257
EndSplineSet
EndChar

StartChar: exclam
Encoding: 33 33 388
GlifName: exclam
Width: 2048
VWidth: 0
GlyphClass: 2
Flags: W
LayerCount: 2
Fore
SplineSet
990 76 m 257
 1057 76 l 257
 1057 174 l 257
 990 174 l 257
 990 76 l 257
988 411 m 257
 1060 411 l 257
 1060 1429 l 257
 988 1429 l 257
 988 411 l 257
EndSplineSet
EndChar

StartChar: exclamdown
Encoding: 161 161 389
GlifName: exclamdown
Width: 2048
VWidth: 0
GlyphClass: 2
Flags: W
LayerCount: 2
Fore
SplineSet
1054 1520 m 257
 994 1520 l 257
 994 1272 l 257
 1054 1272 l 257
 1054 1520 l 257
1050 1035 m 257
 996 1035 l 257
 996 17 l 257
 1054 17 l 257
 1050 1035 l 257
EndSplineSet
EndChar

StartChar: f
Encoding: 102 102 390
GlifName: f
Width: 2048
VWidth: 0
GlyphClass: 2
Flags: W
AnchorPoint: "top" 1403 1637 basechar 0
AnchorPoint: "base" 981 -88 basechar 0
LayerCount: 2
Fore
SplineSet
936 1548 m 257
 929 -10 l 257
 989 -10 l 257
 996 1548 l 257
 936 1548 l 257
937 1548 m 257
 937 1488 l 257
 1847 1488 l 257
 1847 1548 l 257
 937 1548 l 257
207 862 m 257
 207 802 l 257
 1710 802 l 257
 1710 862 l 257
 207 862 l 257
EndSplineSet
EndChar

StartChar: filledbox
Encoding: 9632 9632 392
GlifName: blackS_quare
Width: 2048
VWidth: 0
GlyphClass: 2
Flags: W
LayerCount: 2
Fore
SplineSet
607 1242 m 257
 607 415 l 257
 1434 415 l 257
 1434 1242 l 257
 607 1242 l 257
EndSplineSet
EndChar

StartChar: five
Encoding: 53 53 393
GlifName: five
Width: 2048
VWidth: 0
GlyphClass: 2
Flags: W
LayerCount: 2
Fore
SplineSet
1941 899 m 257
 1941 58 l 257
 59 58 l 257
 59 0 l 257
 2001 0 l 257
 2001 959 l 257
 120 959 l 257
 120 1492 l 257
 2011 1492 l 257
 2011 1550 l 257
 60 1550 l 257
 60 899 l 257
 1941 899 l 257
EndSplineSet
Substitution2: "sinfScientificInferiorsinLatinlookup3 subtable" uni2085
Substitution2: "supsSuperscriptinLatinlookup16 subtable" uni2075
EndChar

StartChar: florin
Encoding: 402 402 395
GlifName: uni0192
Width: 2048
VWidth: 0
GlyphClass: 2
Flags: W
LayerCount: 2
Fore
SplineSet
974 1023 m 257
 974 -406 l 257
 1036 -406 l 257
 1036 1023 l 257
 974 1023 l 257
1002 1023 m 257
 1002 966 l 257
 1794 966 l 257
 1794 1023 l 257
 1002 1023 l 257
316 559 m 257
 316 500 l 257
 1534 500 l 257
 1534 559 l 257
 316 559 l 257
254 -345 m 257
 254 -406 l 257
 1028 -406 l 257
 1028 -345 l 257
 254 -345 l 257
EndSplineSet
EndChar

StartChar: four
Encoding: 52 52 396
GlifName: four
Width: 2048
VWidth: 0
GlyphClass: 2
Flags: W
LayerCount: 2
Fore
SplineSet
91 761 m 257
 1896 761 l 257
 1896 7 l 257
 1953 7 l 257
 1953 1550 l 257
 1893 1550 l 257
 1893 821 l 257
 151 821 l 257
 151 1550 l 257
 91 1550 l 257
 91 761 l 257
EndSplineSet
Substitution2: "sinfScientificInferiorsinLatinlookup3 subtable" uni2084
Substitution2: "supsSuperscriptinLatinlookup16 subtable" uni2074
EndChar

StartChar: fraction
Encoding: 8260 8260 397
GlifName: uni2044
Width: 2048
VWidth: 0
GlyphClass: 2
Flags: W
LayerCount: 2
Fore
SplineSet
1818 1435 m 257
 133 6 l 257
 168 -21 l 257
 1844 1399 l 257
 1818 1435 l 257
EndSplineSet
EndChar

StartChar: franc
Encoding: 8355 8355 398
GlifName: franc
Width: 2048
VWidth: 0
GlyphClass: 2
Flags: W
LayerCount: 2
Fore
SplineSet
586 565 m 257
 586 531 l 257
 920 531 l 257
 920 565 l 257
 586 565 l 257
726 1548 m 257
 726 0 l 257
 764 0 l 257
 764 1548 l 257
 726 1548 l 257
760 1548 m 257
 760 1501 l 257
 1462 1501 l 257
 1462 1548 l 257
 760 1548 l 257
742 828 m 257
 742 791 l 257
 1366 791 l 257
 1366 828 l 257
 742 828 l 257
EndSplineSet
EndChar

StartChar: g
Encoding: 103 103 399
GlifName: g
Width: 2048
VWidth: 0
GlyphClass: 2
Flags: W
AnchorPoint: "top" 1032 1155 basechar 0
AnchorPoint: "base" 1024 -481 basechar 0
LayerCount: 2
Fore
SplineSet
223 1023 m 257
 223 0 l 257
 283 0 l 257
 283 1023 l 257
 223 1023 l 257
263 1023 m 257
 263 962 l 257
 1803 962 l 257
 1803 1023 l 257
 263 1023 l 257
1765 1023 m 257
 1765 -411 l 257
 1825 -411 l 257
 1825 1023 l 257
 1765 1023 l 257
286 58 m 257
 286 0 l 257
 1767 0 l 257
 1767 58 l 257
 286 58 l 257
263 -354 m 257
 263 -413 l 257
 1776 -413 l 257
 1776 -354 l 257
 263 -354 l 257
EndSplineSet
EndChar

StartChar: gamma
Encoding: 947 947 400
GlifName: gamma
Width: 2048
VWidth: 0
GlyphClass: 2
Flags: W
LayerCount: 2
Fore
SplineSet
993 235 m 257
 993 -398 l 257
 1053 -398 l 257
 1053 235 l 257
 993 235 l 257
230 1026 m 257
 993 197 l 257
 1053 197 l 257
 293 1026 l 257
 230 1026 l 257
1759 1026 m 257
 993 197 l 257
 1053 197 l 257
 1818 1026 l 257
 1759 1026 l 257
EndSplineSet
EndChar

StartChar: germandbls
Encoding: 223 223 406
GlifName: germandbls
Width: 2048
VWidth: 0
GlyphClass: 2
Flags: W
LayerCount: 2
Fore
SplineSet
76 1084 m 257
 76 1023 l 257
 327 1023 l 257
 327 1084 l 257
 76 1084 l 257
261 1550 m 257
 261 0 l 257
 325 0 l 257
 325 1550 l 257
 261 1550 l 257
313 1550 m 257
 313 1488 l 257
 1944 1488 l 257
 1944 1550 l 257
 313 1550 l 257
1910 1550 m 257
 1910 1023 l 257
 1971 1023 l 257
 1971 1550 l 257
 1910 1550 l 257
1912 848 m 257
 1912 175 l 257
 1970 175 l 257
 1970 848 l 257
 1912 848 l 257
1373 187 m 257
 1373 131 l 257
 1972 131 l 257
 1972 187 l 257
 1373 187 l 257
1378 1081 m 257
 1378 1027 l 257
 1912 1023 l 257
 1913 1080 l 257
 1378 1081 l 257
1379 847 m 257
 1380 787 l 257
 1916 787 l 257
 1918 847 l 257
 1379 847 l 257
1327 1078 m 257
 1327 788 l 257
 1378 789 l 257
 1378 1079 l 257
 1327 1078 l 257
EndSplineSet
EndChar

StartChar: grave
Encoding: 96 96 407
GlifName: grave
Width: 2048
VWidth: 0
GlyphClass: 2
Flags: W
LayerCount: 2
Fore
SplineSet
938 1286 m 257
 1022 1057 l 257
 1068 1082 l 257
 976 1310 l 257
 938 1286 l 257
EndSplineSet
EndChar

StartChar: gravecomb
Encoding: 768 768 408
GlifName: gravecomb
Width: 0
VWidth: 0
GlyphClass: 4
Flags: W
AnchorPoint: "top" -6 776 mark 0
LayerCount: 2
Fore
SplineSet
-171 1043 m 257
 -47 839 l 257
 13 893 l 257
 -111 1098 l 257
 -171 1043 l 257
EndSplineSet
EndChar

StartChar: greater
Encoding: 62 62 409
GlifName: greater
Width: 2048
VWidth: 0
GlyphClass: 2
Flags: W
LayerCount: 2
Fore
SplineSet
1433 632 m 257
 617 1013 l 257
 617 952 l 257
 1433 569 l 257
 1433 632 l 257
1433 632 m 257
 615 186 l 257
 615 122 l 257
 1433 569 l 257
 1433 632 l 257
EndSplineSet
EndChar

StartChar: greaterequal
Encoding: 8805 8805 410
GlifName: greaterequal
Width: 2048
VWidth: 0
GlyphClass: 2
Flags: W
LayerCount: 2
Fore
SplineSet
292 -5 m 257
 292 -41 l 257
 1922 -41 l 257
 1922 -5 l 257
 292 -5 l 257
1926 712 m 257
 282 1012 l 257
 282 967 l 257
 1930 664 l 257
 1926 712 l 257
1926 711 m 257
 286 253 l 257
 286 209 l 257
 1930 655 l 257
 1926 711 l 257
EndSplineSet
EndChar

StartChar: guillemotleft
Encoding: 171 171 411
GlifName: guillemotleft
Width: 2048
VWidth: 0
GlyphClass: 2
Flags: W
LayerCount: 2
Fore
SplineSet
610 509 m 257
 610 472 l 257
 1047 757 l 257
 1047 784 l 257
 610 509 l 257
610 509 m 257
 610 472 l 257
 978 122 l 257
 986 160 l 257
 610 509 l 257
1028 527 m 257
 1028 498 l 257
 1438 783 l 257
 1438 823 l 257
 1028 527 l 257
1027 527 m 257
 1027 497 l 257
 1393 122 l 257
 1410 149 l 257
 1027 527 l 257
EndSplineSet
EndChar

StartChar: guillemotright
Encoding: 187 187 412
GlifName: guillemotright
Width: 2048
VWidth: 0
GlyphClass: 2
Flags: W
LayerCount: 2
Fore
SplineSet
1438 509 m 257
 1001 784 l 257
 1001 757 l 257
 1437 472 l 257
 1438 509 l 257
1438 509 m 257
 1062 160 l 257
 1070 122 l 257
 1437 472 l 257
 1438 509 l 257
1020 527 m 257
 610 823 l 257
 610 783 l 257
 1021 498 l 257
 1020 527 l 257
1021 527 m 257
 638 149 l 257
 655 122 l 257
 1021 497 l 257
 1021 527 l 257
EndSplineSet
EndChar

StartChar: guilsinglleft
Encoding: 8249 8249 413
GlifName: guilsinglleft
Width: 2048
VWidth: 0
GlyphClass: 2
Flags: W
LayerCount: 2
Fore
SplineSet
103 652 m 257
 103 569 l 257
 921 946 l 257
 921 1013 l 257
 103 652 l 257
103 652 m 257
 103 569 l 257
 915 122 l 257
 915 199 l 257
 103 652 l 257
EndSplineSet
EndChar

StartChar: guilsinglright
Encoding: 8250 8250 414
GlifName: guilsinglright
Width: 2048
VWidth: 0
GlyphClass: 2
Flags: W
LayerCount: 2
Fore
SplineSet
921 632 m 257
 105 1013 l 257
 105 952 l 257
 921 569 l 257
 921 632 l 257
921 632 m 257
 103 186 l 257
 103 122 l 257
 921 569 l 257
 921 632 l 257
EndSplineSet
EndChar

StartChar: h
Encoding: 104 104 415
GlifName: h
Width: 2048
VWidth: 0
GlyphClass: 2
Flags: W
AnchorPoint: "top" 184 1642 basechar 0
AnchorPoint: "base" 956 -98 basechar 0
LayerCount: 2
Fore
SplineSet
174 1525 m 257
 174 6 l 257
 233 6 l 257
 233 1525 l 257
 174 1525 l 257
214 1028 m 257
 214 968 l 257
 1827 968 l 257
 1827 1028 l 257
 214 1028 l 257
1815 1028 m 257
 1815 0 l 257
 1874 0 l 257
 1874 1028 l 257
 1815 1028 l 257
EndSplineSet
EndChar

StartChar: hbar
Encoding: 295 295 416
GlifName: hbar
Width: 2048
VWidth: 0
GlyphClass: 2
Flags: W
LayerCount: 2
Fore
SplineSet
242 1541 m 257
 242 6 l 257
 302 6 l 257
 302 1541 l 257
 242 1541 l 257
276 1023 m 257
 276 966 l 257
 1934 966 l 257
 1934 1023 l 257
 276 1023 l 257
1883 1023 m 257
 1883 0 l 257
 1942 0 l 257
 1942 1023 l 257
 1883 1023 l 257
106 1429 m 257
 106 1369 l 257
 562 1369 l 257
 562 1429 l 257
 106 1429 l 257
EndSplineSet
EndChar

StartChar: hookabovecomb
Encoding: 777 777 418
GlifName: hookabovecomb
Width: 0
VWidth: 0
GlyphClass: 4
Flags: W
AnchorPoint: "top" -5 774 mark 0
LayerCount: 2
Fore
SplineSet
-60 1165 m 257
 -60 1124 l 257
 147 1124 l 257
 147 1165 l 257
 -60 1165 l 257
120 1165 m 257
 120 967 l 257
 149 967 l 257
 149 1165 l 257
 120 1165 l 257
-20 979 m 257
 -20 940 l 257
 149 940 l 257
 149 979 l 257
 -20 979 l 257
-20 979 m 257
 -20 826 l 257
 8 826 l 257
 8 979 l 257
 -20 979 l 257
EndSplineSet
EndChar

StartChar: hungarumlaut
Encoding: 733 733 419
GlifName: hungarumlaut
Width: 2048
VWidth: 0
GlyphClass: 2
Flags: W
LayerCount: 2
Fore
SplineSet
792 122 m 257
 858 122 l 257
 858 370 l 257
 792 370 l 257
 792 122 l 257
1196 122 m 257
 1256 122 l 257
 1256 370 l 257
 1196 370 l 257
 1196 122 l 257
EndSplineSet
EndChar

StartChar: hyphen
Encoding: 45 45 420
GlifName: hyphen
Width: 2048
VWidth: 0
GlyphClass: 2
Flags: W
LayerCount: 2
Fore
SplineSet
611 793 m 257
 611 733 l 257
 1437 733 l 257
 1437 793 l 257
 611 793 l 257
EndSplineSet
EndChar

StartChar: i
Encoding: 105 105 421
GlifName: i
Width: 2048
VWidth: 0
GlyphClass: 2
Flags: W
AnchorPoint: "top" 909 1450 basechar 0
AnchorPoint: "base" 932 -68 basechar 0
LayerCount: 2
Fore
SplineSet
1022 1023 m 257
 1022 52 l 257
 1082 52 l 257
 1082 1023 l 257
 1022 1023 l 257
141 60 m 257
 141 0 l 257
 1907 0 l 257
 1907 60 l 257
 141 60 l 257
836 1292 m 257
 836 1174 l 257
 949 1174 l 257
 949 1292 l 257
 836 1292 l 257
191 1023 m 257
 191 962 l 257
 1039 962 l 257
 1039 1023 l 257
 191 1023 l 257
EndSplineSet
Substitution2: "Single Substitution lookup 5 subtable" dotlessi
EndChar

StartChar: infinity
Encoding: 8734 8734 430
GlifName: infinity
Width: 2048
VWidth: 0
GlyphClass: 2
Flags: W
LayerCount: 2
Fore
SplineSet
27 1023 m 257
 27 963 l 257
 672 963 l 257
 672 1023 l 257
 27 1023 l 257
29 984 m 257
 29 0 l 257
 89 0 l 257
 89 984 l 257
 29 984 l 257
57 60 m 257
 57 0 l 257
 693 5 l 257
 693 65 l 257
 57 60 l 257
1328 1 m 257
 1329 62 l 257
 670 1024 l 257
 619 990 l 257
 1328 1 l 257
693 3 m 257
 1448 984 l 257
 1361 1029 l 257
 641 39 l 257
 693 3 l 257
1363 1027 m 257
 1353 938 l 257
 1963 935 l 257
 1957 1016 l 257
 1363 1027 l 257
1915 1016 m 257
 1919 1 l 257
 1979 1 l 257
 1975 1016 l 257
 1915 1016 l 257
1329 62 m 257
 1327 1 l 257
 1974 -2 l 257
 1976 59 l 257
 1329 62 l 257
EndSplineSet
EndChar

StartChar: integral
Encoding: 8747 8747 431
GlifName: integral
Width: 2048
VWidth: 0
GlyphClass: 2
Flags: W
LayerCount: 2
Fore
SplineSet
1046 1641 m 257
 823 -390 l 257
 890 -390 l 257
 1113 1641 l 257
 1046 1641 l 257
351 -339 m 257
 351 -390 l 257
 890 -390 l 257
 890 -339 l 257
 351 -339 l 257
1081 1639 m 257
 1081 1573 l 257
 1778 1572 l 257
 1778 1638 l 257
 1081 1639 l 257
EndSplineSet
EndChar

StartChar: iota
Encoding: 953 953 434
GlifName: iota
Width: 2048
VWidth: 0
GlyphClass: 2
Flags: W
LayerCount: 2
Fore
SplineSet
808 1018 m 257
 808 107 l 257
 868 107 l 257
 868 1018 l 257
 808 1018 l 257
808 172 m 257
 808 106 l 257
 1816 6 l 257
 1816 72 l 257
 808 172 l 257
EndSplineSet
EndChar

StartChar: j
Encoding: 106 106 441
GlifName: j
Width: 2048
VWidth: 0
GlyphClass: 2
Flags: W
AnchorPoint: "top" 1786 1296 basechar 0
AnchorPoint: "base" 1006 -520 basechar 0
LayerCount: 2
Fore
SplineSet
1792 1023 m 257
 1792 -411 l 257
 1850 -411 l 257
 1850 1023 l 257
 1792 1023 l 257
198 -348 m 257
 198 -409 l 257
 1812 -409 l 257
 1812 -348 l 257
 198 -348 l 257
198 -6 m 257
 198 -378 l 257
 258 -378 l 257
 258 -6 l 257
 198 -6 l 257
1790 1201 m 257
 1790 1142 l 257
 1850 1142 l 257
 1850 1201 l 257
 1790 1201 l 257
EndSplineSet
Substitution2: "Single Substitution lookup 5 subtable" uni0237
EndChar

StartChar: k
Encoding: 107 107 444
GlifName: k
Width: 2048
VWidth: 0
GlyphClass: 2
Flags: W
AnchorPoint: "base" 918 -56 basechar 0
AnchorPoint: "top" 136 1650 basechar 0
LayerCount: 2
Fore
SplineSet
88 1535 m 257
 88 5 l 257
 148 5 l 257
 148 1535 l 257
 88 1535 l 257
137 421 m 257
 137 352 l 257
 1794 1023 l 257
 1734 1023 l 257
 137 421 l 257
489 551 m 257
 447 508 l 257
 1899 0 l 257
 1960 0 l 257
 489 551 l 257
EndSplineSet
EndChar

StartChar: kgreenlandic
Encoding: 312 312 447
GlifName: kgreenlandic
Width: 2048
VWidth: 0
GlyphClass: 2
Flags: W
AnchorPoint: "base" 180 -104 basechar 0
AnchorPoint: "top" 140 1110 basechar 0
LayerCount: 2
Fore
SplineSet
76 1033 m 257
 76 5 l 257
 136 5 l 257
 136 1033 l 257
 76 1033 l 257
125 421 m 257
 125 352 l 257
 2009 1023 l 257
 1949 1023 l 257
 125 421 l 257
140 374 m 257
 98 331 l 257
 1911 0 l 257
 1972 0 l 257
 140 374 l 257
EndSplineSet
EndChar

StartChar: l
Encoding: 108 108 448
GlifName: l
Width: 2048
VWidth: 0
GlyphClass: 2
Flags: W
AnchorPoint: "base" 1058 -72 basechar 0
AnchorPoint: "top" 1048 1642 basechar 0
LayerCount: 2
Fore
SplineSet
207 72 m 257
 207 0 l 257
 1841 0 l 257
 1841 72 l 257
 207 72 l 257
1006 1553 m 257
 1006 57 l 257
 1066 57 l 257
 1066 1553 l 257
 1006 1553 l 257
268 1553 m 257
 268 1494 l 257
 1015 1494 l 257
 1015 1553 l 257
 268 1553 l 257
EndSplineSet
EndChar

StartChar: lambda
Encoding: 955 955 451
GlifName: lambda
Width: 2048
VWidth: 0
GlyphClass: 2
Flags: W
LayerCount: 2
Fore
SplineSet
181 0 m 257
 251 0 l 257
 1165 777 l 257
 1099 777 l 257
 181 0 l 257
1667 0 m 257
 1726 0 l 257
 986 1047 l 257
 920 1047 l 257
 1667 0 l 257
EndSplineSet
EndChar

StartChar: lcaron
Encoding: 318 318 453
GlifName: lcaron
Width: 2048
VWidth: 0
GlyphClass: 2
Flags: W
LayerCount: 2
Fore
SplineSet
196 62 m 257
 196 0 l 257
 1854 0 l 257
 1854 62 l 257
 196 62 l 257
1004 1547 m 257
 1004 46 l 257
 1062 46 l 257
 1062 1547 l 257
 1004 1547 l 257
194 1550 m 257
 194 1489 l 257
 1018 1489 l 257
 1018 1550 l 257
 194 1550 l 257
1142 1496 m 257
 1142 1264 l 257
 1194 1264 l 257
 1194 1496 l 257
 1142 1496 l 257
EndSplineSet
EndChar

StartChar: less
Encoding: 60 60 456
GlifName: less
Width: 2048
VWidth: 0
GlyphClass: 2
Flags: W
LayerCount: 2
Fore
SplineSet
615 652 m 257
 615 569 l 257
 1433 946 l 257
 1433 1013 l 257
 615 652 l 257
615 652 m 257
 615 569 l 257
 1427 122 l 257
 1427 199 l 257
 615 652 l 257
EndSplineSet
EndChar

StartChar: lessequal
Encoding: 8804 8804 457
GlifName: lessequal
Width: 2048
VWidth: 0
GlyphClass: 2
Flags: W
LayerCount: 2
Fore
SplineSet
116 0 m 257
 115 -36 l 257
 1913 -30 l 257
 1914 0 l 257
 116 0 l 257
219 712 m 257
 215 664 l 257
 1863 967 l 257
 1863 1012 l 257
 219 712 l 257
219 711 m 257
 215 655 l 257
 1859 209 l 257
 1859 253 l 257
 219 711 l 257
EndSplineSet
EndChar

StartChar: lira
Encoding: 8356 8356 458
GlifName: lira
Width: 2048
VWidth: 0
GlyphClass: 2
Flags: W
LayerCount: 2
Fore
SplineSet
607 770 m 257
 607 688 l 257
 1333 688 l 257
 1333 770 l 257
 607 770 l 257
934 1543 m 257
 934 1481 l 257
 1225 1481 l 257
 1225 1543 l 257
 934 1543 l 257
607 1033 m 257
 607 959 l 257
 1333 959 l 257
 1333 1033 l 257
 607 1033 l 257
890 1542 m 257
 890 0 l 257
 952 0 l 257
 952 1542 l 257
 890 1542 l 257
715 82 m 257
 715 0 l 257
 1441 0 l 257
 1441 82 l 257
 715 82 l 257
EndSplineSet
EndChar

StartChar: logicalnot
Encoding: 172 172 459
GlifName: logicalnot
Width: 2048
VWidth: 0
GlyphClass: 2
Flags: W
LayerCount: 2
Fore
SplineSet
1241 935 m 257
 1241 640 l 257
 1294 640 l 257
 1294 935 l 257
 1241 935 l 257
754 935 m 257
 754 875 l 257
 1288 875 l 257
 1288 935 l 257
 754 935 l 257
EndSplineSet
EndChar

StartChar: longs
Encoding: 383 383 460
GlifName: longs
Width: 2048
VWidth: 0
GlyphClass: 2
Flags: W
LayerCount: 2
Fore
SplineSet
76 1084 m 257
 76 1023 l 257
 327 1023 l 257
 327 1084 l 257
 76 1084 l 257
261 1550 m 257
 261 0 l 257
 325 0 l 257
 325 1550 l 257
 261 1550 l 257
313 1550 m 257
 313 1488 l 257
 1944 1488 l 257
 1944 1550 l 257
 313 1550 l 257
EndSplineSet
EndChar

StartChar: lozenge
Encoding: 9674 9674 461
GlifName: lozenge
Width: 2048
VWidth: 0
GlyphClass: 2
Flags: W
LayerCount: 2
Fore
SplineSet
836 809 m 257
 1024 382 l 257
 1231 800 l 257
 1025 1235 l 257
 836 809 l 257
EndSplineSet
EndChar

StartChar: lslash
Encoding: 322 322 462
GlifName: lslash
Width: 2048
VWidth: 0
GlyphClass: 2
Flags: W
LayerCount: 2
Fore
SplineSet
195 60 m 257
 195 0 l 257
 1853 0 l 257
 1853 60 l 257
 195 60 l 257
1064 1553 m 257
 1064 22 l 257
 1124 22 l 257
 1124 1553 l 257
 1064 1553 l 257
256 1553 m 257
 256 1493 l 257
 1090 1493 l 257
 1090 1553 l 257
 256 1553 l 257
1327 1039 m 257
 748 702 l 257
 850 702 l 257
 1429 1039 l 257
 1327 1039 l 257
EndSplineSet
EndChar

StartChar: m
Encoding: 109 109 463
GlifName: m
Width: 2048
VWidth: 0
GlyphClass: 2
Flags: W
AnchorPoint: "base" 1062 -96 basechar 0
AnchorPoint: "top" 1076 1078 basechar 0
LayerCount: 2
Fore
SplineSet
334 993 m 257
 334 0 l 257
 394 0 l 257
 394 993 l 257
 334 993 l 257
1030 972 m 257
 1030 0 l 257
 1090 0 l 257
 1090 972 l 257
 1030 972 l 257
1928 976 m 257
 1928 0 l 257
 1988 0 l 257
 1988 976 l 257
 1928 976 l 257
60 1023 m 257
 60 966 l 257
 1988 966 l 257
 1988 1023 l 257
 60 1023 l 257
EndSplineSet
EndChar

StartChar: macron
Encoding: 175 175 464
GlifName: macron
Width: 2048
VWidth: 0
GlyphClass: 2
Flags: W
LayerCount: 2
Fore
SplineSet
737 1019 m 257
 737 977 l 257
 1297 977 l 257
 1297 1019 l 257
 737 1019 l 257
EndSplineSet
EndChar

StartChar: mu
Encoding: 181 181 467
GlifName: mu
Width: 2048
VWidth: 0
GlyphClass: 2
Flags: W
LayerCount: 2
Fore
SplineSet
1543 935 m 257
 1543 0 l 257
 1603 0 l 257
 1603 935 l 257
 1543 935 l 257
430 60 m 257
 430 0 l 257
 1600 0 l 257
 1600 60 l 257
 430 60 l 257
409 935 m 257
 409 -430 l 257
 469 -430 l 257
 469 935 l 257
 409 935 l 257
EndSplineSet
EndChar

StartChar: multiply
Encoding: 215 215 468
GlifName: multiply
Width: 2048
VWidth: 0
GlyphClass: 2
Flags: W
LayerCount: 2
Fore
SplineSet
92 295 m 257
 188 295 l 257
 1948 1323 l 257
 1866 1323 l 257
 92 295 l 257
90 1322 m 257
 1870 288 l 257
 1958 288 l 257
 174 1322 l 257
 90 1322 l 257
EndSplineSet
EndChar

StartChar: n
Encoding: 110 110 469
GlifName: n
Width: 2048
VWidth: 0
GlyphClass: 2
Flags: W
AnchorPoint: "base" 1190 -64 basechar 0
AnchorPoint: "top" 1212 1126 basechar 0
LayerCount: 2
Fore
SplineSet
502 990 m 257
 502 0 l 257
 563 0 l 257
 563 990 l 257
 502 990 l 257
1866 976 m 257
 1866 0 l 257
 1926 0 l 257
 1926 976 l 257
 1866 976 l 257
122 1027 m 257
 122 967 l 257
 1924 967 l 257
 1924 1027 l 257
 122 1027 l 257
EndSplineSet
EndChar

StartChar: nine
Encoding: 57 57 474
GlifName: nine
Width: 2048
VWidth: 0
GlyphClass: 2
Flags: W
LayerCount: 2
Fore
SplineSet
1945 759 m 257
 1945 59 l 257
 79 59 l 257
 79 0 l 257
 2001 0 l 257
 2001 1553 l 257
 57 1553 l 257
 57 1541 l 257
 57 759 l 257
 1945 759 l 257
1942 818 m 257
 117 818 l 257
 117 1495 l 257
 1942 1495 l 257
 1942 818 l 257
EndSplineSet
Substitution2: "sinfScientificInferiorsinLatinlookup3 subtable" uni2089
Substitution2: "supsSuperscriptinLatinlookup16 subtable" uni2079
EndChar

StartChar: notequal
Encoding: 8800 8800 475
GlifName: notequal
Width: 2048
VWidth: 0
GlyphClass: 2
Flags: W
LayerCount: 2
Fore
SplineSet
1510 1101 m 257
 370 182 l 257
 400 109 l 257
 1540 1028 l 257
 1510 1101 l 257
208 837 m 257
 208 775 l 257
 1840 775 l 257
 1840 837 l 257
 208 837 l 257
208 500 m 257
 208 432 l 257
 1840 432 l 257
 1840 500 l 257
 208 500 l 257
EndSplineSet
EndChar

StartChar: numbersign
Encoding: 35 35 478
GlifName: numbersign
Width: 2048
VWidth: 0
GlyphClass: 2
Flags: W
LayerCount: 2
Fore
SplineSet
741 1184 m 257
 741 99 l 257
 800 99 l 257
 800 1184 l 257
 741 1184 l 257
1236 1192 m 257
 1236 95 l 257
 1307 95 l 257
 1307 1192 l 257
 1236 1192 l 257
617 995 m 257
 617 937 l 257
 1418 937 l 257
 1418 995 l 257
 617 995 l 257
621 493 m 257
 621 417 l 257
 1431 417 l 257
 1431 493 l 257
 621 493 l 257
EndSplineSet
EndChar

StartChar: o
Encoding: 111 111 479
GlifName: o
Width: 2048
VWidth: 0
GlyphClass: 2
Flags: W
AnchorPoint: "top" 974 1070 basechar 0
AnchorPoint: "base" 954 -122 basechar 0
LayerCount: 2
Fore
SplineSet
104 1023 m 257
 104 0 l 257
 160 0 l 257
 160 1023 l 257
 104 1023 l 257
1884 1023 m 257
 1884 0 l 257
 1946 0 l 257
 1946 1023 l 257
 1884 1023 l 257
152 1023 m 257
 152 967 l 257
 1889 967 l 257
 1889 1023 l 257
 152 1023 l 257
150 62 m 257
 150 0 l 257
 1892 0 l 257
 1892 62 l 257
 150 62 l 257
EndSplineSet
Substitution2: "Single Substitution lookup 11 subtable" ordmasculine
EndChar

StartChar: oe
Encoding: 339 339 484
GlifName: oe
Width: 2048
VWidth: 0
GlyphClass: 2
Flags: W
AnchorPoint: "top" 1069 1147 basechar 0
AnchorPoint: "base" 1093 -65 basechar 0
LayerCount: 2
Fore
SplineSet
1099 506 m 257
 1099 446 l 257
 1911 446 l 257
 1911 506 l 257
 1099 506 l 257
1886 1023 m 257
 1886 445 l 257
 1945 445 l 257
 1945 1023 l 257
 1886 1023 l 257
93 1023 m 257
 93 0 l 257
 152 0 l 257
 152 1023 l 257
 93 1023 l 257
1060 1023 m 257
 1060 0 l 257
 1121 0 l 257
 1121 1023 l 257
 1060 1023 l 257
148 1023 m 257
 148 964 l 257
 1946 964 l 257
 1946 1023 l 257
 148 1023 l 257
139 62 m 257
 139 0 l 257
 1955 0 l 257
 1955 62 l 257
 139 62 l 257
EndSplineSet
EndChar

StartChar: ogonek
Encoding: 731 731 485
GlifName: ogonek
Width: 2048
VWidth: 0
GlyphClass: 2
Flags: W
LayerCount: 2
Fore
SplineSet
753 -300 m 257
 753 -360 l 257
 1294 -360 l 257
 1294 -300 l 257
 753 -300 l 257
753 51 m 257
 753 -360 l 257
 813 -360 l 257
 813 51 l 257
 753 51 l 257
753 51 m 257
 753 -8 l 257
 1295 -8 l 257
 1295 51 l 257
 753 51 l 257
EndSplineSet
EndChar

StartChar: omega
Encoding: 969 969 490
GlifName: omega
Width: 2048
VWidth: 0
GlyphClass: 2
Flags: W
LayerCount: 2
Fore
SplineSet
150 1023 m 257
 106 47 l 257
 166 47 l 257
 210 1023 l 257
 150 1023 l 257
1825 1024 m 257
 1885 56 l 257
 1945 56 l 257
 1885 1024 l 257
 1825 1024 l 257
993 611 m 257
 993 136 l 257
 1053 136 l 257
 1053 611 l 257
 993 611 l 257
107 65 m 257
 102 2 l 257
 996 137 l 257
 996 200 l 257
 107 65 l 257
1051 211 m 257
 1051 137 l 257
 1945 2 l 257
 1945 76 l 257
 1051 211 l 257
EndSplineSet
EndChar

StartChar: one
Encoding: 49 49 494
GlifName: one
Width: 2048
VWidth: 0
GlyphClass: 2
Flags: W
LayerCount: 2
Fore
SplineSet
1054 0 m 257
 1114 0 l 257
 1114 1550 l 257
 1054 1550 l 257
 1054 0 l 257
1054 1550 m 257
 934 1426 l 257
 986 1398 l 257
 1114 1550 l 257
 1054 1550 l 257
EndSplineSet
Substitution2: "sinfScientificInferiorsinLatinlookup3 subtable" uni2081
Substitution2: "supsSuperscriptinLatinlookup16 subtable" uni00B9
EndChar

StartChar: onequarter
Encoding: 188 188 497
GlifName: onequarter
Width: 2048
VWidth: 0
GlyphClass: 2
Flags: W
LayerCount: 2
Fore
SplineSet
79 10 m 257
 182 10 l 257
 79 10 l 257
873 7 m 257
 932 7 l 257
 873 7 l 257
EndSplineSet
Refer: 596 185 N 1 0 0 1 -749 254 2
Refer: 557 47 N 1 0 0 1 -377 71 2
Refer: 1956 8324 N 1 0 0 1 470 13 2
Ligature2: "fracDiagonalFractionsinLatinlookup2 subtable" one slash four
Ligature2: "fracDiagonalFractionsinLatinlookup2 subtable" one fraction four
EndChar

StartChar: openbullet
Encoding: 9702 9702 499
GlifName: whiteB_ullet
Width: 2048
VWidth: 0
GlyphClass: 2
Flags: W
LayerCount: 2
Fore
SplineSet
901 1038 m 257
 901 780 l 257
 1186 780 l 257
 1186 1038 l 257
 901 1038 l 257
929 1012 m 257
 1158 1012 l 257
 1158 806 l 257
 929 806 l 257
 929 1012 l 257
EndSplineSet
EndChar

StartChar: ordfeminine
Encoding: 170 170 500
GlifName: ordfeminine
Width: 2048
VWidth: 0
GlyphClass: 2
Flags: W
LayerCount: 2
Fore
SplineSet
702 1558 m 257
 702 1491 l 257
 1351 1491 l 257
 1351 1558 l 257
 702 1558 l 257
1313 1559 m 257
 1313 535 l 257
 1390 535 l 257
 1390 1559 l 257
 1313 1559 l 257
705 1134 m 257
 705 1072 l 257
 1329 1072 l 257
 1329 1134 l 257
 705 1134 l 257
706 1111 m 257
 706 533 l 257
 777 533 l 257
 777 1111 l 257
 706 1111 l 257
715 608 m 257
 715 533 l 257
 1379 533 l 257
 1379 608 l 257
 715 608 l 257
599 306 m 257
 599 243 l 257
 1467 243 l 257
 1467 306 l 257
 599 306 l 257
EndSplineSet
EndChar

StartChar: ordmasculine
Encoding: 186 186 501
GlifName: ordmasculine
Width: 2048
VWidth: 0
GlyphClass: 2
Flags: W
LayerCount: 2
Fore
SplineSet
647 1546 m 257
 647 523 l 257
 706 523 l 257
 706 1546 l 257
 647 1546 l 257
1404 1546 m 257
 1404 523 l 257
 1465 523 l 257
 1465 1546 l 257
 1404 1546 l 257
708 1550 m 257
 708 1490 l 257
 1409 1490 l 257
 1409 1550 l 257
 708 1550 l 257
693 585 m 257
 693 523 l 257
 1412 523 l 257
 1412 585 l 257
 693 585 l 257
539 338 m 257
 539 272 l 257
 1563 272 l 257
 1563 338 l 257
 539 338 l 257
EndSplineSet
EndChar

StartChar: oslash
Encoding: 248 248 502
GlifName: oslash
Width: 2048
VWidth: 0
GlyphClass: 2
Flags: W
AnchorPoint: "top" 974 1070 basechar 0
AnchorPoint: "base" 954 -122 basechar 0
LayerCount: 2
Fore
SplineSet
1928 1125 m 257
 78 -36 l 257
 118 -70 l 257
 1970 1073 l 257
 1928 1125 l 257
112 1023 m 257
 112 0 l 257
 172 0 l 257
 172 1023 l 257
 112 1023 l 257
1868 1023 m 257
 1868 0 l 257
 1928 0 l 257
 1928 1023 l 257
 1868 1023 l 257
154 1023 m 257
 154 963 l 257
 1900 963 l 257
 1900 1023 l 257
 154 1023 l 257
156 63 m 257
 156 0 l 257
 1904 0 l 257
 1904 63 l 257
 156 63 l 257
EndSplineSet
EndChar

StartChar: ou
Encoding: 547 547 505
GlifName: ou
Width: 2048
VWidth: 0
Flags: W
LayerCount: 2
Fore
SplineSet
115 1552 m 257
 115 692 l 257
 175 692 l 257
 175 1552 l 257
 115 1552 l 257
1891 1552 m 257
 1888 696 l 257
 1948 696 l 257
 1951 1552 l 257
 1891 1552 l 257
102 637 m 257
 100 581 l 257
 1968 578 l 257
 1966 641 l 257
 102 637 l 257
102 637 m 257
 95 24 l 257
 158 24 l 257
 158 637 l 257
 102 637 l 257
1908 638 m 257
 1914 0 l 257
 1975 3 l 257
 1966 641 l 257
 1908 638 l 257
94 60 m 257
 92 0 l 257
 1966 0 l 257
 1966 60 l 257
 94 60 l 257
1966 636 m 257
 113 782 l 257
 117 691 l 257
 1968 578 l 257
 1966 636 l 257
101 581 m 257
 1948 696 l 257
 1943 778 l 257
 102 633 l 257
 101 581 l 257
EndSplineSet
EndChar

StartChar: p
Encoding: 112 112 506
GlifName: p
Width: 2048
VWidth: 0
GlyphClass: 2
Flags: W
AnchorPoint: "base" 234 -528 basechar 0
AnchorPoint: "top" 224 1314 basechar 0
LayerCount: 2
Fore
SplineSet
190 1181 m 257
 190 -406 l 257
 250 -406 l 257
 250 1181 l 257
 190 1181 l 257
234 1023 m 257
 234 964 l 257
 1844 964 l 257
 1844 1023 l 257
 234 1023 l 257
236 61 m 257
 236 0 l 257
 1856 0 l 257
 1856 61 l 257
 236 61 l 257
1796 1023 m 257
 1796 0 l 257
 1854 0 l 257
 1854 1023 l 257
 1796 1023 l 257
EndSplineSet
EndChar

StartChar: paragraph
Encoding: 182 182 507
GlifName: paragraph
Width: 2048
VWidth: 0
GlyphClass: 2
Flags: W
LayerCount: 2
Fore
SplineSet
602 1044 m 257
 602 985 l 257
 1166 985 l 257
 1166 1044 l 257
 602 1044 l 257
602 1550 m 257
 602 1000 l 257
 664 1000 l 257
 664 1550 l 257
 602 1550 l 257
602 1550 m 257
 602 1493 l 257
 1422 1493 l 257
 1422 1550 l 257
 602 1550 l 257
1152 1550 m 257
 1152 0 l 257
 1216 0 l 257
 1216 1550 l 257
 1152 1550 l 257
1384 1550 m 257
 1384 0 l 257
 1446 0 l 257
 1446 1550 l 257
 1384 1550 l 257
EndSplineSet
EndChar

StartChar: parenleft
Encoding: 40 40 508
GlifName: parenleft
Width: 2048
VWidth: 0
GlyphClass: 2
Flags: W
LayerCount: 2
Fore
SplineSet
828 1026 m 257
 828 179 l 257
 956 179 l 257
 956 1026 l 257
 828 1026 l 257
1192 1636 m 257
 828 1026 l 257
 956 1026 l 257
 1220 1633 l 257
 1192 1636 l 257
828 179 m 257
 1166 -309 l 257
 1194 -309 l 257
 956 179 l 257
 828 179 l 257
EndSplineSet
EndChar

StartChar: parenright
Encoding: 41 41 509
GlifName: parenright
Width: 2048
VWidth: 0
GlyphClass: 2
Flags: W
LayerCount: 2
Fore
SplineSet
1062 1026 m 257
 1062 179 l 257
 1190 179 l 257
 1190 1026 l 257
 1062 1026 l 257
858 1635 m 257
 1062 1026 l 257
 1190 1026 l 257
 896 1635 l 257
 858 1635 l 257
1062 179 m 257
 858 -309 l 257
 886 -309 l 257
 1190 179 l 257
 1062 179 l 257
EndSplineSet
EndChar

StartChar: partialdiff
Encoding: 8706 8706 510
GlifName: partialdiff
Width: 2048
VWidth: 0
GlyphClass: 2
Flags: W
LayerCount: 2
Fore
SplineSet
752 1550 m 257
 1856 0 l 257
 1904 0 l 257
 808 1550 l 257
 752 1550 l 257
184 1023 m 257
 184 964 l 257
 1176 964 l 257
 1176 1023 l 257
 184 1023 l 257
144 1023 m 257
 144 0 l 257
 204 0 l 257
 204 1023 l 257
 144 1023 l 257
190 59 m 257
 190 0 l 257
 1856 0 l 257
 1856 59 l 257
 190 59 l 257
531 1550 m 257
 531 1485 l 257
 811 1488 l 257
 811 1553 l 257
 531 1550 l 257
EndSplineSet
EndChar

StartChar: percent
Encoding: 37 37 511
GlifName: percent
Width: 2048
VWidth: 0
GlyphClass: 2
Flags: W
LayerCount: 2
Fore
SplineSet
634 444 m 257
 663 417 l 257
 1410 775 l 257
 1391 801 l 257
 634 444 l 257
740 1148 m 257
 740 803 l 257
 771 803 l 257
 771 1148 l 257
 740 1148 l 257
740 1152 m 257
 740 1126 l 257
 1087 1126 l 257
 1087 1152 l 257
 740 1152 l 257
740 826 m 257
 740 789 l 257
 1084 789 l 257
 1084 826 l 257
 740 826 l 257
1051 1152 m 257
 1051 791 l 257
 1087 791 l 257
 1087 1152 l 257
 1051 1152 l 257
1067 436 m 257
 1067 94 l 257
 1110 94 l 257
 1110 436 l 257
 1067 436 l 257
1067 440 m 257
 1067 397 l 257
 1414 397 l 257
 1414 440 l 257
 1067 440 l 257
1067 109 m 257
 1067 77 l 257
 1411 77 l 257
 1411 109 l 257
 1067 109 l 257
1380 440 m 257
 1380 79 l 257
 1414 79 l 257
 1414 440 l 257
 1380 440 l 257
EndSplineSet
EndChar

StartChar: period
Encoding: 46 46 512
GlifName: period
Width: 2048
VWidth: 0
GlyphClass: 2
Flags: W
LayerCount: 2
Fore
SplineSet
952 113 m 257
 952 0 l 257
 1096 0 l 257
 1096 113 l 257
 952 113 l 257
EndSplineSet
EndChar

StartChar: periodcentered
Encoding: 183 183 513
GlifName: periodcentered
Width: 2048
VWidth: 0
GlyphClass: 2
Flags: W
LayerCount: 2
Fore
SplineSet
976 1056 m 257
 976 955 l 257
 1072 955 l 257
 1072 1056 l 257
 976 1056 l 257
EndSplineSet
EndChar

StartChar: perthousand
Encoding: 8240 8240 514
GlifName: perthousand
Width: 2048
VWidth: 0
GlyphClass: 2
Flags: W
LayerCount: 2
Fore
SplineSet
1174 436 m 257
 1174 110 l 257
 1252 110 l 257
 1252 436 l 257
 1174 436 l 257
1174 440 m 257
 1174 345 l 257
 1520 345 l 257
 1520 440 l 257
 1174 440 l 257
1174 159 m 257
 1174 77 l 257
 1518 77 l 257
 1518 159 l 257
 1174 159 l 257
1428 440 m 257
 1428 79 l 257
 1520 79 l 257
 1520 440 l 257
 1428 440 l 257
528 522 m 257
 570 377 l 257
 1394 716 l 257
 1350 860 l 257
 528 522 l 257
668 1148 m 257
 668 822 l 257
 746 822 l 257
 746 1148 l 257
 668 1148 l 257
668 1152 m 257
 668 1057 l 257
 1014 1057 l 257
 1014 1152 l 257
 668 1152 l 257
668 871 m 257
 668 789 l 257
 1012 789 l 257
 1012 871 l 257
 668 871 l 257
922 1152 m 257
 922 791 l 257
 1014 791 l 257
 1014 1152 l 257
 922 1152 l 257
772 436 m 257
 772 110 l 257
 850 110 l 257
 850 436 l 257
 772 436 l 257
772 440 m 257
 772 345 l 257
 1120 345 l 257
 1120 440 l 257
 772 440 l 257
772 159 m 257
 772 77 l 257
 1116 77 l 257
 1116 159 l 257
 772 159 l 257
1028 440 m 257
 1028 79 l 257
 1120 79 l 257
 1120 440 l 257
 1028 440 l 257
EndSplineSet
EndChar

StartChar: peseta
Encoding: 8359 8359 515
GlifName: peseta
Width: 2048
VWidth: 0
GlyphClass: 2
Flags: W
LayerCount: 2
Fore
SplineSet
668 1550 m 257
 668 0 l 257
 718 0 l 257
 718 1550 l 257
 668 1550 l 257
697 1550 m 257
 697 1494 l 257
 939 1494 l 257
 939 1550 l 257
 697 1550 l 257
892 1550 m 257
 892 881 l 257
 947 881 l 257
 947 1550 l 257
 892 1550 l 257
691 934 m 257
 691 868 l 257
 945 868 l 257
 945 934 l 257
 691 934 l 257
1043 1526 m 257
 1043 0 l 257
 1090 0 l 257
 1090 1526 l 257
 1043 1526 l 257
1043 68 m 257
 1043 0 l 257
 1175 0 l 257
 1175 68 l 257
 1043 68 l 257
965 977 m 257
 965 915 l 257
 1188 915 l 257
 1188 977 l 257
 965 977 l 257
1226 609 m 257
 1226 563 l 257
 1380 563 l 257
 1380 609 l 257
 1226 609 l 257
1226 609 m 257
 1226 438 l 257
 1277 438 l 257
 1277 609 l 257
 1226 609 l 257
1226 61 m 257
 1226 0 l 257
 1380 0 l 257
 1380 61 l 257
 1226 61 l 257
1329 173 m 257
 1329 5 l 257
 1379 5 l 257
 1379 173 l 257
 1329 173 l 257
1226 438 m 257
 1329 173 l 257
 1379 173 l 257
 1277 438 l 257
 1226 438 l 257
EndSplineSet
EndChar

StartChar: phi
Encoding: 966 966 516
GlifName: phi
Width: 2048
VWidth: 0
GlyphClass: 2
Flags: W
LayerCount: 2
Fore
SplineSet
104 1023 m 257
 104 0 l 257
 164 0 l 257
 164 1023 l 257
 104 1023 l 257
1885 1023 m 257
 1885 0 l 257
 1945 0 l 257
 1945 1023 l 257
 1885 1023 l 257
115 1023 m 257
 115 963 l 257
 1934 963 l 257
 1934 1023 l 257
 115 1023 l 257
119 60 m 257
 119 0 l 257
 1924 0 l 257
 1924 60 l 257
 119 60 l 257
995 1202 m 257
 995 -413 l 257
 1055 -413 l 257
 1055 1202 l 257
 995 1202 l 257
EndSplineSet
EndChar

StartChar: phi1
Encoding: 981 981 517
GlifName: phiS_ymbol
Width: 2048
VWidth: 0
GlyphClass: 2
Flags: W
LayerCount: 2
Fore
SplineSet
71 1110 m 257
 71 25 l 257
 131 25 l 257
 131 1110 l 257
 71 1110 l 257
71 62 m 257
 71 1 l 257
 1981 1 l 257
 1981 62 l 257
 71 62 l 257
1939 1098 m 257
 1939 0 l 257
 1999 0 l 257
 1999 1098 l 257
 1939 1098 l 257
980 1098 m 257
 985 1038 l 257
 1999 1038 l 257
 1999 1098 l 257
 980 1098 l 257
963 1098 m 257
 963 -503 l 257
 1024 -503 l 257
 1024 1098 l 257
 963 1098 l 257
EndSplineSet
EndChar

StartChar: pi
Encoding: 960 960 518
GlifName: pi
Width: 2048
VWidth: 0
GlyphClass: 2
Flags: W
LayerCount: 2
Fore
SplineSet
200 990 m 257
 188 0 l 257
 248 0 l 257
 260 990 l 257
 200 990 l 257
1764 976 m 257
 1752 0 l 257
 1812 0 l 257
 1824 976 l 257
 1764 976 l 257
80 1023 m 257
 77 963 l 257
 1963 963 l 257
 1966 1023 l 257
 80 1023 l 257
EndSplineSet
EndChar

StartChar: plus
Encoding: 43 43 519
GlifName: plus
Width: 2048
VWidth: 0
GlyphClass: 2
Flags: W
LayerCount: 2
Fore
SplineSet
946 1221 m 257
 946 165 l 257
 1056 165 l 257
 1056 1221 l 257
 946 1221 l 257
573 796 m 257
 573 693 l 257
 1475 693 l 257
 1475 796 l 257
 573 796 l 257
EndSplineSet
EndChar

StartChar: plusminus
Encoding: 177 177 520
GlifName: plusminus
Width: 2048
VWidth: 0
GlyphClass: 2
Flags: W
LayerCount: 2
Fore
SplineSet
611 110 m 257
 611 48 l 257
 1437 48 l 257
 1437 110 l 257
 611 110 l 257
978 1221 m 257
 978 228 l 257
 1039 228 l 257
 1039 1221 l 257
 978 1221 l 257
573 744 m 257
 573 686 l 257
 1475 686 l 257
 1475 744 l 257
 573 744 l 257
EndSplineSet
EndChar

StartChar: product
Encoding: 8719 8719 522
GlifName: product
Width: 2048
VWidth: 0
GlyphClass: 2
Flags: W
LayerCount: 2
Fore
SplineSet
366 1537 m 257
 366 0 l 257
 426 0 l 257
 426 1537 l 257
 366 1537 l 257
1617 1535 m 257
 1617 -2 l 257
 1678 0 l 257
 1678 1537 l 257
 1617 1535 l 257
33 1537 m 257
 33 1477 l 257
 2027 1477 l 257
 2027 1537 l 257
 33 1537 l 257
EndSplineSet
EndChar

StartChar: psi
Encoding: 968 968 523
GlifName: psi
Width: 2048
VWidth: 0
GlyphClass: 2
Flags: W
LayerCount: 2
Fore
SplineSet
1009 1015 m 257
 993 -129 l 257
 1053 -129 l 257
 1069 1015 l 257
 1009 1015 l 257
179 1020 m 257
 170 278 l 257
 230 278 l 257
 239 1020 l 257
 179 1020 l 257
1847 1020 m 257
 1838 278 l 257
 1898 278 l 257
 1907 1020 l 257
 1847 1020 l 257
223 338 m 257
 221 278 l 257
 1848 278 l 257
 1850 338 l 257
 223 338 l 257
EndSplineSet
EndChar

StartChar: q
Encoding: 113 113 524
GlifName: q
Width: 2048
VWidth: 0
GlyphClass: 2
Flags: W
AnchorPoint: "top" 1587 1269 basechar 0
AnchorPoint: "base" 1607 -527 basechar 0
LayerCount: 2
Fore
SplineSet
1550 1188 m 257
 1550 -410 l 257
 1610 -410 l 257
 1610 1188 l 257
 1550 1188 l 257
146 1023 m 257
 146 961 l 257
 1594 961 l 257
 1594 1023 l 257
 146 1023 l 257
152 57 m 257
 152 0 l 257
 1568 0 l 257
 1568 57 l 257
 152 57 l 257
138 1023 m 257
 138 0 l 257
 196 0 l 257
 196 1023 l 257
 138 1023 l 257
1554 -344 m 257
 1554 -410 l 257
 1910 -410 l 257
 1910 -344 l 257
 1554 -344 l 257
EndSplineSet
EndChar

StartChar: question
Encoding: 63 63 525
GlifName: question
Width: 2048
VWidth: 0
GlyphClass: 2
Flags: W
LayerCount: 2
Fore
SplineSet
880 134 m 257
 880 0 l 257
 992 0 l 257
 992 134 l 257
 880 134 l 257
704 1519 m 257
 704 1426 l 257
 1340 1426 l 257
 1340 1519 l 257
 704 1519 l 257
1258 1514 m 257
 1258 966 l 257
 1344 966 l 257
 1344 1514 l 257
 1258 1514 l 257
880 1015 m 257
 880 948 l 257
 1344 948 l 257
 1344 1015 l 257
 880 1015 l 257
880 1011 m 257
 880 392 l 257
 976 392 l 257
 976 1011 l 257
 880 1011 l 257
EndSplineSet
EndChar

StartChar: questiondown
Encoding: 191 191 526
GlifName: questiondown
Width: 2048
VWidth: 0
GlyphClass: 2
Flags: W
LayerCount: 2
Fore
SplineSet
1168 1273 m 257
 1168 1519 l 257
 1110 1519 l 257
 1110 1272 l 257
 1168 1273 l 257
1344 0 m 257
 1344 61 l 257
 708 61 l 257
 708 0 l 257
 1344 0 l 257
764 5 m 257
 764 553 l 257
 704 553 l 257
 704 5 l 257
 764 5 l 257
1168 504 m 257
 1168 566 l 257
 704 566 l 257
 704 504 l 257
 1168 504 l 257
1168 508 m 257
 1168 1127 l 257
 1110 1127 l 257
 1110 508 l 257
 1168 508 l 257
EndSplineSet
EndChar

StartChar: quotedbl
Encoding: 34 34 527
GlifName: quotedbl
Width: 2048
VWidth: 0
GlyphClass: 2
Flags: W
LayerCount: 2
Fore
SplineSet
792 1326 m 257
 858 1326 l 257
 858 1574 l 257
 792 1574 l 257
 792 1326 l 257
1196 1326 m 257
 1256 1326 l 257
 1256 1574 l 257
 1196 1574 l 257
 1196 1326 l 257
EndSplineSet
EndChar

StartChar: quotedblbase
Encoding: 8222 8222 528
GlifName: quotedblbase
Width: 2048
VWidth: 0
GlyphClass: 2
Flags: W
LayerCount: 2
Fore
SplineSet
892 126 m 257
 892 8 l 257
 1001 8 l 257
 1001 126 l 257
 892 126 l 257
892 8 m 257
 822 -118 l 257
 876 -129 l 257
 1001 8 l 257
 892 8 l 257
1117 126 m 257
 1117 8 l 257
 1226 8 l 257
 1226 126 l 257
 1117 126 l 257
1117 8 m 257
 1047 -118 l 257
 1101 -129 l 257
 1226 8 l 257
 1117 8 l 257
EndSplineSet
EndChar

StartChar: quotedblleft
Encoding: 8220 8220 529
GlifName: quotedblleft
Width: 2048
VWidth: 0
GlyphClass: 2
Flags: W
LayerCount: 2
Fore
SplineSet
997 1953 m 257
 997 2067 l 257
 873 2067 l 257
 873 1953 l 257
 997 1953 l 257
948 2004 m 257
 1007 2144 l 257
 935 2174 l 257
 874 2069 l 257
 948 2004 l 257
1165 1953 m 257
 1165 2067 l 257
 1041 2067 l 257
 1041 1953 l 257
 1165 1953 l 257
1116 2004 m 257
 1175 2144 l 257
 1103 2174 l 257
 1042 2069 l 257
 1116 2004 l 257
EndSplineSet
EndChar

StartChar: quotedblright
Encoding: 8221 8221 530
GlifName: quotedblright
Width: 2048
VWidth: 0
GlyphClass: 2
Flags: W
LayerCount: 2
Fore
SplineSet
1046 2174 m 257
 1046 2060 l 257
 1170 2060 l 257
 1170 2174 l 257
 1046 2174 l 257
1096 2123 m 257
 1037 1983 l 257
 1108 1953 l 257
 1169 2058 l 257
 1096 2123 l 257
887 2174 m 257
 887 2060 l 257
 1011 2060 l 257
 1011 2174 l 257
 887 2174 l 257
937 2123 m 257
 878 1983 l 257
 949 1953 l 257
 1010 2058 l 257
 937 2123 l 257
EndSplineSet
EndChar

StartChar: quoteleft
Encoding: 8216 8216 531
GlifName: quoteleft
Width: 2048
VWidth: 0
GlyphClass: 2
Flags: W
LayerCount: 2
Fore
SplineSet
1074 1113 m 257
 1074 1278 l 257
 943 1278 l 257
 943 1117 l 257
 1074 1113 l 257
1039 1266 m 257
 1105 1475 l 257
 1035 1485 l 257
 949 1254 l 257
 1039 1266 l 257
EndSplineSet
EndChar

StartChar: quoteright
Encoding: 8217 8217 532
GlifName: quoteright
Width: 2048
VWidth: 0
GlyphClass: 2
Flags: W
LayerCount: 2
Fore
SplineSet
966 2168 m 257
 966 2056 l 257
 1082 2056 l 257
 1082 2168 l 257
 966 2168 l 257
1025 2140 m 257
 980 1927 l 257
 1034 1882 l 257
 1082 2056 l 257
 1025 2140 l 257
EndSplineSet
EndChar

StartChar: quotesinglbase
Encoding: 8218 8218 533
GlifName: quotesinglbase
Width: 2048
VWidth: 0
GlyphClass: 2
Flags: W
LayerCount: 2
Fore
SplineSet
1004 126 m 257
 1004 8 l 257
 1114 8 l 257
 1114 126 l 257
 1004 126 l 257
1004 8 m 257
 934 -118 l 257
 988 -129 l 257
 1114 8 l 257
 1004 8 l 257
EndSplineSet
EndChar

StartChar: quotesingle
Encoding: 39 39 534
GlifName: quotesingle
Width: 2048
VWidth: 0
GlyphClass: 2
Flags: W
LayerCount: 2
Fore
SplineSet
992 1496 m 257
 992 1317 l 257
 1056 1317 l 257
 1056 1496 l 257
 992 1496 l 257
EndSplineSet
EndChar

StartChar: r
Encoding: 114 114 535
GlifName: r
Width: 2048
VWidth: 0
GlyphClass: 2
Flags: W
AnchorPoint: "top" 940 1190 basechar 0
AnchorPoint: "base" 900 -86 basechar 0
LayerCount: 2
Fore
SplineSet
146 1023 m 257
 146 961 l 257
 1902 961 l 257
 1902 1023 l 257
 146 1023 l 257
872 989 m 257
 872 0 l 257
 932 0 l 257
 932 989 l 257
 872 989 l 257
1842 976 m 257
 1842 650 l 257
 1902 650 l 257
 1902 976 l 257
 1842 976 l 257
EndSplineSet
EndChar

StartChar: radical
Encoding: 8730 8730 537
GlifName: radical
Width: 2048
VWidth: 0
GlyphClass: 2
Flags: W
LayerCount: 2
Fore
SplineSet
1330 1390 m 257
 1134 117 l 257
 1200 117 l 257
 1396 1390 l 257
 1330 1390 l 257
696 620 m 257
 622 396 l 257
 676 391 l 257
 768 611 l 257
 696 620 l 257
697 620 m 257
 1134 117 l 257
 1200 117 l 257
 768 611 l 257
 697 620 l 257
EndSplineSet
EndChar

StartChar: registered
Encoding: 174 174 540
GlifName: registered
Width: 2048
VWidth: 0
GlyphClass: 2
Flags: W
LayerCount: 2
Fore
SplineSet
909 1032 m 257
 909 501 l 257
 946 501 l 257
 946 1032 l 257
 909 1032 l 257
934 1032 m 257
 934 994 l 257
 1163 994 l 257
 1163 1032 l 257
 934 1032 l 257
1134 1032 m 257
 1134 802 l 257
 1172 802 l 257
 1172 1032 l 257
 1134 1032 l 257
930 848 m 257
 930 801 l 257
 1168 801 l 257
 1168 848 l 257
 930 848 l 257
977 809 m 257
 1176 500 l 257
 1219 500 l 257
 1012 809 l 257
 977 809 l 257
553 1540 m 257
 553 0 l 257
 615 0 l 257
 615 1540 l 257
 553 1540 l 257
1433 1537 m 257
 1433 0 l 257
 1495 0 l 257
 1495 1537 l 257
 1433 1537 l 257
592 1538 m 257
 592 1478 l 257
 1464 1478 l 257
 1464 1538 l 257
 592 1538 l 257
588 61 m 257
 588 0 l 257
 1480 0 l 257
 1480 61 l 257
 588 61 l 257
EndSplineSet
EndChar

StartChar: rho
Encoding: 961 961 541
GlifName: rho
Width: 2048
VWidth: 0
GlyphClass: 2
Flags: W
LayerCount: 2
Fore
SplineSet
173 1203 m 257
 173 -406 l 257
 233 -406 l 257
 233 1203 l 257
 173 1203 l 257
225 1203 m 257
 225 1139 l 257
 1834 959 l 257
 1834 1023 l 257
 225 1203 l 257
215 62 m 257
 215 0 l 257
 1835 147 l 257
 1835 209 l 257
 215 62 l 257
1775 1022 m 257
 1775 157 l 257
 1835 157 l 257
 1835 1022 l 257
 1775 1022 l 257
EndSplineSet
EndChar

StartChar: ring
Encoding: 730 730 542
GlifName: ring
Width: 2048
VWidth: 0
GlyphClass: 2
Flags: W
LayerCount: 2
Fore
SplineSet
878 1302 m 257
 1168 1302 l 257
 1168 1049 l 257
 878 1049 l 257
 878 1302 l 257
844 1331 m 257
 844 1023 l 257
 1204 1023 l 257
 1204 1331 l 257
 844 1331 l 257
EndSplineSet
EndChar

StartChar: s
Encoding: 115 115 543
GlifName: s
Width: 2048
VWidth: 0
GlyphClass: 2
Flags: W
AnchorPoint: "top" 1052 1134 basechar 0
AnchorPoint: "base" 1064 -70 basechar 0
LayerCount: 2
Fore
SplineSet
207 1023 m 257
 207 964 l 257
 1840 964 l 257
 1840 1023 l 257
 207 1023 l 257
207 1023 m 257
 207 736 l 257
 268 736 l 257
 268 1023 l 257
 207 1023 l 257
208 59 m 257
 208 0 l 257
 1837 0 l 257
 1837 59 l 257
 208 59 l 257
1775 299 m 257
 1775 12 l 257
 1838 12 l 257
 1838 299 l 257
 1775 299 l 257
207 736 m 257
 1775 299 l 257
 1838 299 l 257
 268 736 l 257
 207 736 l 257
EndSplineSet
EndChar

StartChar: section
Encoding: 167 167 550
GlifName: section
Width: 2048
VWidth: 0
GlyphClass: 2
Flags: W
LayerCount: 2
Fore
SplineSet
638 1237 m 257
 638 1178 l 257
 1236 1178 l 257
 1236 1237 l 257
 638 1237 l 257
638 1237 m 257
 638 605 l 257
 701 605 l 257
 701 1237 l 257
 638 1237 l 257
675 -200 m 257
 675 -260 l 257
 1383 -260 l 257
 1383 -200 l 257
 675 -200 l 257
1350 -259 m 257
 1410 -259 l 257
 1410 95 l 257
 1350 95 l 257
 1350 -259 l 257
638 606 m 257
 1349 88 l 257
 1410 88 l 257
 696 606 l 257
 638 606 l 257
638 1626 m 257
 638 1566 l 257
 1236 1566 l 257
 1236 1626 l 257
 638 1626 l 257
638 1629 m 257
 638 1237 l 257
 701 1237 l 257
 701 1629 l 257
 638 1629 l 257
666 88 m 257
 666 39 l 257
 1374 39 l 257
 1374 88 l 257
 666 88 l 257
1349 88 m 257
 1410 88 l 257
 1410 442 l 257
 1349 442 l 257
 1349 88 l 257
638 1237 m 257
 1350 442 l 257
 1410 442 l 257
 701 1237 l 257
 638 1237 l 257
EndSplineSet
EndChar

StartChar: semicolon
Encoding: 59 59 551
GlifName: semicolon
Width: 2048
VWidth: 0
GlyphClass: 2
Flags: W
LayerCount: 2
Fore
SplineSet
956 164 m 257
 956 7 l 257
 1092 7 l 257
 1092 164 l 257
 956 164 l 257
1040 135 m 257
 998 -99 l 257
 1048 -148 l 257
 1090 26 l 257
 1040 135 l 257
956 503 m 257
 956 346 l 257
 1092 346 l 257
 1092 503 l 257
 956 503 l 257
EndSplineSet
EndChar

StartChar: seven
Encoding: 55 55 552
GlifName: seven
Width: 2048
VWidth: 0
GlyphClass: 2
Flags: W
LayerCount: 2
Fore
SplineSet
54 1495 m 257
 1929 1495 l 257
 1929 0 l 257
 1991 0 l 257
 1991 1557 l 257
 54 1557 l 257
 54 1495 l 257
EndSplineSet
Substitution2: "sinfScientificInferiorsinLatinlookup3 subtable" uni2087
Substitution2: "supsSuperscriptinLatinlookup16 subtable" uni2077
EndChar

StartChar: sigma
Encoding: 963 963 554
GlifName: sigma
Width: 2048
VWidth: 0
GlyphClass: 2
Flags: W
LayerCount: 2
Fore
SplineSet
51 1023 m 257
 38 0 l 257
 98 0 l 257
 111 1023 l 257
 51 1023 l 257
1518 1023 m 257
 1505 0 l 257
 1565 0 l 257
 1578 1023 l 257
 1518 1023 l 257
66 1023 m 257
 63 963 l 257
 2003 963 l 257
 2006 1023 l 257
 66 1023 l 257
59 60 m 257
 57 0 l 257
 1540 0 l 257
 1542 60 l 257
 59 60 l 257
EndSplineSet
EndChar

StartChar: sigma1
Encoding: 962 962 555
GlifName: sigmafinal
Width: 2048
VWidth: 0
GlyphClass: 2
Flags: W
LayerCount: 2
Fore
SplineSet
164 1023 m 257
 164 963 l 257
 1884 963 l 257
 1884 1023 l 257
 164 1023 l 257
166 984 m 257
 166 51 l 257
 226 53 l 257
 226 986 l 257
 166 984 l 257
203 113 m 257
 203 53 l 257
 1881 51 l 257
 1881 111 l 257
 203 113 l 257
1231 -264 m 257
 1231 -324 l 257
 1881 -324 l 257
 1881 -264 l 257
 1231 -264 l 257
1821 100 m 257
 1821 -284 l 257
 1881 -284 l 257
 1881 100 l 257
 1821 100 l 257
EndSplineSet
EndChar

StartChar: six
Encoding: 54 54 556
GlifName: six
Width: 2048
VWidth: 0
GlyphClass: 2
Flags: W
LayerCount: 2
Fore
SplineSet
41 1550 m 257
 41 201 l 257
 41 4 l 257
 2004 4 l 257
 2004 819 l 257
 103 819 l 257
 103 1488 l 257
 2009 1488 l 257
 2009 1550 l 257
 41 1550 l 257
1942 759 m 257
 1942 63 l 257
 109 63 l 257
 109 759 l 257
 1942 759 l 257
EndSplineSet
Substitution2: "sinfScientificInferiorsinLatinlookup3 subtable" uni2086
Substitution2: "supsSuperscriptinLatinlookup16 subtable" uni2076
EndChar

StartChar: slash
Encoding: 47 47 557
GlifName: slash
Width: 2048
VWidth: 0
GlyphClass: 2
Flags: W
LayerCount: 2
Fore
SplineSet
1266 1480 m 257
 679 10 l 257
 739 10 l 257
 1326 1480 l 257
 1266 1480 l 257
EndSplineSet
EndChar

StartChar: sterling
Encoding: 163 163 559
GlifName: sterling
Width: 2048
VWidth: 0
GlyphClass: 2
Flags: W
LayerCount: 2
Fore
SplineSet
947 1543 m 257
 947 1482 l 257
 1136 1482 l 257
 1136 1543 l 257
 947 1543 l 257
609 770 m 257
 609 705 l 257
 1335 705 l 257
 1335 770 l 257
 609 770 l 257
923 1542 m 257
 923 3 l 257
 999 3 l 257
 999 1542 l 257
 923 1542 l 257
713 72 m 257
 713 3 l 257
 1439 3 l 257
 1439 72 l 257
 713 72 l 257
EndSplineSet
EndChar

StartChar: summation
Encoding: 8721 8721 560
GlifName: summation
Width: 2048
VWidth: 0
GlyphClass: 2
Flags: W
LayerCount: 2
Fore
SplineSet
1216 830 m 257
 110 -34 l 257
 110 -112 l 257
 1216 746 l 257
 1216 830 l 257
1218 823 m 257
 128 1539 l 257
 129 1478 l 257
 1218 743 l 257
 1218 823 l 257
1874 1477 m 257
 1874 1537 l 257
 128 1537 l 257
 128 1477 l 257
 1874 1477 l 257
1812 -98 m 257
 1812 -38 l 257
 125 -38 l 257
 125 -98 l 257
 1812 -98 l 257
EndSplineSet
EndChar

StartChar: t
Encoding: 116 116 561
GlifName: t
Width: 2048
VWidth: 0
GlyphClass: 2
Flags: W
AnchorPoint: "top" 1012 1642 basechar 0
AnchorPoint: "base" 1020 -130 basechar 0
LayerCount: 2
Fore
SplineSet
976 1529 m 257
 976 0 l 257
 1036 0 l 257
 1036 1529 l 257
 976 1529 l 257
988 60 m 257
 988 0 l 257
 1892 0 l 257
 1892 60 l 257
 988 60 l 257
156 1023 m 257
 156 965 l 257
 1854 965 l 257
 1854 1023 l 257
 156 1023 l 257
EndSplineSet
EndChar

StartChar: tcaron
Encoding: 357 357 564
GlifName: tcaron
Width: 2048
VWidth: 0
GlyphClass: 2
Flags: W
AnchorPoint: "base" 1024 -78 basechar 0
LayerCount: 2
Fore
SplineSet
976 1529 m 257
 976 0 l 257
 1036 0 l 257
 1036 1529 l 257
 976 1529 l 257
988 60 m 257
 988 0 l 257
 1892 0 l 257
 1892 60 l 257
 988 60 l 257
156 1023 m 257
 156 965 l 257
 1854 965 l 257
 1854 1023 l 257
 156 1023 l 257
1166 1496 m 257
 1166 1317 l 257
 1228 1317 l 257
 1228 1496 l 257
 1166 1496 l 257
EndSplineSet
EndChar

StartChar: theta
Encoding: 952 952 567
GlifName: theta
Width: 2048
VWidth: 0
GlyphClass: 2
Flags: W
LayerCount: 2
Fore
SplineSet
143 838 m 257
 143 778 l 257
 1913 771 l 257
 1913 831 l 257
 143 838 l 257
153 1397 m 257
 1004 1480 l 257
 1894 1403 l 257
 1894 194 l 257
 998 101 l 257
 153 194 l 257
 153 1397 l 257
93 1425 m 257
 93 163 l 257
 1014 7 l 257
 1954 163 l 257
 1954 1431 l 257
 985 1559 l 257
 93 1425 l 257
EndSplineSet
EndChar

StartChar: thorn
Encoding: 254 254 569
GlifName: thorn
Width: 2048
VWidth: 0
GlyphClass: 2
Flags: W
AnchorPoint: "base" 776 -491 basechar 0
LayerCount: 2
Fore
SplineSet
154 1630 m 257
 154 -406 l 257
 212 -406 l 257
 212 1630 l 257
 154 1630 l 257
206 1012 m 257
 206 950 l 257
 1894 950 l 257
 1894 1012 l 257
 206 1012 l 257
192 63 m 257
 192 3 l 257
 1894 3 l 257
 1894 63 l 257
 192 63 l 257
1834 991 m 257
 1834 28 l 257
 1894 28 l 257
 1894 991 l 257
 1834 991 l 257
EndSplineSet
EndChar

StartChar: three
Encoding: 51 51 570
GlifName: three
Width: 2048
VWidth: 0
GlyphClass: 2
Flags: W
LayerCount: 2
Fore
SplineSet
101 736 m 257
 1927 736 l 257
 1927 52 l 257
 59 52 l 257
 68 -8 l 257
 1987 -8 l 257
 1987 1550 l 257
 89 1550 l 257
 89 1493 l 257
 1925 1493 l 257
 1925 796 l 257
 101 796 l 257
 101 736 l 257
EndSplineSet
Substitution2: "sinfScientificInferiorsinLatinlookup3 subtable" uni2083
Substitution2: "supsSuperscriptinLatinlookup16 subtable" uni00B3
EndChar

StartChar: tilde
Encoding: 732 732 573
GlifName: tilde
Width: 2048
VWidth: 0
GlyphClass: 2
Flags: W
LayerCount: 2
Fore
SplineSet
878 279 m 257
 878 229 l 257
 1228 158 l 257
 1228 208 l 257
 878 279 l 257
638 223 m 257
 652 165 l 257
 878 229 l 257
 878 279 l 257
 638 223 l 257
1228 208 m 257
 1228 158 l 257
 1410 309 l 257
 1396 356 l 257
 1228 208 l 257
EndSplineSet
EndChar

StartChar: tildecomb
Encoding: 771 771 574
GlifName: tildecomb
Width: 0
VWidth: 0
GlyphClass: 4
Flags: W
AnchorPoint: "top" 0 772 mark 0
LayerCount: 2
Fore
SplineSet
-183 889 m 257
 -183 839 l 257
 167 768 l 257
 167 818 l 257
 -183 889 l 257
-423 833 m 257
 -409 775 l 257
 -183 839 l 257
 -183 889 l 257
 -423 833 l 257
167 818 m 257
 167 768 l 257
 349 919 l 257
 335 966 l 257
 167 818 l 257
EndSplineSet
EndChar

StartChar: tonos
Encoding: 900 900 575
GlifName: tonos
Width: 2048
VWidth: 0
GlyphClass: 2
Flags: W
AnchorPoint: "top" -1 785 mark 0
LayerCount: 2
Fore
SplineSet
1116 1074 m 257
 986 820 l 257
 1023 789 l 257
 1154 1044 l 257
 1116 1074 l 257
EndSplineSet
EndChar

StartChar: triagdn
Encoding: 9660 9660 577
GlifName: downB_lackT_riangle
Width: 2048
VWidth: 0
GlyphClass: 2
Flags: W
LayerCount: 2
Fore
SplineSet
1028 332 m 257
 1444 1021 l 257
 620 1024 l 257
 1028 332 l 257
EndSplineSet
EndChar

StartChar: triagup
Encoding: 9650 9650 578
GlifName: upB_lackT_riangle
Width: 2048
VWidth: 0
GlyphClass: 2
Flags: W
LayerCount: 2
Fore
SplineSet
1013 1039 m 257
 600 369 l 257
 1421 347 l 257
 1013 1039 l 257
EndSplineSet
EndChar

StartChar: two
Encoding: 50 50 579
GlifName: two
Width: 2048
VWidth: 0
GlyphClass: 2
Flags: W
LayerCount: 2
Fore
SplineSet
109 1484 m 257
 1882 1484 l 257
 1882 908 l 257
 116 908 l 257
 116 0 l 257
 1928 0 l 257
 1928 59 l 257
 176 59 l 257
 176 849 l 257
 1942 849 l 257
 1942 1544 l 257
 109 1544 l 257
 109 1484 l 257
EndSplineSet
Substitution2: "sinfScientificInferiorsinLatinlookup3 subtable" uni2082
Substitution2: "supsSuperscriptinLatinlookup16 subtable" uni00B2
EndChar

StartChar: u
Encoding: 117 117 581
GlifName: u
Width: 2048
VWidth: 0
GlyphClass: 2
Flags: W
AnchorPoint: "top" 872 1150 basechar 0
AnchorPoint: "base" 896 -62 basechar 0
LayerCount: 2
Fore
SplineSet
138 1034 m 257
 138 0 l 257
 198 0 l 257
 198 1034 l 257
 138 1034 l 257
1512 1033 m 257
 1512 4 l 257
 1570 4 l 257
 1570 1033 l 257
 1512 1033 l 257
184 61 m 257
 184 0 l 257
 1910 0 l 257
 1910 61 l 257
 184 61 l 257
EndSplineSet
EndChar

StartChar: underscore
Encoding: 95 95 590
GlifName: underscore
Width: 2048
VWidth: 0
GlyphClass: 2
Flags: W
LayerCount: 2
Fore
SplineSet
0 0 m 257
 0 -40 l 257
 2048 -40 l 257
 2048 0 l 257
 0 0 l 257
EndSplineSet
EndChar

StartChar: uni0000
Encoding: 0 0 591
GlifName: _notdef
Width: 2048
VWidth: 0
GlyphClass: 2
Flags: W
LayerCount: 2
Fore
SplineSet
463 -16 m 257
 1461 -16 l 257
 1461 1624 l 257
 463 1624 l 257
 463 -16 l 257
537 64 m 257
 537 1546 l 257
 930 827 l 257
 537 64 l 257
629 64 m 257
 968 750 l 257
 1309 64 l 257
 629 64 l 257
657 1558 m 257
 1288 1558 l 257
 970 909 l 257
 657 1558 l 257
1008 832 m 257
 1384 1559 l 257
 1384 64 l 257
 1008 832 l 257
EndSplineSet
EndChar

StartChar: uni0182
Encoding: 386 386 599
GlifName: B_topbar
Width: 2048
VWidth: 0
GlyphClass: 2
Flags: W
AnchorPoint: "top" 554 1637 basechar 0
AnchorPoint: "base" 574 -27 basechar 0
LayerCount: 2
Fore
SplineSet
114 0 m 257
 171 0 l 257
 171 1553 l 257
 114 1553 l 257
 114 0 l 257
1065 62 m 257
 1065 0 l 257
 1933 434 l 257
 1933 500 l 257
 1065 62 l 257
1069 719 m 257
 1934 430 l 257
 1934 501 l 257
 1069 781 l 257
 1069 719 l 257
159 781 m 257
 159 721 l 257
 1069 721 l 257
 1069 781 l 257
 159 781 l 257
155 62 m 257
 155 0 l 257
 1065 0 l 257
 1065 62 l 257
 155 62 l 257
150 1553 m 257
 150 1494 l 257
 1933 1494 l 257
 1933 1553 l 257
 150 1553 l 257
EndSplineSet
EndChar

StartChar: uni018F
Encoding: 399 399 607
GlifName: uni018F_
Width: 2048
VWidth: 0
GlyphClass: 2
Flags: W
AnchorPoint: "top" 980 1614 basechar 0
AnchorPoint: "base" 1026 -101 basechar 0
LayerCount: 2
Fore
SplineSet
1828 0 m 257
 1828 60 l 257
 265 60 l 257
 265 0 l 257
 1828 0 l 257
1862 0 m 257
 1862 1543 l 257
 1802 1543 l 257
 1802 0 l 257
 1862 0 l 257
1809 1483 m 257
 1809 1543 l 257
 170 1543 l 257
 170 1483 l 257
 1809 1483 l 257
1808 808 m 257
 1808 868 l 257
 130 868 l 257
 130 808 l 257
 1808 808 l 257
327 30 m 257
 167 869 l 257
 107 869 l 257
 267 30 l 257
 327 30 l 257
EndSplineSet
EndChar

StartChar: uni0190
Encoding: 400 400 608
GlifName: E_open
Width: 2048
VWidth: 0
GlyphClass: 2
Flags: W
AnchorPoint: "base" 1008 -125 basechar 0
AnchorPoint: "top" 1040 1641 basechar 0
LayerCount: 2
Fore
SplineSet
103 1542 m 257
 306 860 l 257
 366 859 l 257
 163 1541 l 257
 103 1542 l 257
146 1541 m 257
 146 1481 l 257
 1924 1481 l 257
 1924 1541 l 257
 146 1541 l 257
158 60 m 257
 158 0 l 257
 1940 0 l 257
 1940 60 l 257
 158 60 l 257
366 861 m 257
 366 801 l 257
 1181 801 l 257
 1181 861 l 257
 366 861 l 257
307 804 m 257
 103 0 l 257
 164 0 l 257
 367 803 l 257
 307 804 l 257
EndSplineSet
EndChar

StartChar: uni0194
Encoding: 404 404 611
GlifName: G_amma_latin
Width: 2048
VWidth: 0
GlyphClass: 2
Flags: W
LayerCount: 2
Fore
SplineSet
221 1543 m 257
 1464 -158 l 257
 1524 -158 l 257
 281 1543 l 257
 221 1543 l 257
1754 1543 m 257
 730 -158 l 257
 790 -158 l 257
 1815 1543 l 257
 1754 1543 l 257
731 -217 m 257
 1525 -218 l 257
 1525 -158 l 257
 731 -158 l 257
 731 -217 l 257
EndSplineSet
EndChar

StartChar: uni0196
Encoding: 406 406 612
GlifName: I_ota_latin
Width: 2048
VWidth: 0
GlyphClass: 2
Flags: W
AnchorPoint: "top" 854 1627 basechar 0
AnchorPoint: "base" 1104 -78 basechar 0
LayerCount: 2
Fore
SplineSet
808 1543 m 257
 808 107 l 257
 868 107 l 257
 868 1543 l 257
 808 1543 l 257
808 172 m 257
 808 106 l 257
 1816 6 l 257
 1816 72 l 257
 808 172 l 257
EndSplineSet
EndChar

StartChar: uni0198
Encoding: 408 408 614
GlifName: K_hook
Width: 2048
VWidth: 0
GlyphClass: 2
Flags: W
LayerCount: 2
Fore
SplineSet
166 1553 m 257
 166 5 l 257
 226 5 l 257
 226 1553 l 257
 166 1553 l 257
224 1015 m 257
 224 944 l 257
 1762 1550 l 257
 1692 1550 l 257
 224 1015 l 257
224 934 m 257
 204 844 l 257
 1746 0 l 257
 1796 0 l 257
 224 934 l 257
2053 1706 m 257
 2009 1776 l 257
 1811 1661 l 257
 1854 1591 l 257
 2053 1706 l 257
1892 1648 m 257
 1842 1680 l 257
 1693 1550 l 257
 1757 1550 l 257
 1892 1648 l 257
EndSplineSet
EndChar

StartChar: uni019C
Encoding: 412 412 618
GlifName: M_turned
Width: 2048
VWidth: 0
GlyphClass: 2
Flags: W
AnchorPoint: "base" 1062 -96 basechar 0
AnchorPoint: "top" 1076 1078 basechar 0
LayerCount: 2
Fore
SplineSet
1714 30 m 257
 1714 1546 l 257
 1654 1546 l 257
 1654 30 l 257
 1714 30 l 257
1018 51 m 257
 1018 1546 l 257
 958 1546 l 257
 958 51 l 257
 1018 51 l 257
120 47 m 257
 120 1546 l 257
 60 1546 l 257
 60 47 l 257
 120 47 l 257
1988 0 m 257
 1988 57 l 257
 60 57 l 257
 60 0 l 257
 1988 0 l 257
EndSplineSet
EndChar

StartChar: uni019F
Encoding: 415 415 620
GlifName: O_barred
Width: 2048
VWidth: 0
GlyphClass: 2
Flags: W
AnchorPoint: "top" 1131 1686 basechar 0
AnchorPoint: "base" 1040 -114 basechar 0
LayerCount: 2
Fore
SplineSet
112 1553 m 257
 112 0 l 257
 171 0 l 257
 171 1553 l 257
 112 1553 l 257
1877 1553 m 257
 1877 0 l 257
 1936 0 l 257
 1936 1553 l 257
 1877 1553 l 257
150 1553 m 257
 150 1493 l 257
 1906 1493 l 257
 1906 1553 l 257
 150 1553 l 257
152 61 m 257
 152 0 l 257
 1914 0 l 257
 1914 61 l 257
 152 61 l 257
145.711 793 m 257
 145.711 733 l 257
 1883.81 733 l 257
 1883.81 793 l 257
 145.711 793 l 257
EndSplineSet
EndChar

StartChar: uni01A4
Encoding: 420 420 621
GlifName: P_hook
Width: 2048
VWidth: 0
GlyphClass: 2
Flags: W
HStem: 1472 63<333 333 333 392 333 2042>
AnchorPoint: "base" 1436 -76 basechar 0
AnchorPoint: "top" 1187 1651 basechar 0
LayerCount: 2
Fore
SplineSet
333 1535 m 257
 333 0 l 257
 392 0 l 257
 392 1535 l 257
 333 1535 l 257
332 1550 m 257
 332 1472 l 257
 2042 1472 l 257
 2042 1550 l 257
 332 1550 l 257
1981 1536 m 257
 1981 872 l 257
 2042 872 l 257
 2042 1536 l 257
 1981 1536 l 257
377 931 m 257
 377 871 l 257
 2015 871 l 257
 2015 931 l 257
 377 931 l 257
55 1396 m 257
 222 1403 l 257
 222 1551 l 257
 55 1544 l 257
 55 1396 l 257
130 1482 m 257
 323 1448 l 257
 391 1543 l 257
 197 1543 l 257
 130 1482 l 257
EndSplineSet
PickledDataWithLists: "(dp0
Vcom.fontlab.hintData
p1
(dp2
Vhhints
p3
(lp4
(dp5
Vposition
p6
I1472
sVwidth
p7
I63
sass."
EndChar

StartChar: uni01A9
Encoding: 425 425 623
GlifName: E_sh
Width: 2048
VWidth: 0
GlyphClass: 2
Flags: W
LayerCount: 2
Fore
SplineSet
1216 928 m 257
 110 64 l 257
 110 -14 l 257
 1216 844 l 257
 1216 928 l 257
1218 921 m 257
 128 1539 l 257
 129 1478 l 257
 1218 841 l 257
 1218 921 l 257
1874 1477 m 257
 1874 1537 l 257
 128 1537 l 257
 128 1477 l 257
 1874 1477 l 257
1812 0 m 257
 1812 60 l 257
 125 60 l 257
 125 0 l 257
 1812 0 l 257
EndSplineSet
EndChar

StartChar: uni01AC
Encoding: 428 428 624
GlifName: T_hook
Width: 2048
VWidth: 0
GlyphClass: 2
Flags: W
AnchorPoint: "top" 1208 1654 basechar 0
AnchorPoint: "base" 1192 -62 basechar 0
LayerCount: 2
Fore
SplineSet
228 1553 m 257
 228 1494 l 257
 2036 1494 l 257
 2036 1553 l 257
 228 1553 l 257
1099 1512 m 257
 1099 12 l 257
 1159 12 l 257
 1159 1512 l 257
 1099 1512 l 257
555.777 1557.56 m 257
 136.787 1554.56 l 257
 137.216 1494.57 l 257
 554.205 1497.54 l 257
 555.777 1557.56 l 257
136.787 1554.56 m 257
 138.901 1258.57 l 257
 198.899 1259 l 257
 196.786 1554.99 l 257
 136.787 1554.56 l 257
EndSplineSet
EndChar

StartChar: uni01AD
Encoding: 429 429 625
GlifName: thook
Width: 2048
VWidth: 0
GlyphClass: 2
Flags: W
AnchorPoint: "top" 1012 1642 basechar 0
AnchorPoint: "base" 1020 -130 basechar 0
LayerCount: 2
Fore
SplineSet
976 1529 m 257
 976 0 l 257
 1036 0 l 257
 1036 1529 l 257
 976 1529 l 257
988 60 m 257
 988 0 l 257
 1892 0 l 257
 1892 60 l 257
 988 60 l 257
156 1023 m 257
 156 965 l 257
 1854 965 l 257
 1854 1023 l 257
 156 1023 l 257
1392.6 1546.42 m 257
 973.634 1541.24 l 257
 974.375 1481.25 l 257
 1391.34 1486.4 l 257
 1392.6 1546.42 l 257
973.634 1541.24 m 257
 977.288 1245.27 l 257
 1037.28 1246.01 l 257
 1033.63 1541.99 l 257
 973.634 1541.24 l 257
EndSplineSet
EndChar

StartChar: uni01AE
Encoding: 430 430 626
GlifName: T_retroflexhook
Width: 2048
VWidth: 0
GlyphClass: 2
Flags: W
AnchorPoint: "top" 1100 1654 basechar 0
AnchorPoint: "base" 1084 -62 basechar 0
LayerCount: 2
Fore
SplineSet
120 1553 m 257
 120 1494 l 257
 1928 1494 l 257
 1928 1553 l 257
 120 1553 l 257
991 1512 m 257
 991 12 l 257
 1051 12 l 257
 1051 1512 l 257
 991 1512 l 257
998 227 m 257
 998 -192 l 257
 1058 -192 l 257
 1058 225 l 257
 998 227 l 257
998 -192 m 257
 1294 -192 l 257
 1294 -132 l 257
 998 -132 l 257
 998 -192 l 257
EndSplineSet
EndChar

StartChar: uni01B1
Encoding: 433 433 627
GlifName: U_psilon_latin
Width: 2048
VWidth: 0
GlyphClass: 2
Flags: W
AnchorPoint: "top" 968 1630 basechar 0
LayerCount: 2
Fore
SplineSet
812 1455 m 257
 255 0 l 257
 315 0 l 257
 872 1455 l 257
 812 1455 l 257
1251 1455 m 257
 1741 0 l 257
 1801 0 l 257
 1311 1455 l 257
 1251 1455 l 257
313 56 m 257
 313 0 l 257
 1740 0 l 257
 1740 63 l 257
 313 56 l 257
1287 1455 m 257
 1291 1395 l 257
 2034 1395 l 257
 2030 1455 l 257
 1287 1455 l 257
89 1455 m 257
 88 1395 l 257
 823 1395 l 257
 824 1455 l 257
 89 1455 l 257
EndSplineSet
EndChar

StartChar: uni01B2
Encoding: 434 434 628
GlifName: V_hook
Width: 2048
VWidth: 0
GlyphClass: 2
Flags: W
AnchorPoint: "top" 1028 1118 basechar 0
AnchorPoint: "base" 1008 -74 basechar 0
LayerCount: 2
Fore
SplineSet
104 1623 m 257
 104 0 l 257
 160 0 l 257
 160 1623 l 257
 104 1623 l 257
1884 1623 m 257
 1884 0 l 257
 1946 0 l 257
 1946 1623 l 257
 1884 1623 l 257
1470 1623 m 257
 1470 1567 l 257
 1889 1567 l 257
 1889 1623 l 257
 1470 1623 l 257
150 62 m 257
 150 0 l 257
 1892 0 l 257
 1892 62 l 257
 150 62 l 257
EndSplineSet
EndChar

StartChar: uni01B7
Encoding: 439 439 631
GlifName: E_zh
Width: 2048
VWidth: 0
GlyphClass: 2
Flags: W
LayerCount: 2
Fore
SplineSet
1884 0 m 257
 1884 60 l 257
 164 60 l 257
 164 0 l 257
 1884 0 l 257
1882 39 m 257
 1886 889 l 257
 1825 889 l 257
 1821 39 l 257
 1882 39 l 257
1837 829 m 257
 1837 889 l 257
 174 889 l 257
 174 829 l 257
 1837 829 l 257
121 1544 m 257
 121 1484 l 257
 1973 1484 l 257
 1973 1544 l 257
 121 1544 l 257
1810 1484 m 257
 169 889 l 257
 392 889 l 257
 1973 1484 l 257
 1810 1484 l 257
EndSplineSet
EndChar

StartChar: uni01B8
Encoding: 440 440 632
GlifName: E_zhreversed
Width: 2048
VWidth: 0
GlyphClass: 2
Flags: W
LayerCount: 2
Fore
SplineSet
210 0 m 257
 1930 0 l 257
 1930 60 l 257
 210 60 l 257
 210 0 l 257
212 39 m 257
 273 39 l 257
 269 889 l 257
 208 889 l 257
 212 39 l 257
257 829 m 257
 1920 829 l 257
 1920 889 l 257
 257 889 l 257
 257 829 l 257
1973 1544 m 257
 121 1544 l 257
 121 1484 l 257
 1973 1484 l 257
 1973 1544 l 257
284 1484 m 257
 121 1484 l 257
 1702 889 l 257
 1925 889 l 257
 284 1484 l 257
EndSplineSet
EndChar

StartChar: uni01B9
Encoding: 441 441 633
GlifName: ezhreversed
Width: 2048
VWidth: 0
GlyphClass: 2
Flags: W
LayerCount: 2
Fore
SplineSet
210 0 m 257
 1930 0 l 257
 1930 60 l 257
 210 60 l 257
 210 0 l 257
212 39 m 257
 273 39 l 257
 269 619 l 257
 208 619 l 257
 212 39 l 257
257 559 m 257
 1920 559 l 257
 1920 619 l 257
 257 619 l 257
 257 559 l 257
1973 1274 m 257
 121 1274 l 257
 121 1214 l 257
 1973 1214 l 257
 1973 1274 l 257
284 1214 m 257
 121 1214 l 257
 1702 619 l 257
 1925 619 l 257
 284 1214 l 257
EndSplineSet
EndChar

StartChar: uni021C
Encoding: 540 540 712
GlifName: uni021C_
Width: 2048
VWidth: 0
GlyphClass: 2
Flags: W
LayerCount: 2
Fore
SplineSet
101 502 m 257
 1927 736 l 257
 1927 52 l 257
 59 -182 l 257
 68 -242 l 257
 1987 -8 l 257
 1987 1550 l 257
 89 1365 l 257
 89 1308 l 257
 1925 1493 l 257
 1925 796 l 257
 101 562 l 257
 101 502 l 257
EndSplineSet
EndChar

StartChar: uni021D
Encoding: 541 541 713
GlifName: uni021D_
Width: 2048
VWidth: 0
GlyphClass: 2
Flags: W
LayerCount: 2
Fore
SplineSet
101 93 m 257
 1927 327 l 257
 1927 -277 l 257
 59 -511 l 257
 68 -571 l 257
 1987 -337 l 257
 1987 1097 l 257
 89 912 l 257
 89 855 l 257
 1925 1040 l 257
 1925 387 l 257
 101 153 l 257
 101 93 l 257
EndSplineSet
EndChar

StartChar: uni0221
Encoding: 545 545 716
GlifName: dcurl
Width: 2048
VWidth: 0
GlyphClass: 2
Flags: W
AnchorPoint: "base" 974 -88 basechar 0
AnchorPoint: "top" 1840 1690 basechar 0
LayerCount: 2
Fore
SplineSet
1181 1546 m 257
 1181 -4 l 257
 1241 -4 l 257
 1241 1546 l 257
 1181 1546 l 257
102 1026 m 257
 102 966 l 257
 1238 966 l 257
 1238 1026 l 257
 102 1026 l 257
58 1023 m 257
 58 0 l 257
 118 0 l 257
 118 1023 l 257
 58 1023 l 257
98 59 m 257
 98 -4 l 257
 1898 -4 l 257
 1898 59 l 257
 98 59 l 257
1300 -122 m 257
 1399 -96 l 257
 1838 409 l 257
 1838 495 l 257
 1300 -122 l 257
1838 495 m 257
 1839 4 l 257
 1899 0 l 257
 1898 491 l 257
 1838 495 l 257
EndSplineSet
EndChar

StartChar: uni0222
Encoding: 546 546 717
GlifName: uni0222
Width: 2048
VWidth: 0
Flags: W
LayerCount: 2
Fore
SplineSet
107 1548 m 257
 105 838 l 257
 165 838 l 257
 167 1548 l 257
 107 1548 l 257
1880 1548 m 257
 1878 842 l 257
 1938 842 l 257
 1940 1548 l 257
 1880 1548 l 257
92 779 m 257
 90 722 l 257
 1958 719 l 257
 1956 783 l 257
 92 779 l 257
92 779 m 257
 85 24 l 257
 149 24 l 257
 149 779 l 257
 92 779 l 257
1897 780 m 257
 1903 0 l 257
 1965 3 l 257
 1956 783 l 257
 1897 780 l 257
84 60 m 257
 82 0 l 257
 1956 0 l 257
 1956 60 l 257
 84 60 l 257
1956 783 m 257
 103 929 l 257
 107 837 l 257
 1958 719 l 257
 1956 783 l 257
91 722 m 257
 1938 842 l 257
 1933 925 l 257
 92 780 l 257
 91 722 l 257
655 1548 m 257
 107 1548 l 257
 106 1489 l 257
 657 1488 l 257
 655 1548 l 257
1392 1487 m 257
 1939 1486 l 257
 1940 1548 l 257
 1390 1546 l 257
 1392 1487 l 257
EndSplineSet
EndChar

StartChar: uni0223
Encoding: 547 547 718
GlifName: uni0223
Width: 2048
VWidth: 0
Flags: W
LayerCount: 2
Fore
SplineSet
115 1552 m 257
 115 840 l 257
 175 840 l 257
 175 1552 l 257
 115 1552 l 257
1891 1552 m 257
 1888 844 l 257
 1948 844 l 257
 1951 1552 l 257
 1891 1552 l 257
102 779 m 257
 100 723 l 257
 1968 720 l 257
 1966 783 l 257
 102 779 l 257
102 779 m 257
 95 24 l 257
 159 24 l 257
 159 779 l 257
 102 779 l 257
1907 780 m 257
 1913 0 l 257
 1975 3 l 257
 1966 783 l 257
 1907 780 l 257
94 60 m 257
 92 0 l 257
 1966 0 l 257
 1966 60 l 257
 94 60 l 257
1966 783 m 257
 113 908 l 257
 117 839 l 257
 1968 720 l 257
 1966 783 l 257
101 723 m 257
 1948 844 l 257
 1943 904 l 257
 102 780 l 257
 101 723 l 257
EndSplineSet
EndChar

StartChar: uni0234
Encoding: 564 564 733
GlifName: lcurl
Width: 2048
VWidth: 0
GlyphClass: 2
Flags: W
AnchorPoint: "base" 1058 -72 basechar 0
AnchorPoint: "top" 1048 1642 basechar 0
LayerCount: 2
Fore
SplineSet
1063 129 m 257
 1063 57 l 257
 1854 340 l 257
 1854 412 l 257
 1063 129 l 257
1006 1553 m 257
 1006 57 l 257
 1063 57 l 257
 1063 1553 l 257
 1006 1553 l 257
268 1553 m 257
 268 1494 l 257
 1015 1494 l 257
 1015 1553 l 257
 268 1553 l 257
245 222 m 257
 245 150 l 257
 1858 352 l 257
 1858 424 l 257
 245 222 l 257
EndSplineSet
EndChar

StartChar: uni0235
Encoding: 565 565 734
GlifName: ncurl
Width: 2048
VWidth: 0
GlyphClass: 2
Flags: W
AnchorPoint: "base" 1190 -64 basechar 0
AnchorPoint: "top" 1212 1126 basechar 0
LayerCount: 2
Fore
SplineSet
394 990 m 257
 394 0 l 257
 455 0 l 257
 455 990 l 257
 394 990 l 257
1758 976 m 257
 1758 0 l 257
 1818 0 l 257
 1818 976 l 257
 1758 976 l 257
14 1027 m 257
 14 967 l 257
 1816 967 l 257
 1816 1027 l 257
 14 1027 l 257
1027 52 m 257
 1027 -8 l 257
 1960 366 l 257
 1960 426 l 257
 1027 52 l 257
1805 61 m 257
 1805 1 l 257
 2010 1 l 257
 2010 61 l 257
 1805 61 l 257
1959 428 m 257
 1959 0 l 257
 2019 0 l 257
 2019 428 l 257
 1959 428 l 257
EndSplineSet
EndChar

StartChar: uni0236
Encoding: 566 566 735
GlifName: tcurl
Width: 2048
VWidth: 0
GlyphClass: 2
Flags: W
AnchorPoint: "top" 1012 1642 basechar 0
AnchorPoint: "base" 1020 -130 basechar 0
LayerCount: 2
Fore
SplineSet
976 1529 m 257
 976 0 l 257
 1036 0 l 257
 1036 1529 l 257
 976 1529 l 257
988 60 m 257
 988 0 l 257
 1848 0 l 257
 1848 60 l 257
 988 60 l 257
156 1023 m 257
 156 965 l 257
 1854 965 l 257
 1854 1023 l 257
 156 1023 l 257
653 64 m 257
 653 6 l 257
 1851 497 l 257
 1851 555 l 257
 653 64 l 257
1851 -2 m 257
 1911 -2 l 257
 1911 556 l 257
 1851 556 l 257
 1851 -2 l 257
EndSplineSet
EndChar

StartChar: uni0237
Encoding: 567 567 736
GlifName: uni0237
Width: 2048
VWidth: 0
GlyphClass: 2
Flags: W
AnchorPoint: "top" 1827 1140 basechar 0
LayerCount: 2
Fore
SplineSet
1792 1023 m 257
 1792 -411 l 257
 1850 -411 l 257
 1850 1023 l 257
 1792 1023 l 257
198 -348 m 257
 198 -411 l 257
 1812 -411 l 257
 1812 -348 l 257
 198 -348 l 257
198 -6 m 257
 198 -378 l 257
 258 -378 l 257
 258 -6 l 257
 198 -6 l 257
EndSplineSet
EndChar

StartChar: uni0250
Encoding: 592 592 751
GlifName: aturned
Width: 2048
VWidth: 0
GlyphClass: 2
Flags: W
AnchorPoint: "top" 1032 -116 basechar 0
AnchorPoint: "base" 988 1100 basechar 0
LayerCount: 2
Fore
SplineSet
1886 3 m 257
 1886 69 l 257
 213 69 l 257
 213 3 l 257
 1886 3 l 257
251 3 m 257
 251 1083 l 257
 174 1083 l 257
 174 3 l 257
 251 3 l 257
1883 426 m 257
 1883 488 l 257
 235 488 l 257
 235 426 l 257
 1883 426 l 257
1882 449 m 257
 1882 1026 l 257
 1811 1026 l 257
 1811 449 l 257
 1882 449 l 257
1873 952 m 257
 1873 1026 l 257
 185 1026 l 257
 185 952 l 257
 1873 952 l 257
EndSplineSet
EndChar

StartChar: uni0251
Encoding: 593 593 752
GlifName: alpha_latin
Width: 2048
VWidth: 0
GlyphClass: 2
Flags: W
AnchorPoint: "top" 1028 1118 basechar 0
AnchorPoint: "base" 1008 -74 basechar 0
LayerCount: 2
Fore
SplineSet
104 1023 m 257
 104 0 l 257
 160 0 l 257
 160 1023 l 257
 104 1023 l 257
1884 1116 m 257
 1884 -127 l 257
 1946 -127 l 257
 1946 1116 l 257
 1884 1116 l 257
152 1023 m 257
 152 967 l 257
 1889 967 l 257
 1889 1023 l 257
 152 1023 l 257
150 62 m 257
 150 0 l 257
 1892 0 l 257
 1892 62 l 257
 150 62 l 257
EndSplineSet
EndChar

StartChar: uni0254
Encoding: 596 596 754
GlifName: oopen
Width: 2048
VWidth: 0
GlyphClass: 2
Flags: W
AnchorPoint: "base" 998 -84 basechar 0
AnchorPoint: "top" 972 1134 basechar 0
LayerCount: 2
Fore
SplineSet
1884 0 m 257
 1884 60 l 257
 164 60 l 257
 164 0 l 257
 1884 0 l 257
1882 43 m 257
 1882 1027 l 257
 1822 1027 l 257
 1822 43 l 257
 1882 43 l 257
1834 967 m 257
 1834 1027 l 257
 170 1027 l 257
 170 967 l 257
 1834 967 l 257
EndSplineSet
EndChar

StartChar: uni0259
Encoding: 601 601 757
GlifName: uni0259
Width: 2048
VWidth: 0
GlyphClass: 2
Flags: W
AnchorPoint: "top" 1020 1142 basechar 0
AnchorPoint: "base" 1064 -74 basechar 0
LayerCount: 2
Fore
SplineSet
1828 0 m 257
 1828 60 l 257
 240 127 l 257
 240 67 l 257
 1828 0 l 257
1837 0 m 257
 1837 1023 l 257
 1777 1023 l 257
 1777 0 l 257
 1837 0 l 257
1776 963 m 257
 1776 1023 l 257
 170 1023 l 257
 170 963 l 257
 1776 963 l 257
1808 517 m 257
 1808 577 l 257
 194 577 l 257
 194 517 l 257
 1808 517 l 257
302 97 m 257
 231 578 l 257
 171 578 l 257
 242 97 l 257
 302 97 l 257
EndSplineSet
EndChar

StartChar: uni025B
Encoding: 603 603 758
GlifName: eopen
Width: 2048
VWidth: 0
GlyphClass: 2
Flags: W
AnchorPoint: "top" 989 1225 basechar 0
AnchorPoint: "base" 1028 -56 basechar 0
LayerCount: 2
Fore
SplineSet
103 1140 m 257
 202 599 l 257
 262 598 l 257
 163 1139 l 257
 103 1140 l 257
146 1139 m 257
 146 1079 l 257
 1924 1079 l 257
 1924 1139 l 257
 146 1139 l 257
158 60 m 257
 158 0 l 257
 1940 0 l 257
 1940 60 l 257
 158 60 l 257
262 600 m 257
 262 540 l 257
 1181 540 l 257
 1181 600 l 257
 262 600 l 257
203 543 m 257
 103 0 l 257
 164 0 l 257
 263 542 l 257
 203 543 l 257
EndSplineSet
EndChar

StartChar: uni0263
Encoding: 611 611 762
GlifName: gamma_latin
Width: 2048
VWidth: 0
GlyphClass: 2
Flags: W
LayerCount: 2
Fore
SplineSet
221 935 m 257
 1464 -158 l 257
 1524 -158 l 257
 281 935 l 257
 221 935 l 257
1754 965 m 257
 730 -158 l 257
 790 -158 l 257
 1815 965 l 257
 1754 965 l 257
731 -217 m 257
 1525 -218 l 257
 1525 -158 l 257
 731 -158 l 257
 731 -217 l 257
EndSplineSet
EndChar

StartChar: uni0264
Encoding: 612 612 763
GlifName: ramshorn
Width: 2048
VWidth: 0
GlyphClass: 2
Flags: W
AnchorPoint: "top" 1042 1141 basechar 0
LayerCount: 2
Fore
SplineSet
221 935 m 257
 1464 202 l 257
 1524 202 l 257
 281 935 l 257
 221 935 l 257
1754 965 m 257
 730 202 l 257
 790 202 l 257
 1815 965 l 257
 1754 965 l 257
731 143 m 257
 1525 142 l 257
 1525 202 l 257
 731 202 l 257
 731 143 l 257
EndSplineSet
EndChar

StartChar: uni0269
Encoding: 617 617 767
GlifName: iota_latin
Width: 2048
VWidth: 0
GlyphClass: 2
Flags: W
AnchorPoint: "top" 492 1191 basechar 0
LayerCount: 2
Fore
SplineSet
808 1018 m 257
 808 107 l 257
 868 107 l 257
 868 1018 l 257
 808 1018 l 257
808 172 m 257
 808 106 l 257
 1816 6 l 257
 1816 72 l 257
 808 172 l 257
EndSplineSet
EndChar

StartChar: uni026A
Encoding: 618 618 768
GlifName: icapitalsmall
Width: 2048
VWidth: 0
GlyphClass: 2
Flags: W
AnchorPoint: "top" 1094 1645 basechar 0
AnchorPoint: "base" 1104 -78 basechar 0
LayerCount: 2
Fore
SplineSet
154 1032 m 257
 154 971 l 257
 1879 971 l 257
 1879 1032 l 257
 154 1032 l 257
1058 997 m 257
 1058 34 l 257
 1117 34 l 257
 1117 997 l 257
 1058 997 l 257
134 66 m 257
 134 6 l 257
 1914 6 l 257
 1914 66 l 257
 134 66 l 257
EndSplineSet
EndChar

StartChar: uni026C
Encoding: 620 620 770
GlifName: uni026C_
Width: 2048
VWidth: 0
Flags: W
AnchorPoint: "base" 1058 -72 basechar 0
AnchorPoint: "top" 1048 1642 basechar 0
LayerCount: 2
Fore
SplineSet
579 675 m 257
 579 615 l 257
 1398 615 l 257
 1398 675 l 257
 579 675 l 257
579 1026 m 257
 579 615 l 257
 639 615 l 257
 639 1026 l 257
 579 1026 l 257
579 1026 m 257
 579 967 l 257
 1016 967 l 257
 1016 1026 l 257
 579 1026 l 257
207 72 m 257
 207 0 l 257
 1841 0 l 257
 1841 72 l 257
 207 72 l 257
1006 1553 m 257
 1006 57 l 257
 1066 57 l 257
 1066 1553 l 257
 1006 1553 l 257
268 1553 m 257
 268 1494 l 257
 1015 1494 l 257
 1015 1553 l 257
 268 1553 l 257
EndSplineSet
EndChar

StartChar: uni0275
Encoding: 629 629 773
GlifName: obarred
Width: 2048
VWidth: 0
GlyphClass: 2
Flags: W
AnchorPoint: "top" 1070 1118 basechar 0
AnchorPoint: "base" 1008 -74 basechar 0
LayerCount: 2
Fore
SplineSet
104 1023 m 257
 104 0 l 257
 160 0 l 257
 160 1023 l 257
 104 1023 l 257
1884 1023 m 257
 1884 0 l 257
 1946 0 l 257
 1946 1023 l 257
 1884 1023 l 257
152 1023 m 257
 152 967 l 257
 1889 967 l 257
 1889 1023 l 257
 152 1023 l 257
150 62 m 257
 150 0 l 257
 1892 0 l 257
 1892 62 l 257
 150 62 l 257
141.109 616 m 257
 141.109 556 l 257
 1908.77 556 l 257
 1908.77 616 l 257
 141.109 616 l 257
EndSplineSet
EndChar

StartChar: uni027F
Encoding: 639 639 775
GlifName: rfishhookreversed
Width: 2048
VWidth: 0
GlyphClass: 2
Flags: W
AnchorPoint: "top" 940 1190 basechar 0
AnchorPoint: "base" 900 -86 basechar 0
LayerCount: 2
Fore
SplineSet
146 1023 m 257
 146 961 l 257
 1649 961 l 257
 1649 1023 l 257
 146 1023 l 257
1589 1023 m 257
 1589 -458 l 257
 1649 -458 l 257
 1649 1023 l 257
 1589 1023 l 257
EndSplineSet
EndChar

StartChar: uni0283
Encoding: 643 643 776
GlifName: esh
Width: 2048
VWidth: 0
GlyphClass: 2
Flags: W
LayerCount: 2
Fore
SplineSet
1046 1641 m 257
 823 -390 l 257
 890 -390 l 257
 1113 1641 l 257
 1046 1641 l 257
351 -339 m 257
 351 -390 l 257
 890 -390 l 257
 890 -339 l 257
 351 -339 l 257
1064 1639 m 257
 1064 1573 l 257
 1778 1572 l 257
 1778 1638 l 257
 1064 1639 l 257
EndSplineSet
EndChar

StartChar: uni0285
Encoding: 645 645 777
GlifName: eshsquatreversed
Width: 2048
VWidth: 0
GlyphClass: 2
Flags: W
LayerCount: 2
Fore
SplineSet
837 1001 m 257
 1005 -399 l 257
 1072 -399 l 257
 904 1001 l 257
 837 1001 l 257
1013 -352 m 257
 1013 -403 l 257
 1734 -403 l 257
 1734 -352 l 257
 1013 -352 l 257
195 1002 m 257
 195 936 l 257
 892 935 l 257
 892 1001 l 257
 195 1002 l 257
EndSplineSet
EndChar

StartChar: uni0288
Encoding: 648 648 778
GlifName: tretroflexhook
Width: 2048
VWidth: 0
GlyphClass: 2
Flags: W
AnchorPoint: "top" 1012 1642 basechar 0
AnchorPoint: "base" 1041 -535 basechar 0
LayerCount: 2
Fore
SplineSet
976 1529 m 257
 976 -423 l 257
 1036 -423 l 257
 1036 1529 l 257
 976 1529 l 257
988 -363 m 257
 988 -423 l 257
 1892 -423 l 257
 1892 -363 l 257
 988 -363 l 257
156 1023 m 257
 156 965 l 257
 1854 965 l 257
 1854 1023 l 257
 156 1023 l 257
EndSplineSet
EndChar

StartChar: uni028A
Encoding: 650 650 780
GlifName: upsilon_latin
Width: 2048
VWidth: 0
GlyphClass: 2
Flags: W
AnchorPoint: "top" 1028 1132 basechar 0
LayerCount: 2
Fore
SplineSet
812 1023 m 257
 255 0 l 257
 315 0 l 257
 872 1023 l 257
 812 1023 l 257
1251 1023 m 257
 1741 0 l 257
 1801 0 l 257
 1311 1023 l 257
 1251 1023 l 257
313 56 m 257
 313 0 l 257
 1740 0 l 257
 1740 63 l 257
 313 56 l 257
1287 1023 m 257
 1291 963 l 257
 2034 963 l 257
 2030 1023 l 257
 1287 1023 l 257
89 1023 m 257
 88 963 l 257
 823 963 l 257
 824 1023 l 257
 89 1023 l 257
EndSplineSet
EndChar

StartChar: uni028B
Encoding: 651 651 781
GlifName: vhook
Width: 2048
VWidth: 0
GlyphClass: 2
Flags: W
AnchorPoint: "top" 1028 1118 basechar 0
AnchorPoint: "base" 1008 -74 basechar 0
LayerCount: 2
Fore
SplineSet
104 1023 m 257
 104 0 l 257
 160 0 l 257
 160 1023 l 257
 104 1023 l 257
1884 1023 m 257
 1884 0 l 257
 1946 0 l 257
 1946 1023 l 257
 1884 1023 l 257
1470 1023 m 257
 1470 967 l 257
 1889 967 l 257
 1889 1023 l 257
 1470 1023 l 257
150 62 m 257
 150 0 l 257
 1892 0 l 257
 1892 62 l 257
 150 62 l 257
EndSplineSet
EndChar

StartChar: uni0292
Encoding: 658 658 783
GlifName: ezh
Width: 2048
VWidth: 0
GlyphClass: 2
Flags: W
LayerCount: 2
Fore
SplineSet
1884 0 m 257
 1884 60 l 257
 164 60 l 257
 164 0 l 257
 1884 0 l 257
1882 39 m 257
 1886 619 l 257
 1825 619 l 257
 1821 39 l 257
 1882 39 l 257
1837 559 m 257
 1837 619 l 257
 174 619 l 257
 174 559 l 257
 1837 559 l 257
121 1274 m 257
 121 1214 l 257
 1973 1214 l 257
 1973 1274 l 257
 121 1274 l 257
1810 1214 m 257
 169 619 l 257
 392 619 l 257
 1973 1214 l 257
 1810 1214 l 257
EndSplineSet
EndChar

StartChar: uni0294
Encoding: 660 660 784
GlifName: glottalstop
Width: 2048
VWidth: 0
GlyphClass: 2
Flags: W
LayerCount: 2
Fore
SplineSet
804 1543 m 257
 804 1483 l 257
 1332 1483 l 257
 1332 1543 l 257
 804 1543 l 257
1272 1543 m 257
 1272 1028 l 257
 1332 1028 l 257
 1332 1543 l 257
 1272 1543 l 257
872 1073 m 257
 872 1013 l 257
 1332 1013 l 257
 1332 1073 l 257
 872 1073 l 257
859 1073 m 257
 859 167 l 257
 919 167 l 257
 919 1073 l 257
 859 1073 l 257
EndSplineSet
EndChar

StartChar: uni0295
Encoding: 661 661 785
GlifName: glottalstopreversed
Width: 2048
VWidth: 0
GlyphClass: 2
Flags: W
LayerCount: 2
Fore
SplineSet
1332 1543 m 257
 804 1543 l 257
 804 1483 l 257
 1332 1483 l 257
 1332 1543 l 257
864 1543 m 257
 804 1543 l 257
 804 1028 l 257
 864 1028 l 257
 864 1543 l 257
1264 1073 m 257
 804 1073 l 257
 804 1013 l 257
 1264 1013 l 257
 1264 1073 l 257
1277 1073 m 257
 1217 1073 l 257
 1217 167 l 257
 1277 167 l 257
 1277 1073 l 257
EndSplineSet
EndChar

StartChar: uni029D
Encoding: 669 669 787
GlifName: jcrossedtail
Width: 2048
VWidth: 0
GlyphClass: 2
Flags: W
AnchorPoint: "top" 1786 1296 basechar 0
AnchorPoint: "base" 1006 -520 basechar 0
LayerCount: 2
Fore
SplineSet
1792 1023 m 257
 1792 -411 l 257
 1850 -411 l 257
 1850 1023 l 257
 1792 1023 l 257
198 -348 m 257
 198 -409 l 257
 1812 -409 l 257
 1812 -348 l 257
 198 -348 l 257
198 -6 m 257
 198 -378 l 257
 258 -378 l 257
 258 -6 l 257
 198 -6 l 257
1790 1201 m 257
 1790 1142 l 257
 1850 1142 l 257
 1850 1201 l 257
 1790 1201 l 257
201.056 -33 m 257
 2074.28 -33 l 257
 2074.28 45 l 257
 201.056 45 l 257
 201.056 -33 l 257
EndSplineSet
EndChar

StartChar: uni02C0
Encoding: 704 704 797
GlifName: glottalstopmod
Width: 2048
VWidth: 0
GlyphClass: 2
Flags: W
LayerCount: 2
Fore
SplineSet
804 1543 m 257
 804 1483 l 257
 1332 1483 l 257
 1332 1543 l 257
 804 1543 l 257
1272 1543 m 257
 1272 1028 l 257
 1332 1028 l 257
 1332 1543 l 257
 1272 1543 l 257
872 1073 m 257
 872 1013 l 257
 1332 1013 l 257
 1332 1073 l 257
 872 1073 l 257
859 1073 m 257
 859 572 l 257
 919 572 l 257
 919 1073 l 257
 859 1073 l 257
EndSplineSet
EndChar

StartChar: uni02C8
Encoding: 712 712 798
GlifName: verticallinemod
Width: 2048
VWidth: 0
GlyphClass: 2
Flags: W
LayerCount: 2
Fore
SplineSet
988 1827 m 257
 988 1029 l 257
 1051 1029 l 257
 1051 1827 l 257
 988 1827 l 257
EndSplineSet
EndChar

StartChar: uni02C9
Encoding: 713 713 799
GlifName: uni02C_9
Width: 2048
VWidth: 0
GlyphClass: 2
Flags: W
LayerCount: 2
Fore
SplineSet
744 1630 m 257
 744 1550 l 257
 1304 1550 l 257
 1304 1630 l 257
 744 1630 l 257
EndSplineSet
EndChar

StartChar: uni02CA
Encoding: 714 714 800
GlifName: uni02C_A_
Width: 2048
VWidth: 0
GlyphClass: 2
Flags: W
LayerCount: 2
Fore
SplineSet
1037 949 m 257
 958 764 l 257
 1011 730 l 257
 1090 915 l 257
 1037 949 l 257
EndSplineSet
EndChar

StartChar: uni02CB
Encoding: 715 715 801
GlifName: uni02C_B_
Width: 2048
VWidth: 0
GlyphClass: 2
Flags: W
LayerCount: 2
Fore
SplineSet
932 877 m 257
 1056 673 l 257
 1116 727 l 257
 992 932 l 257
 932 877 l 257
EndSplineSet
EndChar

StartChar: uni02CC
Encoding: 716 716 802
GlifName: verticallinelowmod
Width: 2048
VWidth: 0
GlyphClass: 2
Flags: W
LayerCount: 2
Fore
SplineSet
997 809 m 257
 997 11 l 257
 1060 11 l 257
 1060 809 l 257
 997 809 l 257
EndSplineSet
EndChar

StartChar: uni0302
Encoding: 770 770 805
GlifName: uni0302
Width: 0
VWidth: 0
GlyphClass: 4
Flags: W
AnchorPoint: "top" 2 787 mark 0
LayerCount: 2
Fore
SplineSet
7 1116 m 257
 -29 1116 l 257
 -161 806 l 257
 -134 789 l 257
 7 1116 l 257
-26 1118 m 257
 136 785 l 257
 177 803 l 257
 11 1118 l 257
 -26 1118 l 257
EndSplineSet
EndChar

StartChar: uni0304
Encoding: 772 772 806
GlifName: uni0304
Width: 0
VWidth: 0
GlyphClass: 4
Flags: W
AnchorPoint: "top" -1 773 mark 0
LayerCount: 2
Fore
SplineSet
-420 910 m 257
 -420 830 l 257
 420 830 l 257
 420 910 l 257
 -420 910 l 257
EndSplineSet
EndChar

StartChar: uni0305
Encoding: 773 773 807
GlifName: uni0305
Width: 0
VWidth: 0
GlyphClass: 4
Flags: W
AnchorPoint: "top" 18 1480 mark 0
LayerCount: 2
Fore
SplineSet
-425 1630 m 257
 -425 1550 l 257
 425 1550 l 257
 425 1630 l 257
 -425 1630 l 257
EndSplineSet
EndChar

StartChar: uni0306
Encoding: 774 774 808
GlifName: uni0306
Width: 0
VWidth: 0
GlyphClass: 4
Flags: W
AnchorPoint: "top" -3 782 mark 0
LayerCount: 2
Fore
SplineSet
157 898 m 257
 157 828 l 257
 322 898 l 257
 322 993 l 257
 157 898 l 257
-167 898 m 257
 -167 828 l 257
 157 828 l 257
 157 898 l 257
 -167 898 l 257
-338 978 m 257
 -338 898 l 257
 -167 828 l 257
 -167 898 l 257
 -338 978 l 257
EndSplineSet
EndChar

StartChar: uni0307
Encoding: 775 775 809
GlifName: uni0307
Width: 0
VWidth: 0
GlyphClass: 4
Flags: W
AnchorPoint: "top" 2 780 mark 0
LayerCount: 2
Fore
SplineSet
-53 892 m 257
 -53 791 l 257
 59 791 l 257
 59 892 l 257
 -53 892 l 257
EndSplineSet
EndChar

StartChar: uni0308
Encoding: 776 776 810
GlifName: uni0308
Width: 0
VWidth: 0
GlyphClass: 4
AnchorPoint: "top" 4 1592 mark 0
LayerCount: 2
Fore
SplineSet
-249 1738 m 257
 -249 1637 l 257
 -137 1637 l 257
 -137 1738 l 257
 -249 1738 l 257
162 1738 m 257
 162 1637 l 257
 274 1637 l 257
 274 1738 l 257
 162 1738 l 257
EndSplineSet
EndChar

StartChar: uni030A
Encoding: 778 778 811
GlifName: uni030A_
Width: 0
VWidth: 0
GlyphClass: 4
Flags: W
AnchorPoint: "top" -1 1536 mark 0
LayerCount: 2
Fore
SplineSet
-130 1799 m 257
 133 1799 l 257
 133 1591 l 257
 -130 1591 l 257
 -130 1799 l 257
-180 1847 m 257
 -180 1538 l 257
 180 1538 l 257
 180 1847 l 257
 -180 1847 l 257
EndSplineSet
EndChar

StartChar: uni030B
Encoding: 779 779 812
GlifName: uni030B_
Width: 0
VWidth: 0
GlyphClass: 4
AnchorPoint: "top" -6 766 mark 0
LayerCount: 2
Fore
SplineSet
-263 793 m 257
 -197 793 l 257
 -83 1041 l 257
 -149 1041 l 257
 -263 793 l 257
141 793 m 257
 201 793 l 257
 315 1041 l 257
 255 1041 l 257
 141 793 l 257
EndSplineSet
EndChar

StartChar: uni030C
Encoding: 780 780 813
GlifName: uni030C_
Width: 0
VWidth: 0
GlyphClass: 4
Flags: W
AnchorPoint: "top" -24 735 mark 0
LayerCount: 2
Fore
SplineSet
-1 804 m 257
 -142 1131 l 257
 -169 1114 l 257
 -37 805 l 257
 -1 804 l 257
-34 803 m 257
 3 803 l 257
 169 1118 l 257
 128 1136 l 257
 -34 803 l 257
EndSplineSet
EndChar

StartChar: uni030D
Encoding: 781 781 814
GlifName: verticallineabovecomb
Width: 0
VWidth: 0
GlyphClass: 4
Flags: W
AnchorPoint: "top" 0 964 mark 0
LayerCount: 2
Fore
SplineSet
-30 1561 m 257
 -30 1031 l 257
 30 1031 l 257
 30 1561 l 257
 -30 1561 l 257
EndSplineSet
EndChar

StartChar: uni030F
Encoding: 783 783 815
GlifName: uni030F_
Width: 0
VWidth: 0
GlyphClass: 4
Flags: W
AnchorPoint: "top" 4 785 mark 0
LayerCount: 2
Fore
SplineSet
-18 1003 m 257
 102 767 l 257
 129 813 l 257
 10 1050 l 257
 -18 1003 l 257
-236 1003 m 257
 -116 767 l 257
 -86 806 l 257
 -205 1043 l 257
 -236 1003 l 257
EndSplineSet
EndChar

StartChar: uni0311
Encoding: 785 785 817
GlifName: uni0311
Width: 0
VWidth: 0
GlyphClass: 4
Flags: W
AnchorPoint: "top" -23 770 mark 0
LayerCount: 2
Fore
SplineSet
-178 831 m 257
 -178 899 l 257
 -343 831 l 257
 -343 734 l 257
 -178 831 l 257
146 831 m 257
 146 899 l 257
 -178 899 l 257
 -178 831 l 257
 146 831 l 257
317 749 m 257
 317 831 l 257
 146 899 l 257
 146 831 l 257
 317 749 l 257
EndSplineSet
EndChar

StartChar: uni0312
Encoding: 786 786 818
GlifName: uni0312
Width: 0
VWidth: 0
GlyphClass: 4
Flags: W
AnchorPoint: "top" 4 1530 mark 0
LayerCount: 2
Fore
SplineSet
-68 1572 m 257
 69 1572 l 257
 69 1801 l 257
 -68 1801 l 257
 -68 1572 l 257
30 1674 m 257
 69 1801 l 257
 -55 2015 l 257
 -88 1955 l 257
 30 1674 l 257
EndSplineSet
EndChar

StartChar: uni0314
Encoding: 788 788 820
GlifName: commareversedabovecomb
Width: 0
VWidth: 0
GlyphClass: 4
Flags: W
AnchorPoint: "top" 85 949 mark 0
LayerCount: 2
Fore
SplineSet
133 1462 m 257
 -3 1462 l 257
 -3 1305 l 257
 133 1305 l 257
 133 1462 l 257
49 1432 m 257
 -1 1323 l 257
 41 1149 l 257
 91 1198 l 257
 49 1432 l 257
EndSplineSet
EndChar

StartChar: uni0315
Encoding: 789 789 821
GlifName: commaaboverightcomb
Width: 0
VWidth: 0
GlyphClass: 4
Flags: W
AnchorPoint: "top" -283 1018 mark 0
LayerCount: 2
Fore
SplineSet
-58 1219 m 257
 -58 1062 l 257
 78 1062 l 257
 78 1219 l 257
 -58 1219 l 257
26 1189 m 257
 -16 955 l 257
 34 906 l 257
 76 1080 l 257
 26 1189 l 257
EndSplineSet
EndChar

StartChar: uni031B
Encoding: 795 795 822
GlifName: uni031B_
Width: 0
VWidth: 0
GlyphClass: 4
Flags: W
AnchorPoint: "top" -12 784 mark 0
LayerCount: 2
Fore
SplineSet
-65 1115 m 257
 -65 958 l 257
 71 958 l 257
 71 1115 l 257
 -65 1115 l 257
19 1085 m 257
 -23 851 l 257
 27 802 l 257
 69 976 l 257
 19 1085 l 257
EndSplineSet
EndChar

StartChar: uni0324
Encoding: 804 804 823
GlifName: uni0324
Width: 0
VWidth: 0
GlyphClass: 4
Flags: W
AnchorPoint: "base" -3 -234 mark 0
LayerCount: 2
Fore
SplineSet
83 -255 m 257
 83 -378 l 257
 215 -378 l 257
 215 -255 l 257
 83 -255 l 257
-212 -256 m 257
 -212 -379 l 257
 -80 -379 l 257
 -80 -256 l 257
 -212 -256 l 257
EndSplineSet
EndChar

StartChar: uni0325
Encoding: 805 805 824
GlifName: ringbelowcomb
Width: 0
VWidth: 0
GlyphClass: 4
Flags: W
AnchorPoint: "base" 19 -35 mark 0
LayerCount: 2
Fore
SplineSet
-106 -210 m 257
 157 -210 l 257
 157 -418 l 257
 -106 -418 l 257
 -106 -210 l 257
-156 -162 m 257
 -156 -471 l 257
 204 -471 l 257
 204 -162 l 257
 -156 -162 l 257
EndSplineSet
EndChar

StartChar: uni0326
Encoding: 806 806 825
GlifName: uni0326
Width: 0
VWidth: 0
GlyphClass: 4
Flags: W
AnchorPoint: "base" 26 14 mark 0
LayerCount: 2
Fore
SplineSet
-34 0 m 257
 -34 -132 l 257
 78 -132 l 257
 78 0 l 257
 -34 0 l 257
-34 -132 m 257
 -78 -246 l 257
 -14 -273 l 257
 78 -132 l 257
 -34 -132 l 257
EndSplineSet
EndChar

StartChar: uni0327
Encoding: 807 807 826
GlifName: uni0327
Width: 0
VWidth: 0
GlyphClass: 4
Flags: W
AnchorPoint: "base" -738 238 mark 0
LayerCount: 2
Fore
SplineSet
-226 180 m 257
 -226 -27 l 257
 -168 -27 l 257
 -168 180 l 257
 -226 180 l 257
-220 -347 m 257
 -220 -406 l 257
 226 -373 l 257
 226 -314 l 257
 -220 -347 l 257
167 33 m 257
 167 -339 l 257
 226 -339 l 257
 226 33 l 257
 167 33 l 257
-220 33 m 257
 -220 -27 l 257
 226 -27 l 257
 226 33 l 257
 -220 33 l 257
EndSplineSet
EndChar

StartChar: uni0328
Encoding: 808 808 827
GlifName: uni0328
Width: 0
VWidth: 0
GlyphClass: 4
Flags: W
AnchorPoint: "base" -167 0 mark 0
LayerCount: 2
Fore
SplineSet
-271 -351 m 257
 -271 -411 l 257
 270 -411 l 257
 270 -351 l 257
 -271 -351 l 257
-271 0 m 257
 -271 -411 l 257
 -211 -411 l 257
 -211 0 l 257
 -271 0 l 257
-271 0 m 257
 -271 -59 l 257
 271 -59 l 257
 271 0 l 257
 -271 0 l 257
EndSplineSet
EndChar

StartChar: uni0329
Encoding: 809 809 828
GlifName: uni0329
Width: 0
VWidth: 0
GlyphClass: 4
Flags: W
AnchorPoint: "base" 4 -39 mark 0
LayerCount: 2
Fore
SplineSet
-30 -76 m 257
 -30 -419 l 257
 32 -419 l 257
 32 -76 l 257
 -30 -76 l 257
EndSplineSet
EndChar

StartChar: uni032E
Encoding: 814 814 830
GlifName: uni032E_
Width: 0
VWidth: 0
GlyphClass: 4
Flags: W
AnchorPoint: "base" -8 -4 mark 0
LayerCount: 2
Fore
SplineSet
197 -173 m 257
 197 -241 l 257
 362 -173 l 257
 362 -76 l 257
 197 -173 l 257
-127 -173 m 257
 -127 -241 l 257
 197 -241 l 257
 197 -173 l 257
 -127 -173 l 257
-298 -91 m 257
 -298 -173 l 257
 -127 -241 l 257
 -127 -173 l 257
 -298 -91 l 257
EndSplineSet
EndChar

StartChar: uni0331
Encoding: 817 817 833
GlifName: uni0331
Width: 0
VWidth: 0
GlyphClass: 4
Flags: W
AnchorPoint: "base" 4 -163 mark 0
LayerCount: 2
Fore
SplineSet
-1000 -204 m 257
 -1000 -248 l 257
 1000 -248 l 257
 1000 -204 l 257
 -1000 -204 l 257
EndSplineSet
EndChar

StartChar: uni0335
Encoding: 821 821 835
GlifName: uni0335
Width: 0
VWidth: 0
GlyphClass: 4
Flags: W
AnchorPoint: "base" 4 -163 mark 0
LayerCount: 2
Fore
SplineSet
-575 1013 m 257
 -575 935 l 257
 -15 935 l 257
 -15 1013 l 257
 -575 1013 l 257
EndSplineSet
EndChar

StartChar: uni0345
Encoding: 837 837 839
GlifName: uni0345
Width: 0
VWidth: 0
GlyphClass: 4
Flags: W
LayerCount: 2
Fore
SplineSet
-30 -107 m 257
 -30 -338 l 257
 30 -338 l 257
 30 -107 l 257
 -30 -107 l 257
-31 -338 m 257
 2 -391 l 257
 231 -356 l 257
 199 -303 l 257
 -31 -338 l 257
EndSplineSet
EndChar

StartChar: uni035C
Encoding: 860 860 840
GlifName: uni035C_
Width: 0
VWidth: 0
GlyphClass: 2
Flags: W
AnchorPoint: "base" 0 9 basechar 0
LayerCount: 2
Fore
SplineSet
-1662 -333 m 257
 -2364 28 l 257
 -2364 -53 l 257
 -1662 -414 l 257
 -1662 -333 l 257
1539 -301 m 257
 -1662 -333 l 257
 -1662 -414 l 257
 1542 -382 l 257
 1539 -301 l 257
1542 -382 m 257
 2343 10 l 257
 2343 91 l 257
 1539 -301 l 257
 1542 -382 l 257
EndSplineSet
EndChar

StartChar: uni035F
Encoding: 863 863 841
GlifName: doublemacronbelowcomb
Width: 0
VWidth: 0
GlyphClass: 4
Flags: W
AnchorPoint: "base" 4 -163 mark 0
LayerCount: 2
Fore
SplineSet
-450 -204 m 257
 -450 -248 l 257
 442 -248 l 257
 442 -204 l 257
 -450 -204 l 257
EndSplineSet
EndChar

StartChar: uni0394
Encoding: 916 916 846
GlifName: uni0394
Width: 2048
VWidth: 0
GlyphClass: 2
Flags: W
LayerCount: 2
Fore
SplineSet
125 57 m 257
 125 0 l 257
 1923 0 l 257
 1923 57 l 257
 125 57 l 257
1941 0 m 257
 1090 1548 l 257
 1018 1548 l 257
 1889 0 l 257
 1941 0 l 257
155 0 m 257
 1023 1548 l 257
 952 1548 l 257
 106 0 l 257
 155 0 l 257
EndSplineSet
EndChar

StartChar: uni03A9
Encoding: 937 937 847
GlifName: uni03A_9
Width: 2048
VWidth: 0
GlyphClass: 2
Flags: W
LayerCount: 2
Fore
SplineSet
1326 557 m 257
 1326 59 l 257
 1386 59 l 257
 1386 557 l 257
 1326 557 l 257
665 557 m 257
 665 59 l 257
 725 59 l 257
 725 557 l 257
 665 557 l 257
1326 69 m 257
 1326 9 l 257
 1939 9 l 257
 1939 69 l 257
 1326 69 l 257
112 69 m 257
 112 9 l 257
 725 9 l 257
 725 69 l 257
 112 69 l 257
1326 617 m 257
 1326 555 l 257
 1939 555 l 257
 1939 617 l 257
 1326 617 l 257
110 1537 m 257
 110 566 l 257
 170 566 l 257
 170 1537 l 257
 110 1537 l 257
1874 1537 m 257
 1874 566 l 257
 1934 566 l 257
 1934 1537 l 257
 1874 1537 l 257
160 1537 m 257
 160 1477 l 257
 1896 1477 l 257
 1896 1537 l 257
 160 1537 l 257
112 611 m 257
 112 555 l 257
 725 555 l 257
 725 611 l 257
 112 611 l 257
EndSplineSet
EndChar

StartChar: uni03CF
Encoding: 975 975 849
GlifName: K_aiS_ymbol
Width: 2048
VWidth: 0
GlyphClass: 2
Flags: W
LayerCount: 2
Fore
SplineSet
1469 -346 m 257
 1527 -374 l 257
 1862 5 l 257
 1804 33 l 257
 1469 -346 l 257
EndSplineSet
Refer: 78 75 N 1 0 0 1 0 0 2
EndChar

StartChar: uni03D7
Encoding: 983 983 850
GlifName: kaiS_ymbol
Width: 2048
VWidth: 0
GlyphClass: 2
Flags: W
LayerCount: 2
Fore
SplineSet
53 1017 m 257
 56 961 l 257
 671 851 l 257
 739 909 l 257
 53 1017 l 257
680 925 m 257
 384 39 l 257
 442 22 l 257
 738 908 l 257
 680 925 l 257
1579 1033 m 257
 381 37 l 257
 451 18 l 257
 1649 1014 l 257
 1579 1033 l 257
1579 1035 m 257
 1283 39 l 257
 1344 -5 l 257
 1640 991 l 257
 1579 1035 l 257
1283 39 m 257
 1345 -5 l 257
 1877 -1 l 257
 1930 39 l 257
 1283 39 l 257
1143 -294 m 257
 1263 -314 l 257
 1810 -238 l 257
 1776 -215 l 257
 1143 -294 l 257
1930 39 m 257
 1871 -1 l 257
 1759 -249 l 257
 1809 -239 l 257
 1930 39 l 257
EndSplineSet
EndChar

StartChar: uni046A
Encoding: 1130 1130 855
GlifName: uni046A_
Width: 2048
VWidth: 0
GlyphClass: 2
Flags: W
LayerCount: 2
Fore
SplineSet
157 1408 m 257
 157 1348 l 257
 1933 1348 l 257
 1933 1408 l 257
 157 1408 l 257
1006 646 m 257
 1002 1 l 257
 1062 1 l 257
 1066 646 l 257
 1006 646 l 257
160 1355 m 257
 1772 4 l 257
 1832 4 l 257
 220 1355 l 257
 160 1355 l 257
1874 1355 m 257
 212 5 l 257
 272 5 l 257
 1934 1355 l 257
 1874 1355 l 257
EndSplineSet
EndChar

StartChar: uni046B
Encoding: 1131 1131 856
GlifName: yusbig-cy
Width: 2048
VWidth: 0
GlyphClass: 2
Flags: W
LayerCount: 2
Fore
SplineSet
157 1049 m 257
 157 989 l 257
 1933 989 l 257
 1933 1049 l 257
 157 1049 l 257
1002 480 m 257
 1002 1 l 257
 1062 1 l 257
 1062 480 l 257
 1002 480 l 257
160 996 m 257
 1772 4 l 257
 1832 4 l 257
 220 996 l 257
 160 996 l 257
1874 996 m 257
 212 5 l 257
 272 5 l 257
 1934 996 l 257
 1874 996 l 257
EndSplineSet
EndChar

StartChar: uni0494
Encoding: 1172 1172 861
GlifName: uni0494
Width: 2048
VWidth: 0
GlyphClass: 2
Flags: W
LayerCount: 2
Fore
SplineSet
829 1547 m 257
 829 1487 l 257
 1765 1487 l 257
 1765 1547 l 257
 829 1547 l 257
815 1544 m 257
 815 -1 l 257
 875 -1 l 257
 875 1544 l 257
 815 1544 l 257
828 994 m 257
 828 934 l 257
 1953 934 l 257
 1953 994 l 257
 828 994 l 257
1893 989 m 257
 1893 -406 l 257
 1953 -406 l 257
 1953 989 l 257
 1893 989 l 257
1374 -383 m 257
 1374 -443 l 257
 1953 -443 l 257
 1953 -383 l 257
 1374 -383 l 257
EndSplineSet
EndChar

StartChar: uni0495
Encoding: 1173 1173 862
GlifName: uni0495
Width: 2048
VWidth: 0
GlyphClass: 2
Flags: W
LayerCount: 2
Fore
SplineSet
829 1017 m 257
 829 957 l 257
 1765 957 l 257
 1765 1017 l 257
 829 1017 l 257
815 1014 m 257
 815 -1 l 257
 875 -1 l 257
 875 1014 l 257
 815 1014 l 257
828 464 m 257
 828 404 l 257
 1953 404 l 257
 1953 464 l 257
 828 464 l 257
1893 459 m 257
 1893 -406 l 257
 1953 -406 l 257
 1953 459 l 257
 1893 459 l 257
1374 -383 m 257
 1374 -443 l 257
 1953 -443 l 257
 1953 -383 l 257
 1374 -383 l 257
EndSplineSet
EndChar

StartChar: uni04A6
Encoding: 1190 1190 879
GlifName: uni04A_6
Width: 2048
VWidth: 0
GlyphClass: 2
Flags: W
LayerCount: 2
Fore
SplineSet
164 1547 m 257
 164 1487 l 257
 1100 1487 l 257
 1100 1547 l 257
 164 1547 l 257
1054 1544 m 257
 1054 -1 l 257
 1114 -1 l 257
 1114 1544 l 257
 1054 1544 l 257
1078 994 m 257
 1078 934 l 257
 1953 934 l 257
 1953 994 l 257
 1078 994 l 257
1893 989 m 257
 1893 -406 l 257
 1953 -406 l 257
 1953 989 l 257
 1893 989 l 257
1374 -383 m 257
 1374 -443 l 257
 1953 -443 l 257
 1953 -383 l 257
 1374 -383 l 257
164 1544 m 257
 164 -1 l 257
 224 -1 l 257
 224 1544 l 257
 164 1544 l 257
EndSplineSet
EndChar

StartChar: uni04A7
Encoding: 1191 1191 880
GlifName: uni04A_7
Width: 2048
VWidth: 0
GlyphClass: 2
Flags: W
LayerCount: 2
Fore
SplineSet
99 1017 m 257
 99 957 l 257
 1087 957 l 257
 1087 1017 l 257
 99 1017 l 257
78 1010 m 257
 78 -5 l 257
 138 -5 l 257
 138 1010 l 257
 78 1010 l 257
1049 464 m 257
 1049 404 l 257
 1953 404 l 257
 1953 464 l 257
 1049 464 l 257
1893 459 m 257
 1893 -406 l 257
 1953 -406 l 257
 1953 459 l 257
 1893 459 l 257
1374 -383 m 257
 1374 -443 l 257
 1953 -443 l 257
 1953 -383 l 257
 1374 -383 l 257
1031 1018 m 257
 1031 3 l 257
 1091 3 l 257
 1091 1018 l 257
 1031 1018 l 257
EndSplineSet
EndChar

StartChar: uni04A8
Encoding: 1192 1192 881
GlifName: uni04A_8
Width: 2048
VWidth: 0
GlyphClass: 2
Flags: W
LayerCount: 2
Fore
SplineSet
64 1550 m 257
 64 101 l 257
 125 101 l 257
 125 1550 l 257
 64 1550 l 257
65 62 m 257
 65 2 l 257
 1821 2 l 257
 1821 62 l 257
 65 62 l 257
1782 1018 m 257
 1782 5 l 257
 1842 5 l 257
 1842 1018 l 257
 1782 1018 l 257
1058 1018 m 257
 1058 958 l 257
 1821 958 l 257
 1821 1018 l 257
 1058 1018 l 257
999 1018 m 257
 999 -240 l 257
 1059 -240 l 257
 1059 1018 l 257
 999 1018 l 257
1012 -180 m 257
 1012 -240 l 257
 1974 -240 l 257
 1974 -180 l 257
 1012 -180 l 257
97 1551 m 257
 97 1491 l 257
 623 1491 l 257
 623 1551 l 257
 97 1551 l 257
EndSplineSet
EndChar

StartChar: uni04A9
Encoding: 1193 1193 882
GlifName: uni04A_9
Width: 2048
VWidth: 0
GlyphClass: 2
Flags: W
LayerCount: 2
Fore
SplineSet
64 1025 m 257
 64 101 l 257
 125 101 l 257
 125 1025 l 257
 64 1025 l 257
65 62 m 257
 65 2 l 257
 1821 2 l 257
 1821 62 l 257
 65 62 l 257
1782 700 m 257
 1782 5 l 257
 1842 5 l 257
 1842 700 l 257
 1782 700 l 257
1058 700 m 257
 1058 640 l 257
 1821 640 l 257
 1821 700 l 257
 1058 700 l 257
999 700 m 257
 999 -198 l 257
 1059 -198 l 257
 1059 700 l 257
 999 700 l 257
1012 -138 m 257
 1012 -198 l 257
 1974 -198 l 257
 1974 -138 l 257
 1012 -138 l 257
97 1026 m 257
 97 966 l 257
 623 966 l 257
 623 1026 l 257
 97 1026 l 257
EndSplineSet
EndChar

StartChar: uni04BC
Encoding: 1212 1212 901
GlifName: uni04B_C_
Width: 2048
VWidth: 0
GlyphClass: 2
Flags: W
AnchorPoint: "top" 1029 1727 basechar 0
AnchorPoint: "base" 1026 -164 basechar 0
LayerCount: 2
Fore
SplineSet
396 1538 m 257
 396 1478 l 257
 1959 1478 l 257
 1959 1538 l 257
 396 1538 l 257
362 1538 m 257
 362 -5 l 257
 422 -5 l 257
 422 1538 l 257
 362 1538 l 257
415 55 m 257
 415 -5 l 257
 2054 -5 l 257
 2054 55 l 257
 415 55 l 257
166 670 m 257
 170 1226 l 257
 110 1227 l 257
 106 670 l 257
 166 670 l 257
107 670 m 257
 2094 670 l 257
 2094 730 l 257
 107 730 l 257
 107 670 l 257
1897 1508 m 257
 2057 669 l 257
 2117 669 l 257
 1957 1508 l 257
 1897 1508 l 257
EndSplineSet
EndChar

StartChar: uni04BD
Encoding: 1213 1213 902
GlifName: uni04B_D_
Width: 2048
VWidth: 0
GlyphClass: 2
Flags: W
AnchorPoint: "top" 1028 1083 basechar 0
AnchorPoint: "base" 1025 -89 basechar 0
LayerCount: 2
Fore
SplineSet
430 1023 m 257
 430 963 l 257
 1775 897 l 257
 1775 957 l 257
 430 1023 l 257
369 1024 m 257
 369 1 l 257
 429 1 l 257
 429 1024 l 257
 369 1024 l 257
430 61 m 257
 430 1 l 257
 1845 1 l 257
 1845 61 l 257
 430 61 l 257
208 448 m 257
 206 666 l 257
 146 666 l 257
 148 447 l 257
 208 448 l 257
148 447 m 257
 1821 447 l 257
 1821 507 l 257
 147 507 l 257
 148 447 l 257
1713 927 m 257
 1784 446 l 257
 1844 446 l 257
 1773 927 l 257
 1713 927 l 257
EndSplineSet
EndChar

StartChar: uni04E0
Encoding: 1248 1248 924
GlifName: uni04E_0
Width: 2048
VWidth: 0
Flags: W
LayerCount: 2
Fore
SplineSet
124 1547 m 257
 124 1487 l 257
 1974 1487 l 257
 1974 1547 l 257
 124 1547 l 257
1912 1348 m 257
 1432 848 l 257
 1492 848 l 257
 1972 1348 l 257
 1912 1348 l 257
1915 763 m 257
 1915 7 l 257
 1975 7 l 257
 1975 763 l 257
 1915 763 l 257
128 60 m 257
 128 0 l 257
 1971 0 l 257
 1971 60 l 257
 128 60 l 257
525 822 m 257
 525 762 l 257
 2068 762 l 257
 2068 822 l 257
 525 822 l 257
EndSplineSet
EndChar

StartChar: uni04E1
Encoding: 1249 1249 925
GlifName: uni04E_1
Width: 2048
VWidth: 0
Flags: W
LayerCount: 2
Fore
SplineSet
124 1016 m 257
 124 956 l 257
 1974 956 l 257
 1974 1016 l 257
 124 1016 l 257
1912 817 m 257
 1432 317 l 257
 1492 317 l 257
 1972 817 l 257
 1912 817 l 257
1915 232 m 257
 1915 -524 l 257
 1975 -524 l 257
 1975 232 l 257
 1915 232 l 257
128 -471 m 257
 128 -531 l 257
 1971 -531 l 257
 1971 -471 l 257
 128 -471 l 257
525 291 m 257
 525 231 l 257
 2068 231 l 257
 2068 291 l 257
 525 291 l 257
EndSplineSet
EndChar

StartChar: uni04E9
Encoding: 1257 1257 933
GlifName: obarred-cy
Width: 2048
VWidth: 0
GlyphClass: 2
Flags: W
AnchorPoint: "top" 1070 1118 basechar 0
AnchorPoint: "base" 1008 -74 basechar 0
LayerCount: 2
Fore
SplineSet
104 1023 m 257
 104 0 l 257
 160 0 l 257
 160 1023 l 257
 104 1023 l 257
1884 1023 m 257
 1884 0 l 257
 1946 0 l 257
 1946 1023 l 257
 1884 1023 l 257
152 1023 m 257
 152 967 l 257
 1889 967 l 257
 1889 1023 l 257
 152 1023 l 257
150 62 m 257
 150 0 l 257
 1892 0 l 257
 1892 62 l 257
 150 62 l 257
141.109 616 m 257
 141.109 556 l 257
 1908.77 556 l 257
 1908.77 616 l 257
 141.109 616 l 257
EndSplineSet
EndChar

StartChar: uni0900
Encoding: 2304 2304 952
GlifName: uni0900
Width: 0
VWidth: 0
GlyphClass: 4
Flags: W
AnchorPoint: "abvm_deva" 42 1648 mark 0
LayerCount: 2
Fore
SplineSet
-332 2121 m 257
 -332 1639 l 257
 -272 1639 l 257
 -272 2121 l 257
 -332 2121 l 257
-318 2122 m 257
 -318 2061 l 257
 294 2061 l 257
 294 2122 l 257
 -318 2122 l 257
-46 1919 m 257
 -46 1796 l 257
 70 1796 l 257
 70 1919 l 257
 -46 1919 l 257
272 2122 m 257
 272 1636 l 257
 332 1636 l 257
 332 2122 l 257
 272 2122 l 257
EndSplineSet
EndChar

StartChar: uni0901
Encoding: 2305 2305 953
GlifName: uni0901
Width: 0
VWidth: 0
GlyphClass: 4
Flags: W
AnchorPoint: "abvm_deva" 0 1618 mark 0
LayerCount: 2
Fore
SplineSet
-349 2124 m 257
 -349 1639 l 257
 -289 1639 l 257
 -289 2124 l 257
 -349 2124 l 257
-314 1699 m 257
 -314 1639 l 257
 320 1639 l 257
 320 1699 l 257
 -314 1699 l 257
-47 1962 m 257
 -47 1839 l 257
 70 1839 l 257
 70 1962 l 257
 -47 1962 l 257
289 2130 m 257
 289 1639 l 257
 349 1639 l 257
 349 2130 l 257
 289 2130 l 257
EndSplineSet
EndChar

StartChar: uni0902
Encoding: 2306 2306 954
GlifName: uni0902
Width: 0
VWidth: 0
GlyphClass: 4
Flags: W
AnchorPoint: "abvm_deva" 1 1500 mark 0
LayerCount: 2
Fore
SplineSet
-60 1755 m 257
 -60 1635 l 257
 60 1635 l 257
 60 1755 l 257
 -60 1755 l 257
EndSplineSet
EndChar

StartChar: uni0903
Encoding: 2307 2307 955
GlifName: uni0903
Width: 2048
VWidth: 0
GlyphClass: 2
Flags: W
LayerCount: 2
Fore
SplineSet
983 261 m 257
 983 141 l 257
 1103 141 l 257
 1103 261 l 257
 983 261 l 257
945 1162 m 257
 945 1039 l 257
 1062 1039 l 257
 1062 1162 l 257
 945 1162 l 257
EndSplineSet
EndChar

StartChar: uni0904
Encoding: 2308 2308 956
GlifName: uni0904
Width: 2048
VWidth: 0
GlyphClass: 2
Flags: W
AnchorPoint: "abvm_deva" 1280 1885 basechar 0
LayerCount: 2
Fore
SplineSet
771 2062 m 257
 771 1823 l 257
 832 1823 l 257
 832 2062 l 257
 771 2062 l 257
770 1866 m 257
 770 1809 l 257
 1765 1809 l 257
 1765 1866 l 257
 770 1866 l 257
1705 1863 m 257
 1705 1550 l 257
 1765 1550 l 257
 1765 1863 l 257
 1705 1863 l 257
1241 1550 m 257
 1241 1495 l 257
 2050 1495 l 257
 2050 1550 l 257
 1241 1550 l 257
1732 1518 m 257
 1732 0 l 257
 1793 0 l 257
 1793 1518 l 257
 1732 1518 l 257
43 1550 m 257
 43 1487 l 257
 1078 1487 l 257
 1078 1550 l 257
 43 1550 l 257
1045 1550 m 257
 1045 34 l 257
 1104 34 l 257
 1104 1550 l 257
 1045 1550 l 257
127 894 m 257
 127 835 l 257
 1759 835 l 257
 1759 894 l 257
 127 894 l 257
18 65 m 257
 18 0 l 257
 1104 0 l 257
 1104 65 l 257
 18 65 l 257
EndSplineSet
EndChar

StartChar: uni0905
Encoding: 2309 2309 957
GlifName: uni0905
Width: 2048
VWidth: 0
GlyphClass: 2
Flags: W
AnchorPoint: "abvm_deva" 1739 1559 basechar 0
LayerCount: 2
Fore
SplineSet
1218 1550 m 257
 1218 1497 l 257
 2050 1497 l 257
 2050 1550 l 257
 1218 1550 l 257
1702 1518 m 257
 1702 0 l 257
 1764 0 l 257
 1764 1518 l 257
 1702 1518 l 257
38 1550 m 257
 38 1487 l 257
 1060 1487 l 257
 1060 1550 l 257
 38 1550 l 257
1028 1550 m 257
 1028 34 l 257
 1086 34 l 257
 1086 1550 l 257
 1028 1550 l 257
122 894 m 257
 122 835 l 257
 1730 835 l 257
 1730 894 l 257
 122 894 l 257
12 65 m 257
 12 0 l 257
 1086 0 l 257
 1086 65 l 257
 12 65 l 257
EndSplineSet
EndChar

StartChar: uni0906
Encoding: 2310 2310 958
GlifName: uni0906
Width: 2048
VWidth: 0
GlyphClass: 2
Flags: W
AnchorPoint: "abvm_deva" 1930 1558 basechar 0
LayerCount: 2
Fore
SplineSet
1049 1550 m 257
 1049 1496 l 257
 2050 1496 l 257
 2050 1550 l 257
 1049 1550 l 257
1520 1518 m 257
 1520 0 l 257
 1581 0 l 257
 1581 1518 l 257
 1520 1518 l 257
53 1550 m 257
 53 1487 l 257
 876 1487 l 257
 876 1550 l 257
 53 1550 l 257
843 1550 m 257
 843 34 l 257
 902 34 l 257
 902 1550 l 257
 843 1550 l 257
137 894 m 257
 137 835 l 257
 1545 835 l 257
 1545 894 l 257
 137 894 l 257
28 65 m 257
 28 0 l 257
 902 0 l 257
 902 65 l 257
 28 65 l 257
1903 1518 m 257
 1903 0 l 257
 1964 0 l 257
 1964 1518 l 257
 1903 1518 l 257
EndSplineSet
EndChar

StartChar: uni0907
Encoding: 2311 2311 959
GlifName: uni0907
Width: 2048
VWidth: 0
GlyphClass: 2
Flags: W
HStem: 285 13<1480 1540 1540 1540>
AnchorPoint: "abvm_deva" 1664 1557 basechar 0
LayerCount: 2
Fore
SplineSet
0 1550 m 257
 0 1496 l 257
 2055 1496 l 257
 2055 1550 l 257
 0 1550 l 257
1390 1529 m 257
 1390 1173 l 257
 1449 1173 l 257
 1449 1529 l 257
 1390 1529 l 257
168 1205 m 257
 168 1144 l 257
 1448 1144 l 257
 1448 1205 l 257
 168 1205 l 257
168 1181 m 257
 168 845 l 257
 226 845 l 257
 226 1181 l 257
 168 1181 l 257
168 881 m 257
 168 819 l 257
 1514 819 l 257
 1514 881 l 257
 168 881 l 257
1480 881 m 257
 1480 285 l 257
 1540 285 l 257
 1540 881 l 257
 1480 881 l 257
146 298 m 257
 146 237 l 257
 1542 237 l 257
 1542 298 l 257
 146 298 l 257
262 298 m 257
 262 -244 l 257
 322 -244 l 257
 322 298 l 257
 262 298 l 257
EndSplineSet
PickledDataWithLists: "(dp0
Vcom.fontlab.hintData
p1
(dp2
Vhhints
p3
(lp4
(dp5
Vposition
p6
I285
sVwidth
p7
I13
sass."
EndChar

StartChar: uni0908
Encoding: 2312 2312 960
GlifName: uni0908
Width: 2048
VWidth: 0
GlyphClass: 2
Flags: W
HStem: 285 13<1484 1544 1544 1544>
AnchorPoint: "abvm_deva" 1689 1557 basechar 0
LayerCount: 2
Fore
SplineSet
0 1550 m 257
 0 1495 l 257
 2055 1495 l 257
 2055 1550 l 257
 0 1550 l 257
1392 1553 m 257
 1392 1183 l 257
 1452 1183 l 257
 1452 1553 l 257
 1392 1553 l 257
170 1207 m 257
 170 1146 l 257
 1452 1146 l 257
 1452 1207 l 257
 170 1207 l 257
170 1181 m 257
 170 849 l 257
 230 849 l 257
 230 1181 l 257
 170 1181 l 257
170 881 m 257
 170 821 l 257
 1522 821 l 257
 1522 881 l 257
 170 881 l 257
1484 881 m 257
 1484 285 l 257
 1544 285 l 257
 1544 881 l 257
 1484 881 l 257
148 298 m 257
 148 237 l 257
 1546 237 l 257
 1546 298 l 257
 148 298 l 257
264 298 m 257
 264 -244 l 257
 324 -244 l 257
 324 298 l 257
 264 298 l 257
316 1860 m 257
 1246 1550 l 257
 1350 1550 l 257
 394 1908 l 257
 316 1860 l 257
EndSplineSet
PickledDataWithLists: "(dp0
Vcom.fontlab.hintData
p1
(dp2
Vhhints
p3
(lp4
(dp5
Vposition
p6
I285
sVwidth
p7
I13
sass."
EndChar

StartChar: uni0909
Encoding: 2313 2313 961
GlifName: uni0909
Width: 2048
VWidth: 0
GlyphClass: 2
Flags: W
HStem: 985 9<1633 1633 1633 1692 1692 1692>
AnchorPoint: "abvm_deva" 1625 1559 basechar 0
LayerCount: 2
Fore
SplineSet
0 1550 m 257
 0 1495 l 257
 2050 1495 l 257
 2050 1550 l 257
 0 1550 l 257
1135 1530 m 257
 1135 1001 l 257
 1194 1001 l 257
 1194 1530 l 257
 1135 1530 l 257
250 1044 m 257
 250 985 l 257
 1692 985 l 257
 1692 1044 l 257
 250 1044 l 257
1633 994 m 257
 1633 0 l 257
 1693 0 l 257
 1693 994 l 257
 1633 994 l 257
145 61 m 257
 145 0 l 257
 1682 0 l 257
 1682 61 l 257
 145 61 l 257
145 346 m 257
 145 19 l 257
 204 19 l 257
 204 346 l 257
 145 346 l 257
EndSplineSet
PickledDataWithLists: "(dp0
Vcom.fontlab.hintData
p1
(dp2
Vhhints
p3
(lp4
(dp5
Vposition
p6
I985
sVwidth
p7
I9
sass."
EndChar

StartChar: uni090A
Encoding: 2314 2314 962
GlifName: uni090A_
Width: 2048
VWidth: 0
GlyphClass: 2
Flags: W
HStem: 983 11<1241 1241 1241 1302>
AnchorPoint: "abvm_deva" 1602 1559 basechar 0
LayerCount: 2
Fore
SplineSet
0 1550 m 257
 0 1496 l 257
 2050 1496 l 257
 2050 1550 l 257
 0 1550 l 257
946 1530 m 257
 946 1001 l 257
 1007 1001 l 257
 1007 1530 l 257
 946 1530 l 257
166 1044 m 257
 166 983 l 257
 1771 983 l 257
 1771 1044 l 257
 166 1044 l 257
1241 994 m 257
 1241 0 l 257
 1302 0 l 257
 1302 994 l 257
 1241 994 l 257
61 61 m 257
 61 0 l 257
 1299 0 l 257
 1299 61 l 257
 61 61 l 257
61 346 m 257
 61 19 l 257
 122 19 l 257
 122 346 l 257
 61 346 l 257
1711 1023 m 257
 1711 197 l 257
 1771 197 l 257
 1771 1023 l 257
 1711 1023 l 257
EndSplineSet
PickledDataWithLists: "(dp0
Vcom.fontlab.hintData
p1
(dp2
Vhhints
p3
(lp4
(dp5
Vposition
p6
I983
sVwidth
p7
I11
sass."
EndChar

StartChar: uni090B
Encoding: 2315 2315 963
GlifName: uni090B_
Width: 2048
VWidth: 0
GlyphClass: 2
Flags: W
VStem: 1069 12<837 897 837 837 902 958 958 958>
AnchorPoint: "abvm_deva" 1650 1557 basechar 0
LayerCount: 2
Fore
SplineSet
0 1550 m 257
 0 1495 l 257
 2047 1495 l 257
 2047 1550 l 257
 0 1550 l 257
1022 1533 m 257
 1022 0 l 257
 1081 0 l 257
 1081 1533 l 257
 1022 1533 l 257
20 1043 m 257
 20 983 l 257
 323 983 l 257
 323 1043 l 257
 20 1043 l 257
1043 471 m 257
 84 471 l 257
 169 417 l 257
 1078 417 l 257
 1043 471 l 257
323 1043 m 257
 323 983 l 257
 1069 902 l 257
 1069 958 l 257
 323 1043 l 257
1069 897 m 257
 1069 837 l 257
 1698 837 l 257
 1698 897 l 257
 1069 897 l 257
1656 897 m 257
 1656 265 l 257
 1717 265 l 257
 1717 897 l 257
 1656 897 l 257
1656 324 m 257
 1656 264 l 257
 2046 264 l 257
 2046 324 l 257
 1656 324 l 257
EndSplineSet
PickledDataWithLists: "(dp0
Vcom.fontlab.hintData
p1
(dp2
Vvhints
p3
(lp4
(dp5
Vposition
p6
I1069
sVwidth
p7
I12
sass."
EndChar

StartChar: uni090C
Encoding: 2316 2316 964
GlifName: uni090C_
Width: 2048
VWidth: 0
GlyphClass: 2
Flags: W
AnchorPoint: "abvm_deva" 1689 1555 basechar 0
LayerCount: 2
Fore
SplineSet
0 1550 m 257
 0 1495 l 257
 2048 1495 l 257
 2048 1550 l 257
 0 1550 l 257
1160 1550 m 257
 1160 759 l 257
 1220 759 l 257
 1220 1550 l 257
 1160 1550 l 257
1792 791 m 257
 56 791 l 257
 56 731 l 257
 1792 731 l 257
 1792 791 l 257
58 777 m 257
 58 252 l 257
 118 252 l 257
 118 777 l 257
 58 777 l 257
660 791 m 257
 660 433 l 257
 720 433 l 257
 720 791 l 257
 660 791 l 257
1722 792 m 257
 1722 73 l 257
 1782 73 l 257
 1782 792 l 257
 1722 792 l 257
1766 132 m 257
 1766 71 l 257
 2046 71 l 257
 2046 132 l 257
 1766 132 l 257
EndSplineSet
EndChar

